/usr/local/bin/python2.7 /Users/masterjildo/sigmusic/leap/InterpreterLayer/Main.py
midi.Pattern(format=1, resolution=192, tracks=\
[midi.Track(\
  [midi.SetTempoEvent(tick=0, data=[36, 159, 0]),
   midi.TimeSignatureEvent(tick=0, data=[4, 2, 24, 8]),
   midi.KeySignatureEvent(tick=0, data=[0, 0]),
   midi.EndOfTrackEvent(tick=0, data=[])]),
 midi.Track(\
  [midi.TrackNameEvent(tick=0, text='HMP2MID.EXE by Markus Hein (heinm@cs.tu-berlin.de)', data=[72, 77, 80, 50, 77, 73, 68, 46, 69, 88, 69, 32, 98, 121, 32, 77, 97, 114, 107, 117, 115, 32, 72, 101, 105, 110, 32, 40, 104, 101, 105, 110, 109, 64, 99, 115, 46, 116, 117, 45, 98, 101, 114, 108, 105, 110, 46, 100, 101, 41]),
   midi.EndOfTrackEvent(tick=0, data=[])]),
 midi.Track(\
  [midi.ChannelPrefixEvent(tick=0, data=[0]),
   midi.ControlChangeEvent(tick=0, channel=0, data=[7, 127]),
   midi.ProgramChangeEvent(tick=0, channel=0, data=[62]),
   midi.ControlChangeEvent(tick=0, channel=0, data=[32, 0]),
   midi.ControlChangeEvent(tick=0, channel=0, data=[0, 0]),
   midi.NoteOnEvent(tick=9, channel=0, data=[55, 101]),
   midi.NoteOnEvent(tick=0, channel=0, data=[60, 99]),
   midi.NoteOnEvent(tick=0, channel=0, data=[63, 114]),
   midi.NoteOffEvent(tick=10, channel=0, data=[63, 0]),
   midi.NoteOffEvent(tick=0, channel=0, data=[60, 0]),
   midi.NoteOffEvent(tick=0, channel=0, data=[55, 0]),
   midi.NoteOnEvent(tick=0, channel=0, data=[55, 32]),
   midi.NoteOnEvent(tick=0, channel=0, data=[60, 32]),
   midi.NoteOnEvent(tick=0, channel=0, data=[63, 32]),
   midi.NoteOffEvent(tick=9, channel=0, data=[63, 0]),
   midi.NoteOffEvent(tick=0, channel=0, data=[60, 0]),
   midi.NoteOffEvent(tick=0, channel=0, data=[55, 0]),
   midi.NoteOnEvent(tick=0, channel=0, data=[55, 94]),
   midi.NoteOnEvent(tick=0, channel=0, data=[60, 92]),
   midi.NoteOnEvent(tick=0, channel=0, data=[63, 105]),
   midi.NoteOffEvent(tick=10, channel=0, data=[63, 0]),
   midi.NoteOffEvent(tick=0, channel=0, data=[60, 0]),
   midi.NoteOffEvent(tick=0, channel=0, data=[55, 0]),
   midi.NoteOnEvent(tick=0, channel=0, data=[53, 87]),
   midi.NoteOnEvent(tick=0, channel=0, data=[58, 84]),
   midi.NoteOnEvent(tick=0, channel=0, data=[62, 92]),
   midi.NoteOffEvent(tick=9, channel=0, data=[62, 0]),
   midi.NoteOffEvent(tick=0, channel=0, data=[58, 0]),
   midi.NoteOffEvent(tick=0, channel=0, data=[53, 0]),
   midi.NoteOnEvent(tick=0, channel=0, data=[63, 32]),
   midi.NoteOnEvent(tick=0, channel=0, data=[59, 32]),
   midi.NoteOnEvent(tick=0, channel=0, data=[54, 32]),
   midi.NoteOffEvent(tick=10, channel=0, data=[54, 0]),
   midi.NoteOffEvent(tick=0, channel=0, data=[59, 0]),
   midi.NoteOffEvent(tick=0, channel=0, data=[63, 0]),
   midi.NoteOnEvent(tick=0, channel=0, data=[53, 94]),
   midi.NoteOnEvent(tick=0, channel=0, data=[58, 87]),
   midi.NoteOnEvent(tick=0, channel=0, data=[62, 95]),
   midi.NoteOffEvent(tick=9, channel=0, data=[62, 0]),
   midi.NoteOffEvent(tick=0, channel=0, data=[58, 0]),
   midi.NoteOffEvent(tick=0, channel=0, data=[53, 0]),
   midi.NoteOnEvent(tick=0, channel=0, data=[55, 96]),
   midi.NoteOnEvent(tick=0, channel=0, data=[60, 101]),
   midi.NoteOnEvent(tick=0, channel=0, data=[63, 88]),
   midi.NoteOffEvent(tick=57, channel=0, data=[63, 0]),
   midi.NoteOffEvent(tick=0, channel=0, data=[60, 0]),
   midi.NoteOffEvent(tick=0, channel=0, data=[55, 0]),
   midi.NoteOnEvent(tick=0, channel=0, data=[55, 32]),
   midi.NoteOnEvent(tick=0, channel=0, data=[60, 32]),
   midi.NoteOnEvent(tick=0, channel=0, data=[63, 32]),
   midi.NoteOffEvent(tick=10, channel=0, data=[63, 0]),
   midi.NoteOffEvent(tick=0, channel=0, data=[60, 0]),
   midi.NoteOffEvent(tick=0, channel=0, data=[55, 0]),
   midi.NoteOnEvent(tick=0, channel=0, data=[55, 94]),
   midi.NoteOnEvent(tick=0, channel=0, data=[60, 92]),
   midi.NoteOnEvent(tick=0, channel=0, data=[63, 94]),
   midi.NoteOffEvent(tick=9, channel=0, data=[63, 0]),
   midi.NoteOffEvent(tick=0, channel=0, data=[60, 0]),
   midi.NoteOffEvent(tick=0, channel=0, data=[55, 0]),
   midi.NoteOnEvent(tick=0, channel=0, data=[53, 89]),
   midi.NoteOnEvent(tick=0, channel=0, data=[58, 84]),
   midi.NoteOnEvent(tick=0, channel=0, data=[62, 86]),
   midi.NoteOffEvent(tick=10, channel=0, data=[62, 0]),
   midi.NoteOffEvent(tick=0, channel=0, data=[58, 0]),
   midi.NoteOffEvent(tick=0, channel=0, data=[53, 0]),
   midi.NoteOnEvent(tick=0, channel=0, data=[63, 32]),
   midi.NoteOnEvent(tick=0, channel=0, data=[60, 32]),
   midi.NoteOnEvent(tick=0, channel=0, data=[55, 32]),
   midi.NoteOffEvent(tick=9, channel=0, data=[55, 0]),
   midi.NoteOffEvent(tick=0, channel=0, data=[60, 0]),
   midi.NoteOffEvent(tick=0, channel=0, data=[63, 0]),
   midi.NoteOnEvent(tick=0, channel=0, data=[55, 80]),
   midi.NoteOnEvent(tick=0, channel=0, data=[60, 96]),
   midi.NoteOnEvent(tick=0, channel=0, data=[63, 100]),
   midi.NoteOffEvent(tick=10, channel=0, data=[63, 0]),
   midi.NoteOffEvent(tick=0, channel=0, data=[60, 0]),
   midi.NoteOffEvent(tick=0, channel=0, data=[55, 0]),
   midi.NoteOnEvent(tick=0, channel=0, data=[53, 32]),
   midi.NoteOnEvent(tick=0, channel=0, data=[58, 32]),
   midi.NoteOnEvent(tick=0, channel=0, data=[62, 32]),
   midi.NoteOffEvent(tick=10, channel=0, data=[62, 0]),
   midi.NoteOffEvent(tick=0, channel=0, data=[58, 0]),
   midi.NoteOffEvent(tick=0, channel=0, data=[53, 0]),
   midi.NoteOnEvent(tick=0, channel=0, data=[55, 99]),
   midi.NoteOnEvent(tick=0, channel=0, data=[60, 101]),
   midi.NoteOnEvent(tick=0, channel=0, data=[63, 109]),
   midi.NoteOffEvent(tick=9, channel=0, data=[63, 0]),
   midi.NoteOffEvent(tick=0, channel=0, data=[60, 0]),
   midi.NoteOffEvent(tick=0, channel=0, data=[55, 0]),
   midi.NoteOnEvent(tick=0, channel=0, data=[53, 87]),
   midi.NoteOnEvent(tick=0, channel=0, data=[58, 90]),
   midi.NoteOnEvent(tick=0, channel=0, data=[62, 85]),
   midi.NoteOffEvent(tick=10, channel=0, data=[62, 0]),
   midi.NoteOffEvent(tick=0, channel=0, data=[58, 0]),
   midi.NoteOffEvent(tick=0, channel=0, data=[53, 0]),
   midi.NoteOnEvent(tick=0, channel=0, data=[55, 32]),
   midi.NoteOnEvent(tick=0, channel=0, data=[60, 32]),
   midi.NoteOnEvent(tick=0, channel=0, data=[63, 32]),
   midi.NoteOffEvent(tick=9, channel=0, data=[63, 0]),
   midi.NoteOffEvent(tick=0, channel=0, data=[60, 0]),
   midi.NoteOffEvent(tick=0, channel=0, data=[55, 0]),
   midi.NoteOnEvent(tick=0, channel=0, data=[53, 96]),
   midi.NoteOnEvent(tick=0, channel=0, data=[58, 81]),
   midi.NoteOnEvent(tick=0, channel=0, data=[62, 95]),
   midi.NoteOffEvent(tick=10, channel=0, data=[62, 0]),
   midi.NoteOffEvent(tick=0, channel=0, data=[58, 0]),
   midi.NoteOffEvent(tick=0, channel=0, data=[53, 0]),
   midi.NoteOnEvent(tick=0, channel=0, data=[55, 94]),
   midi.NoteOnEvent(tick=0, channel=0, data=[60, 99]),
   midi.NoteOnEvent(tick=0, channel=0, data=[63, 88]),
   midi.NoteOffEvent(tick=57, channel=0, data=[63, 0]),
   midi.NoteOffEvent(tick=0, channel=0, data=[60, 0]),
   midi.NoteOffEvent(tick=0, channel=0, data=[55, 0]),
   midi.NoteOnEvent(tick=0, channel=0, data=[55, 32]),
   midi.NoteOnEvent(tick=0, channel=0, data=[60, 32]),
   midi.NoteOnEvent(tick=0, channel=0, data=[63, 32]),
   midi.NoteOffEvent(tick=9, channel=0, data=[63, 0]),
   midi.NoteOffEvent(tick=0, channel=0, data=[60, 0]),
   midi.NoteOffEvent(tick=0, channel=0, data=[55, 0]),
   midi.NoteOnEvent(tick=0, channel=0, data=[55, 94]),
   midi.NoteOnEvent(tick=0, channel=0, data=[60, 89]),
   midi.NoteOnEvent(tick=0, channel=0, data=[63, 94]),
   midi.NoteOffEvent(tick=10, channel=0, data=[63, 0]),
   midi.NoteOffEvent(tick=0, channel=0, data=[60, 0]),
   midi.NoteOffEvent(tick=0, channel=0, data=[55, 0]),
   midi.NoteOnEvent(tick=0, channel=0, data=[53, 89]),
   midi.NoteOnEvent(tick=0, channel=0, data=[58, 87]),
   midi.NoteOnEvent(tick=0, channel=0, data=[62, 86]),
   midi.NoteOffEvent(tick=9, channel=0, data=[62, 0]),
   midi.NoteOffEvent(tick=0, channel=0, data=[58, 0]),
   midi.NoteOffEvent(tick=0, channel=0, data=[53, 0]),
   midi.NoteOnEvent(tick=0, channel=0, data=[55, 32]),
   midi.NoteOnEvent(tick=0, channel=0, data=[60, 32]),
   midi.NoteOnEvent(tick=0, channel=0, data=[63, 32]),
   midi.NoteOffEvent(tick=10, channel=0, data=[63, 0]),
   midi.NoteOffEvent(tick=0, channel=0, data=[60, 0]),
   midi.NoteOffEvent(tick=0, channel=0, data=[55, 0]),
   midi.NoteOnEvent(tick=0, channel=0, data=[55, 101]),
   midi.NoteOnEvent(tick=0, channel=0, data=[60, 96]),
   midi.NoteOnEvent(tick=0, channel=0, data=[63, 114]),
   midi.NoteOffEvent(tick=9, channel=0, data=[63, 0]),
   midi.NoteOffEvent(tick=0, channel=0, data=[60, 0]),
   midi.NoteOffEvent(tick=0, channel=0, data=[55, 0]),
   midi.NoteOnEvent(tick=0, channel=0, data=[53, 94]),
   midi.NoteOnEvent(tick=0, channel=0, data=[58, 84]),
   midi.NoteOnEvent(tick=0, channel=0, data=[62, 99]),
   midi.NoteOffEvent(tick=10, channel=0, data=[62, 0]),
   midi.NoteOffEvent(tick=0, channel=0, data=[58, 0]),
   midi.NoteOffEvent(tick=0, channel=0, data=[53, 0]),
   midi.NoteOnEvent(tick=0, channel=0, data=[60, 32]),
   midi.NoteOnEvent(tick=0, channel=0, data=[55, 32]),
   midi.NoteOnEvent(tick=0, channel=0, data=[63, 32]),
   midi.NoteOffEvent(tick=10, channel=0, data=[63, 0]),
   midi.NoteOffEvent(tick=0, channel=0, data=[55, 0]),
   midi.NoteOffEvent(tick=0, channel=0, data=[60, 0]),
   midi.NoteOnEvent(tick=0, channel=0, data=[55, 99]),
   midi.NoteOnEvent(tick=0, channel=0, data=[60, 89]),
   midi.NoteOnEvent(tick=0, channel=0, data=[63, 100]),
   midi.NoteOffEvent(tick=9, channel=0, data=[63, 0]),
   midi.NoteOffEvent(tick=0, channel=0, data=[60, 0]),
   midi.NoteOffEvent(tick=0, channel=0, data=[55, 0]),
   midi.NoteOnEvent(tick=0, channel=0, data=[53, 32]),
   midi.NoteOnEvent(tick=0, channel=0, data=[58, 32]),
   midi.NoteOnEvent(tick=0, channel=0, data=[62, 32]),
   midi.NoteOffEvent(tick=10, channel=0, data=[62, 0]),
   midi.NoteOffEvent(tick=0, channel=0, data=[58, 0]),
   midi.NoteOffEvent(tick=0, channel=0, data=[53, 0]),
   midi.NoteOnEvent(tick=0, channel=0, data=[53, 94]),
   midi.NoteOnEvent(tick=0, channel=0, data=[58, 90]),
   midi.NoteOnEvent(tick=0, channel=0, data=[62, 97]),
   midi.NoteOffEvent(tick=9, channel=0, data=[62, 0]),
   midi.NoteOffEvent(tick=0, channel=0, data=[58, 0]),
   midi.NoteOffEvent(tick=0, channel=0, data=[53, 0]),
   midi.NoteOnEvent(tick=0, channel=0, data=[55, 32]),
   midi.NoteOnEvent(tick=0, channel=0, data=[60, 32]),
   midi.NoteOnEvent(tick=0, channel=0, data=[63, 32]),
   midi.NoteOffEvent(tick=10, channel=0, data=[63, 0]),
   midi.NoteOffEvent(tick=0, channel=0, data=[60, 0]),
   midi.NoteOffEvent(tick=0, channel=0, data=[55, 0]),
   midi.NoteOnEvent(tick=0, channel=0, data=[56, 104]),
   midi.NoteOnEvent(tick=0, channel=0, data=[62, 84]),
   midi.NoteOnEvent(tick=0, channel=0, data=[65, 102]),
   midi.NoteOffEvent(tick=9, channel=0, data=[65, 0]),
   midi.NoteOffEvent(tick=0, channel=0, data=[62, 0]),
   midi.NoteOffEvent(tick=0, channel=0, data=[56, 0]),
   midi.NoteOnEvent(tick=0, channel=0, data=[53, 32]),
   midi.NoteOnEvent(tick=0, channel=0, data=[58, 32]),
   midi.NoteOnEvent(tick=0, channel=0, data=[62, 32]),
   midi.NoteOffEvent(tick=10, channel=0, data=[62, 0]),
   midi.NoteOffEvent(tick=0, channel=0, data=[58, 0]),
   midi.NoteOffEvent(tick=0, channel=0, data=[53, 0]),
   midi.NoteOnEvent(tick=0, channel=0, data=[56, 104]),
   midi.NoteOnEvent(tick=0, channel=0, data=[62, 89]),
   midi.NoteOnEvent(tick=0, channel=0, data=[65, 97]),
   midi.NoteOffEvent(tick=9, channel=0, data=[65, 0]),
   midi.NoteOffEvent(tick=0, channel=0, data=[62, 0]),
   midi.NoteOffEvent(tick=0, channel=0, data=[56, 0]),
   midi.NoteOnEvent(tick=0, channel=0, data=[55, 101]),
   midi.NoteOnEvent(tick=0, channel=0, data=[60, 99]),
   midi.NoteOnEvent(tick=0, channel=0, data=[63, 114]),
   midi.NoteOffEvent(tick=10, channel=0, data=[63, 0]),
   midi.NoteOffEvent(tick=0, channel=0, data=[60, 0]),
   midi.NoteOffEvent(tick=0, channel=0, data=[55, 0]),
   midi.NoteOnEvent(tick=0, channel=0, data=[56, 32]),
   midi.NoteOnEvent(tick=0, channel=0, data=[62, 32]),
   midi.NoteOnEvent(tick=0, channel=0, data=[65, 32]),
   midi.NoteOffEvent(tick=9, channel=0, data=[65, 0]),
   midi.NoteOffEvent(tick=0, channel=0, data=[62, 0]),
   midi.NoteOffEvent(tick=0, channel=0, data=[56, 0]),
   midi.NoteOnEvent(tick=0, channel=0, data=[53, 99]),
   midi.NoteOnEvent(tick=0, channel=0, data=[58, 90]),
   midi.NoteOnEvent(tick=0, channel=0, data=[62, 95]),
   midi.NoteOffEvent(tick=10, channel=0, data=[62, 0]),
   midi.NoteOffEvent(tick=0, channel=0, data=[58, 0]),
   midi.NoteOffEvent(tick=0, channel=0, data=[53, 0]),
   midi.NoteOnEvent(tick=0, channel=0, data=[55, 32]),
   midi.NoteOnEvent(tick=0, channel=0, data=[60, 32]),
   midi.NoteOnEvent(tick=0, channel=0, data=[63, 32]),
   midi.NoteOffEvent(tick=9, channel=0, data=[63, 0]),
   midi.NoteOffEvent(tick=0, channel=0, data=[60, 0]),
   midi.NoteOffEvent(tick=0, channel=0, data=[55, 0]),
   midi.NoteOnEvent(tick=0, channel=0, data=[50, 101]),
   midi.NoteOnEvent(tick=0, channel=0, data=[55, 75]),
   midi.NoteOnEvent(tick=0, channel=0, data=[58, 94]),
   midi.NoteOffEvent(tick=10, channel=0, data=[58, 0]),
   midi.NoteOffEvent(tick=0, channel=0, data=[55, 0]),
   midi.NoteOffEvent(tick=0, channel=0, data=[50, 0]),
   midi.NoteOnEvent(tick=0, channel=0, data=[53, 32]),
   midi.NoteOnEvent(tick=0, channel=0, data=[58, 32]),
   midi.NoteOnEvent(tick=0, channel=0, data=[62, 32]),
   midi.NoteOffEvent(tick=9, channel=0, data=[62, 0]),
   midi.NoteOffEvent(tick=0, channel=0, data=[58, 0]),
   midi.NoteOffEvent(tick=0, channel=0, data=[53, 0]),
   midi.NoteOnEvent(tick=0, channel=0, data=[55, 101]),
   midi.NoteOnEvent(tick=0, channel=0, data=[60, 99]),
   midi.NoteOnEvent(tick=0, channel=0, data=[63, 114]),
   midi.NoteOffEvent(tick=10, channel=0, data=[63, 0]),
   midi.NoteOffEvent(tick=0, channel=0, data=[60, 0]),
   midi.NoteOffEvent(tick=0, channel=0, data=[55, 0]),
   midi.NoteOnEvent(tick=0, channel=0, data=[50, 32]),
   midi.NoteOnEvent(tick=0, channel=0, data=[55, 32]),
   midi.NoteOnEvent(tick=0, channel=0, data=[58, 32]),
   midi.NoteOffEvent(tick=9, channel=0, data=[58, 0]),
   midi.NoteOffEvent(tick=0, channel=0, data=[55, 0]),
   midi.NoteOffEvent(tick=0, channel=0, data=[50, 0]),
   midi.NoteOnEvent(tick=0, channel=0, data=[55, 94]),
   midi.NoteOnEvent(tick=0, channel=0, data=[60, 92]),
   midi.NoteOnEvent(tick=0, channel=0, data=[63, 105]),
   midi.NoteOffEvent(tick=10, channel=0, data=[63, 0]),
   midi.NoteOffEvent(tick=0, channel=0, data=[60, 0]),
   midi.NoteOffEvent(tick=0, channel=0, data=[55, 0]),
   midi.NoteOnEvent(tick=0, channel=0, data=[53, 87]),
   midi.NoteOnEvent(tick=0, channel=0, data=[58, 84]),
   midi.NoteOnEvent(tick=0, channel=0, data=[62, 92]),
   midi.NoteOffEvent(tick=10, channel=0, data=[62, 0]),
   midi.NoteOffEvent(tick=0, channel=0, data=[58, 0]),
   midi.NoteOffEvent(tick=0, channel=0, data=[53, 0]),
   midi.NoteOnEvent(tick=0, channel=0, data=[55, 32]),
   midi.NoteOnEvent(tick=0, channel=0, data=[60, 32]),
   midi.NoteOnEvent(tick=0, channel=0, data=[63, 32]),
   midi.NoteOffEvent(tick=9, channel=0, data=[63, 0]),
   midi.NoteOffEvent(tick=0, channel=0, data=[60, 0]),
   midi.NoteOffEvent(tick=0, channel=0, data=[55, 0]),
   midi.NoteOnEvent(tick=0, channel=0, data=[53, 94]),
   midi.NoteOnEvent(tick=0, channel=0, data=[58, 87]),
   midi.NoteOnEvent(tick=0, channel=0, data=[62, 95]),
   midi.NoteOffEvent(tick=10, channel=0, data=[62, 0]),
   midi.NoteOffEvent(tick=0, channel=0, data=[58, 0]),
   midi.NoteOffEvent(tick=0, channel=0, data=[53, 0]),
   midi.NoteOnEvent(tick=0, channel=0, data=[55, 96]),
   midi.NoteOnEvent(tick=0, channel=0, data=[60, 101]),
   midi.NoteOnEvent(tick=0, channel=0, data=[63, 88]),
   midi.NoteOffEvent(tick=57, channel=0, data=[63, 0]),
   midi.NoteOffEvent(tick=0, channel=0, data=[60, 0]),
   midi.NoteOffEvent(tick=0, channel=0, data=[55, 0]),
   midi.NoteOnEvent(tick=0, channel=0, data=[55, 32]),
   midi.NoteOnEvent(tick=0, channel=0, data=[60, 32]),
   midi.NoteOnEvent(tick=0, channel=0, data=[63, 32]),
   midi.NoteOffEvent(tick=9, channel=0, data=[63, 0]),
   midi.NoteOffEvent(tick=0, channel=0, data=[60, 0]),
   midi.NoteOffEvent(tick=0, channel=0, data=[55, 0]),
   midi.NoteOnEvent(tick=0, channel=0, data=[55, 94]),
   midi.NoteOnEvent(tick=0, channel=0, data=[60, 92]),
   midi.NoteOnEvent(tick=0, channel=0, data=[63, 94]),
   midi.NoteOffEvent(tick=10, channel=0, data=[63, 0]),
   midi.NoteOffEvent(tick=0, channel=0, data=[60, 0]),
   midi.NoteOffEvent(tick=0, channel=0, data=[55, 0]),
   midi.NoteOnEvent(tick=0, channel=0, data=[53, 89]),
   midi.NoteOnEvent(tick=0, channel=0, data=[58, 84]),
   midi.NoteOnEvent(tick=0, channel=0, data=[62, 86]),
   midi.NoteOffEvent(tick=9, channel=0, data=[62, 0]),
   midi.NoteOffEvent(tick=0, channel=0, data=[58, 0]),
   midi.NoteOffEvent(tick=0, channel=0, data=[53, 0]),
   midi.NoteOnEvent(tick=0, channel=0, data=[55, 32]),
   midi.NoteOnEvent(tick=0, channel=0, data=[60, 32]),
   midi.NoteOnEvent(tick=0, channel=0, data=[63, 32]),
   midi.NoteOffEvent(tick=10, channel=0, data=[63, 0]),
   midi.NoteOffEvent(tick=0, channel=0, data=[60, 0]),
   midi.NoteOffEvent(tick=0, channel=0, data=[55, 0]),
   midi.NoteOnEvent(tick=0, channel=0, data=[55, 80]),
   midi.NoteOnEvent(tick=0, channel=0, data=[60, 96]),
   midi.NoteOnEvent(tick=0, channel=0, data=[63, 100]),
   midi.NoteOffEvent(tick=9, channel=0, data=[63, 0]),
   midi.NoteOffEvent(tick=0, channel=0, data=[60, 0]),
   midi.NoteOffEvent(tick=0, channel=0, data=[55, 0]),
   midi.NoteOnEvent(tick=0, channel=0, data=[53, 32]),
   midi.NoteOnEvent(tick=0, channel=0, data=[58, 32]),
   midi.NoteOnEvent(tick=0, channel=0, data=[62, 32]),
   midi.NoteOffEvent(tick=10, channel=0, data=[62, 0]),
   midi.NoteOffEvent(tick=0, channel=0, data=[58, 0]),
   midi.NoteOffEvent(tick=0, channel=0, data=[53, 0]),
   midi.NoteOnEvent(tick=0, channel=0, data=[55, 99]),
   midi.NoteOnEvent(tick=0, channel=0, data=[60, 101]),
   midi.NoteOnEvent(tick=0, channel=0, data=[63, 109]),
   midi.NoteOffEvent(tick=9, channel=0, data=[63, 0]),
   midi.NoteOffEvent(tick=0, channel=0, data=[60, 0]),
   midi.NoteOffEvent(tick=0, channel=0, data=[55, 0]),
   midi.NoteOnEvent(tick=0, channel=0, data=[53, 87]),
   midi.NoteOnEvent(tick=0, channel=0, data=[58, 90]),
   midi.NoteOnEvent(tick=0, channel=0, data=[62, 85]),
   midi.NoteOffEvent(tick=10, channel=0, data=[62, 0]),
   midi.NoteOffEvent(tick=0, channel=0, data=[58, 0]),
   midi.NoteOffEvent(tick=0, channel=0, data=[53, 0]),
   midi.NoteOnEvent(tick=0, channel=0, data=[55, 32]),
   midi.NoteOnEvent(tick=0, channel=0, data=[60, 32]),
   midi.NoteOnEvent(tick=0, channel=0, data=[63, 32]),
   midi.NoteOffEvent(tick=9, channel=0, data=[63, 0]),
   midi.NoteOffEvent(tick=0, channel=0, data=[60, 0]),
   midi.NoteOffEvent(tick=0, channel=0, data=[55, 0]),
   midi.NoteOnEvent(tick=0, channel=0, data=[53, 96]),
   midi.NoteOnEvent(tick=0, channel=0, data=[58, 81]),
   midi.NoteOnEvent(tick=0, channel=0, data=[62, 95]),
   midi.NoteOffEvent(tick=10, channel=0, data=[62, 0]),
   midi.NoteOffEvent(tick=0, channel=0, data=[58, 0]),
   midi.NoteOffEvent(tick=0, channel=0, data=[53, 0]),
   midi.NoteOnEvent(tick=0, channel=0, data=[55, 94]),
   midi.NoteOnEvent(tick=0, channel=0, data=[60, 99]),
   midi.NoteOnEvent(tick=0, channel=0, data=[63, 88]),
   midi.NoteOffEvent(tick=57, channel=0, data=[63, 0]),
   midi.NoteOffEvent(tick=0, channel=0, data=[60, 0]),
   midi.NoteOffEvent(tick=0, channel=0, data=[55, 0]),
   midi.NoteOnEvent(tick=0, channel=0, data=[55, 32]),
   midi.NoteOnEvent(tick=0, channel=0, data=[60, 32]),
   midi.NoteOnEvent(tick=0, channel=0, data=[63, 32]),
   midi.NoteOffEvent(tick=10, channel=0, data=[63, 0]),
   midi.NoteOffEvent(tick=0, channel=0, data=[60, 0]),
   midi.NoteOffEvent(tick=0, channel=0, data=[55, 0]),
   midi.NoteOnEvent(tick=0, channel=0, data=[55, 94]),
   midi.NoteOnEvent(tick=0, channel=0, data=[60, 89]),
   midi.NoteOnEvent(tick=0, channel=0, data=[63, 94]),
   midi.NoteOffEvent(tick=9, channel=0, data=[63, 0]),
   midi.NoteOffEvent(tick=0, channel=0, data=[60, 0]),
   midi.NoteOffEvent(tick=0, channel=0, data=[55, 0]),
   midi.NoteOnEvent(tick=0, channel=0, data=[53, 89]),
   midi.NoteOnEvent(tick=0, channel=0, data=[58, 87]),
   midi.NoteOnEvent(tick=0, channel=0, data=[62, 86]),
   midi.NoteOffEvent(tick=10, channel=0, data=[62, 0]),
   midi.NoteOffEvent(tick=0, channel=0, data=[58, 0]),
   midi.NoteOffEvent(tick=0, channel=0, data=[53, 0]),
   midi.NoteOnEvent(tick=0, channel=0, data=[55, 32]),
   midi.NoteOnEvent(tick=0, channel=0, data=[60, 32]),
   midi.NoteOnEvent(tick=0, channel=0, data=[63, 32]),
   midi.NoteOffEvent(tick=9, channel=0, data=[63, 0]),
   midi.NoteOffEvent(tick=0, channel=0, data=[60, 0]),
   midi.NoteOffEvent(tick=0, channel=0, data=[55, 0]),
   midi.NoteOnEvent(tick=0, channel=0, data=[55, 101]),
   midi.NoteOnEvent(tick=0, channel=0, data=[60, 96]),
   midi.NoteOnEvent(tick=0, channel=0, data=[63, 114]),
   midi.NoteOffEvent(tick=10, channel=0, data=[63, 0]),
   midi.NoteOffEvent(tick=0, channel=0, data=[60, 0]),
   midi.NoteOffEvent(tick=0, channel=0, data=[55, 0]),
   midi.NoteOnEvent(tick=0, channel=0, data=[53, 94]),
   midi.NoteOnEvent(tick=0, channel=0, data=[58, 84]),
   midi.NoteOnEvent(tick=0, channel=0, data=[62, 99]),
   midi.NoteOffEvent(tick=9, channel=0, data=[62, 0]),
   midi.NoteOffEvent(tick=0, channel=0, data=[58, 0]),
   midi.NoteOffEvent(tick=0, channel=0, data=[53, 0]),
   midi.NoteOnEvent(tick=0, channel=0, data=[55, 32]),
   midi.NoteOnEvent(tick=0, channel=0, data=[60, 32]),
   midi.NoteOnEvent(tick=0, channel=0, data=[63, 32]),
   midi.NoteOffEvent(tick=10, channel=0, data=[63, 0]),
   midi.NoteOffEvent(tick=0, channel=0, data=[60, 0]),
   midi.NoteOffEvent(tick=0, channel=0, data=[55, 0]),
   midi.NoteOnEvent(tick=0, channel=0, data=[55, 99]),
   midi.NoteOnEvent(tick=0, channel=0, data=[60, 89]),
   midi.NoteOnEvent(tick=0, channel=0, data=[63, 100]),
   midi.NoteOffEvent(tick=9, channel=0, data=[63, 0]),
   midi.NoteOffEvent(tick=0, channel=0, data=[60, 0]),
   midi.NoteOffEvent(tick=0, channel=0, data=[55, 0]),
   midi.NoteOnEvent(tick=0, channel=0, data=[53, 32]),
   midi.NoteOnEvent(tick=0, channel=0, data=[58, 32]),
   midi.NoteOnEvent(tick=0, channel=0, data=[62, 32]),
   midi.NoteOffEvent(tick=10, channel=0, data=[62, 0]),
   midi.NoteOffEvent(tick=0, channel=0, data=[58, 0]),
   midi.NoteOffEvent(tick=0, channel=0, data=[53, 0]),
   midi.NoteOnEvent(tick=0, channel=0, data=[53, 94]),
   midi.NoteOnEvent(tick=0, channel=0, data=[58, 90]),
   midi.NoteOnEvent(tick=0, channel=0, data=[62, 97]),
   midi.NoteOffEvent(tick=9, channel=0, data=[62, 0]),
   midi.NoteOffEvent(tick=0, channel=0, data=[58, 0]),
   midi.NoteOffEvent(tick=0, channel=0, data=[53, 0]),
   midi.NoteOnEvent(tick=0, channel=0, data=[55, 32]),
   midi.NoteOnEvent(tick=0, channel=0, data=[60, 32]),
   midi.NoteOnEvent(tick=0, channel=0, data=[63, 32]),
   midi.NoteOffEvent(tick=10, channel=0, data=[63, 0]),
   midi.NoteOffEvent(tick=0, channel=0, data=[60, 0]),
   midi.NoteOffEvent(tick=0, channel=0, data=[55, 0]),
   midi.NoteOnEvent(tick=0, channel=0, data=[56, 104]),
   midi.NoteOnEvent(tick=0, channel=0, data=[62, 84]),
   midi.NoteOnEvent(tick=0, channel=0, data=[65, 102]),
   midi.NoteOffEvent(tick=10, channel=0, data=[65, 0]),
   midi.NoteOffEvent(tick=0, channel=0, data=[62, 0]),
   midi.NoteOffEvent(tick=0, channel=0, data=[56, 0]),
   midi.NoteOnEvent(tick=0, channel=0, data=[53, 32]),
   midi.NoteOnEvent(tick=0, channel=0, data=[58, 32]),
   midi.NoteOnEvent(tick=0, channel=0, data=[62, 32]),
   midi.NoteOffEvent(tick=9, channel=0, data=[62, 0]),
   midi.NoteOffEvent(tick=0, channel=0, data=[58, 0]),
   midi.NoteOffEvent(tick=0, channel=0, data=[53, 0]),
   midi.NoteOnEvent(tick=0, channel=0, data=[56, 104]),
   midi.NoteOnEvent(tick=0, channel=0, data=[62, 89]),
   midi.NoteOnEvent(tick=0, channel=0, data=[65, 97]),
   midi.NoteOffEvent(tick=10, channel=0, data=[65, 0]),
   midi.NoteOffEvent(tick=0, channel=0, data=[62, 0]),
   midi.NoteOffEvent(tick=0, channel=0, data=[56, 0]),
   midi.NoteOnEvent(tick=0, channel=0, data=[55, 101]),
   midi.NoteOnEvent(tick=0, channel=0, data=[60, 99]),
   midi.NoteOnEvent(tick=0, channel=0, data=[63, 114]),
   midi.NoteOffEvent(tick=9, channel=0, data=[63, 0]),
   midi.NoteOffEvent(tick=0, channel=0, data=[60, 0]),
   midi.NoteOffEvent(tick=0, channel=0, data=[55, 0]),
   midi.NoteOnEvent(tick=0, channel=0, data=[56, 32]),
   midi.NoteOnEvent(tick=0, channel=0, data=[62, 32]),
   midi.NoteOnEvent(tick=0, channel=0, data=[65, 32]),
   midi.NoteOffEvent(tick=10, channel=0, data=[65, 0]),
   midi.NoteOffEvent(tick=0, channel=0, data=[62, 0]),
   midi.NoteOffEvent(tick=0, channel=0, data=[56, 0]),
   midi.NoteOnEvent(tick=0, channel=0, data=[53, 99]),
   midi.NoteOnEvent(tick=0, channel=0, data=[58, 90]),
   midi.NoteOnEvent(tick=0, channel=0, data=[62, 95]),
   midi.NoteOffEvent(tick=9, channel=0, data=[62, 0]),
   midi.NoteOffEvent(tick=0, channel=0, data=[58, 0]),
   midi.NoteOffEvent(tick=0, channel=0, data=[53, 0]),
   midi.NoteOnEvent(tick=0, channel=0, data=[55, 32]),
   midi.NoteOnEvent(tick=0, channel=0, data=[60, 32]),
   midi.NoteOnEvent(tick=0, channel=0, data=[63, 32]),
   midi.NoteOffEvent(tick=10, channel=0, data=[63, 0]),
   midi.NoteOffEvent(tick=0, channel=0, data=[60, 0]),
   midi.NoteOffEvent(tick=0, channel=0, data=[55, 0]),
   midi.NoteOnEvent(tick=0, channel=0, data=[50, 103]),
   midi.NoteOnEvent(tick=0, channel=0, data=[55, 103]),
   midi.NoteOnEvent(tick=0, channel=0, data=[58, 103]),
   midi.NoteOffEvent(tick=8, channel=0, data=[55, 0]),
   midi.NoteOnEvent(tick=0, channel=0, data=[57, 84]),
   midi.NoteOffEvent(tick=1, channel=0, data=[50, 0]),
   midi.NoteOffEvent(tick=0, channel=0, data=[58, 0]),
   midi.NoteOnEvent(tick=0, channel=0, data=[55, 74]),
   midi.NoteOffEvent(tick=2, channel=0, data=[57, 0]),
   midi.NoteOnEvent(tick=0, channel=0, data=[53, 63]),
   midi.NoteOffEvent(tick=1, channel=0, data=[55, 0]),
   midi.NoteOnEvent(tick=0, channel=0, data=[52, 53]),
   midi.NoteOffEvent(tick=2, channel=0, data=[53, 0]),
   midi.NoteOnEvent(tick=0, channel=0, data=[49, 43]),
   midi.NoteOffEvent(tick=2, channel=0, data=[52, 0]),
   midi.NoteOffEvent(tick=1, channel=0, data=[49, 0]),
   midi.ControlChangeEvent(tick=1, channel=0, data=[109, 128]),
   midi.ControlChangeEvent(tick=0, channel=0, data=[110, 255]),
   midi.NoteOnEvent(tick=4270, channel=0, data=[55, 101]),
   midi.NoteOnEvent(tick=0, channel=0, data=[60, 99]),
   midi.NoteOnEvent(tick=0, channel=0, data=[63, 114]),
   midi.NoteOffEvent(tick=9, channel=0, data=[63, 0]),
   midi.NoteOffEvent(tick=0, channel=0, data=[60, 0]),
   midi.NoteOffEvent(tick=0, channel=0, data=[55, 0]),
   midi.NoteOnEvent(tick=0, channel=0, data=[55, 32]),
   midi.NoteOnEvent(tick=0, channel=0, data=[60, 32]),
   midi.NoteOnEvent(tick=0, channel=0, data=[63, 32]),
   midi.NoteOffEvent(tick=9, channel=0, data=[63, 0]),
   midi.NoteOffEvent(tick=0, channel=0, data=[60, 0]),
   midi.NoteOffEvent(tick=0, channel=0, data=[55, 0]),
   midi.NoteOnEvent(tick=0, channel=0, data=[55, 94]),
   midi.NoteOnEvent(tick=0, channel=0, data=[60, 92]),
   midi.NoteOnEvent(tick=0, channel=0, data=[63, 105]),
   midi.NoteOffEvent(tick=10, channel=0, data=[63, 0]),
   midi.NoteOffEvent(tick=0, channel=0, data=[60, 0]),
   midi.NoteOffEvent(tick=0, channel=0, data=[55, 0]),
   midi.NoteOnEvent(tick=0, channel=0, data=[53, 87]),
   midi.NoteOnEvent(tick=0, channel=0, data=[58, 84]),
   midi.NoteOnEvent(tick=0, channel=0, data=[62, 92]),
   midi.NoteOffEvent(tick=9, channel=0, data=[62, 0]),
   midi.NoteOffEvent(tick=0, channel=0, data=[58, 0]),
   midi.NoteOffEvent(tick=0, channel=0, data=[53, 0]),
   midi.NoteOnEvent(tick=0, channel=0, data=[63, 32]),
   midi.NoteOnEvent(tick=0, channel=0, data=[59, 32]),
   midi.NoteOnEvent(tick=0, channel=0, data=[54, 32]),
   midi.NoteOffEvent(tick=9, channel=0, data=[54, 0]),
   midi.NoteOffEvent(tick=0, channel=0, data=[59, 0]),
   midi.NoteOffEvent(tick=0, channel=0, data=[63, 0]),
   midi.NoteOnEvent(tick=0, channel=0, data=[53, 94]),
   midi.NoteOnEvent(tick=0, channel=0, data=[58, 87]),
   midi.NoteOnEvent(tick=0, channel=0, data=[62, 95]),
   midi.NoteOffEvent(tick=10, channel=0, data=[62, 0]),
   midi.NoteOffEvent(tick=0, channel=0, data=[58, 0]),
   midi.NoteOffEvent(tick=0, channel=0, data=[53, 0]),
   midi.NoteOnEvent(tick=0, channel=0, data=[55, 96]),
   midi.NoteOnEvent(tick=0, channel=0, data=[60, 101]),
   midi.NoteOnEvent(tick=0, channel=0, data=[63, 88]),
   midi.NoteOffEvent(tick=56, channel=0, data=[63, 0]),
   midi.NoteOffEvent(tick=0, channel=0, data=[60, 0]),
   midi.NoteOffEvent(tick=0, channel=0, data=[55, 0]),
   midi.NoteOnEvent(tick=0, channel=0, data=[55, 32]),
   midi.NoteOnEvent(tick=0, channel=0, data=[60, 32]),
   midi.NoteOnEvent(tick=0, channel=0, data=[63, 32]),
   midi.NoteOffEvent(tick=9, channel=0, data=[63, 0]),
   midi.NoteOffEvent(tick=0, channel=0, data=[60, 0]),
   midi.NoteOffEvent(tick=0, channel=0, data=[55, 0]),
   midi.NoteOnEvent(tick=0, channel=0, data=[55, 94]),
   midi.NoteOnEvent(tick=0, channel=0, data=[60, 92]),
   midi.NoteOnEvent(tick=0, channel=0, data=[63, 94]),
   midi.NoteOffEvent(tick=10, channel=0, data=[63, 0]),
   midi.NoteOffEvent(tick=0, channel=0, data=[60, 0]),
   midi.NoteOffEvent(tick=0, channel=0, data=[55, 0]),
   midi.NoteOnEvent(tick=0, channel=0, data=[53, 89]),
   midi.NoteOnEvent(tick=0, channel=0, data=[58, 84]),
   midi.NoteOnEvent(tick=0, channel=0, data=[62, 86]),
   midi.NoteOffEvent(tick=9, channel=0, data=[62, 0]),
   midi.NoteOffEvent(tick=0, channel=0, data=[58, 0]),
   midi.NoteOffEvent(tick=0, channel=0, data=[53, 0]),
   midi.NoteOnEvent(tick=0, channel=0, data=[63, 32]),
   midi.NoteOnEvent(tick=0, channel=0, data=[60, 32]),
   midi.NoteOnEvent(tick=0, channel=0, data=[55, 32]),
   midi.NoteOffEvent(tick=10, channel=0, data=[55, 0]),
   midi.NoteOffEvent(tick=0, channel=0, data=[60, 0]),
   midi.NoteOffEvent(tick=0, channel=0, data=[63, 0]),
   midi.NoteOnEvent(tick=0, channel=0, data=[55, 80]),
   midi.NoteOnEvent(tick=0, channel=0, data=[60, 96]),
   midi.NoteOnEvent(tick=0, channel=0, data=[63, 100]),
   midi.NoteOffEvent(tick=9, channel=0, data=[63, 0]),
   midi.NoteOffEvent(tick=0, channel=0, data=[60, 0]),
   midi.NoteOffEvent(tick=0, channel=0, data=[55, 0]),
   midi.NoteOnEvent(tick=0, channel=0, data=[53, 32]),
   midi.NoteOnEvent(tick=0, channel=0, data=[58, 32]),
   midi.NoteOnEvent(tick=0, channel=0, data=[62, 32]),
   midi.NoteOffEvent(tick=9, channel=0, data=[62, 0]),
   midi.NoteOffEvent(tick=0, channel=0, data=[58, 0]),
   midi.NoteOffEvent(tick=0, channel=0, data=[53, 0]),
   midi.NoteOnEvent(tick=0, channel=0, data=[55, 99]),
   midi.NoteOnEvent(tick=0, channel=0, data=[60, 101]),
   midi.NoteOnEvent(tick=0, channel=0, data=[63, 109]),
   midi.NoteOffEvent(tick=10, channel=0, data=[63, 0]),
   midi.NoteOffEvent(tick=0, channel=0, data=[60, 0]),
   midi.NoteOffEvent(tick=0, channel=0, data=[55, 0]),
   midi.NoteOnEvent(tick=0, channel=0, data=[53, 87]),
   midi.NoteOnEvent(tick=0, channel=0, data=[58, 90]),
   midi.NoteOnEvent(tick=0, channel=0, data=[62, 85]),
   midi.NoteOffEvent(tick=9, channel=0, data=[62, 0]),
   midi.NoteOffEvent(tick=0, channel=0, data=[58, 0]),
   midi.NoteOffEvent(tick=0, channel=0, data=[53, 0]),
   midi.NoteOnEvent(tick=0, channel=0, data=[55, 32]),
   midi.NoteOnEvent(tick=0, channel=0, data=[60, 32]),
   midi.NoteOnEvent(tick=0, channel=0, data=[63, 32]),
   midi.NoteOffEvent(tick=9, channel=0, data=[63, 0]),
   midi.NoteOffEvent(tick=0, channel=0, data=[60, 0]),
   midi.NoteOffEvent(tick=0, channel=0, data=[55, 0]),
   midi.NoteOnEvent(tick=0, channel=0, data=[53, 96]),
   midi.NoteOnEvent(tick=0, channel=0, data=[58, 81]),
   midi.NoteOnEvent(tick=0, channel=0, data=[62, 95]),
   midi.NoteOffEvent(tick=10, channel=0, data=[62, 0]),
   midi.NoteOffEvent(tick=0, channel=0, data=[58, 0]),
   midi.NoteOffEvent(tick=0, channel=0, data=[53, 0]),
   midi.NoteOnEvent(tick=0, channel=0, data=[55, 94]),
   midi.NoteOnEvent(tick=0, channel=0, data=[60, 99]),
   midi.NoteOnEvent(tick=0, channel=0, data=[63, 88]),
   midi.NoteOffEvent(tick=56, channel=0, data=[63, 0]),
   midi.NoteOffEvent(tick=0, channel=0, data=[60, 0]),
   midi.NoteOffEvent(tick=0, channel=0, data=[55, 0]),
   midi.NoteOnEvent(tick=0, channel=0, data=[55, 32]),
   midi.NoteOnEvent(tick=0, channel=0, data=[60, 32]),
   midi.NoteOnEvent(tick=0, channel=0, data=[63, 32]),
   midi.NoteOffEvent(tick=9, channel=0, data=[63, 0]),
   midi.NoteOffEvent(tick=0, channel=0, data=[60, 0]),
   midi.NoteOffEvent(tick=0, channel=0, data=[55, 0]),
   midi.NoteOnEvent(tick=0, channel=0, data=[55, 94]),
   midi.NoteOnEvent(tick=0, channel=0, data=[60, 89]),
   midi.NoteOnEvent(tick=0, channel=0, data=[63, 94]),
   midi.NoteOffEvent(tick=10, channel=0, data=[63, 0]),
   midi.NoteOffEvent(tick=0, channel=0, data=[60, 0]),
   midi.NoteOffEvent(tick=0, channel=0, data=[55, 0]),
   midi.NoteOnEvent(tick=0, channel=0, data=[53, 89]),
   midi.NoteOnEvent(tick=0, channel=0, data=[58, 87]),
   midi.NoteOnEvent(tick=0, channel=0, data=[62, 86]),
   midi.NoteOffEvent(tick=9, channel=0, data=[62, 0]),
   midi.NoteOffEvent(tick=0, channel=0, data=[58, 0]),
   midi.NoteOffEvent(tick=0, channel=0, data=[53, 0]),
   midi.NoteOnEvent(tick=0, channel=0, data=[55, 32]),
   midi.NoteOnEvent(tick=0, channel=0, data=[60, 32]),
   midi.NoteOnEvent(tick=0, channel=0, data=[63, 32]),
   midi.NoteOffEvent(tick=10, channel=0, data=[63, 0]),
   midi.NoteOffEvent(tick=0, channel=0, data=[60, 0]),
   midi.NoteOffEvent(tick=0, channel=0, data=[55, 0]),
   midi.NoteOnEvent(tick=0, channel=0, data=[55, 101]),
   midi.NoteOnEvent(tick=0, channel=0, data=[60, 96]),
   midi.NoteOnEvent(tick=0, channel=0, data=[63, 114]),
   midi.NoteOffEvent(tick=9, channel=0, data=[63, 0]),
   midi.NoteOffEvent(tick=0, channel=0, data=[60, 0]),
   midi.NoteOffEvent(tick=0, channel=0, data=[55, 0]),
   midi.NoteOnEvent(tick=0, channel=0, data=[53, 94]),
   midi.NoteOnEvent(tick=0, channel=0, data=[58, 84]),
   midi.NoteOnEvent(tick=0, channel=0, data=[62, 99]),
   midi.NoteOffEvent(tick=9, channel=0, data=[62, 0]),
   midi.NoteOffEvent(tick=0, channel=0, data=[58, 0]),
   midi.NoteOffEvent(tick=0, channel=0, data=[53, 0]),
   midi.NoteOnEvent(tick=0, channel=0, data=[60, 32]),
   midi.NoteOnEvent(tick=0, channel=0, data=[55, 32]),
   midi.NoteOnEvent(tick=0, channel=0, data=[63, 32]),
   midi.NoteOffEvent(tick=10, channel=0, data=[63, 0]),
   midi.NoteOffEvent(tick=0, channel=0, data=[55, 0]),
   midi.NoteOffEvent(tick=0, channel=0, data=[60, 0]),
   midi.NoteOnEvent(tick=0, channel=0, data=[55, 99]),
   midi.NoteOnEvent(tick=0, channel=0, data=[60, 89]),
   midi.NoteOnEvent(tick=0, channel=0, data=[63, 100]),
   midi.NoteOffEvent(tick=9, channel=0, data=[63, 0]),
   midi.NoteOffEvent(tick=0, channel=0, data=[60, 0]),
   midi.NoteOffEvent(tick=0, channel=0, data=[55, 0]),
   midi.NoteOnEvent(tick=0, channel=0, data=[53, 32]),
   midi.NoteOnEvent(tick=0, channel=0, data=[58, 32]),
   midi.NoteOnEvent(tick=0, channel=0, data=[62, 32]),
   midi.NoteOffEvent(tick=10, channel=0, data=[62, 0]),
   midi.NoteOffEvent(tick=0, channel=0, data=[58, 0]),
   midi.NoteOffEvent(tick=0, channel=0, data=[53, 0]),
   midi.NoteOnEvent(tick=0, channel=0, data=[53, 94]),
   midi.NoteOnEvent(tick=0, channel=0, data=[58, 90]),
   midi.NoteOnEvent(tick=0, channel=0, data=[62, 97]),
   midi.NoteOffEvent(tick=9, channel=0, data=[62, 0]),
   midi.NoteOffEvent(tick=0, channel=0, data=[58, 0]),
   midi.NoteOffEvent(tick=0, channel=0, data=[53, 0]),
   midi.NoteOnEvent(tick=0, channel=0, data=[55, 32]),
   midi.NoteOnEvent(tick=0, channel=0, data=[60, 32]),
   midi.NoteOnEvent(tick=0, channel=0, data=[63, 32]),
   midi.NoteOffEvent(tick=9, channel=0, data=[63, 0]),
   midi.NoteOffEvent(tick=0, channel=0, data=[60, 0]),
   midi.NoteOffEvent(tick=0, channel=0, data=[55, 0]),
   midi.NoteOnEvent(tick=0, channel=0, data=[56, 104]),
   midi.NoteOnEvent(tick=0, channel=0, data=[62, 84]),
   midi.NoteOnEvent(tick=0, channel=0, data=[65, 102]),
   midi.NoteOffEvent(tick=10, channel=0, data=[65, 0]),
   midi.NoteOffEvent(tick=0, channel=0, data=[62, 0]),
   midi.NoteOffEvent(tick=0, channel=0, data=[56, 0]),
   midi.NoteOnEvent(tick=0, channel=0, data=[53, 32]),
   midi.NoteOnEvent(tick=0, channel=0, data=[58, 32]),
   midi.NoteOnEvent(tick=0, channel=0, data=[62, 32]),
   midi.NoteOffEvent(tick=9, channel=0, data=[62, 0]),
   midi.NoteOffEvent(tick=0, channel=0, data=[58, 0]),
   midi.NoteOffEvent(tick=0, channel=0, data=[53, 0]),
   midi.NoteOnEvent(tick=0, channel=0, data=[56, 104]),
   midi.NoteOnEvent(tick=0, channel=0, data=[62, 89]),
   midi.NoteOnEvent(tick=0, channel=0, data=[65, 97]),
   midi.NoteOffEvent(tick=9, channel=0, data=[65, 0]),
   midi.NoteOffEvent(tick=0, channel=0, data=[62, 0]),
   midi.NoteOffEvent(tick=0, channel=0, data=[56, 0]),
   midi.NoteOnEvent(tick=0, channel=0, data=[55, 101]),
   midi.NoteOnEvent(tick=0, channel=0, data=[60, 99]),
   midi.NoteOnEvent(tick=0, channel=0, data=[63, 114]),
   midi.NoteOffEvent(tick=10, channel=0, data=[63, 0]),
   midi.NoteOffEvent(tick=0, channel=0, data=[60, 0]),
   midi.NoteOffEvent(tick=0, channel=0, data=[55, 0]),
   midi.NoteOnEvent(tick=0, channel=0, data=[56, 32]),
   midi.NoteOnEvent(tick=0, channel=0, data=[62, 32]),
   midi.NoteOnEvent(tick=0, channel=0, data=[65, 32]),
   midi.NoteOffEvent(tick=9, channel=0, data=[65, 0]),
   midi.NoteOffEvent(tick=0, channel=0, data=[62, 0]),
   midi.NoteOffEvent(tick=0, channel=0, data=[56, 0]),
   midi.NoteOnEvent(tick=0, channel=0, data=[53, 99]),
   midi.NoteOnEvent(tick=0, channel=0, data=[58, 90]),
   midi.NoteOnEvent(tick=0, channel=0, data=[62, 95]),
   midi.NoteOffEvent(tick=10, channel=0, data=[62, 0]),
   midi.NoteOffEvent(tick=0, channel=0, data=[58, 0]),
   midi.NoteOffEvent(tick=0, channel=0, data=[53, 0]),
   midi.NoteOnEvent(tick=0, channel=0, data=[55, 32]),
   midi.NoteOnEvent(tick=0, channel=0, data=[60, 32]),
   midi.NoteOnEvent(tick=0, channel=0, data=[63, 32]),
   midi.NoteOffEvent(tick=9, channel=0, data=[63, 0]),
   midi.NoteOffEvent(tick=0, channel=0, data=[60, 0]),
   midi.NoteOffEvent(tick=0, channel=0, data=[55, 0]),
   midi.NoteOnEvent(tick=0, channel=0, data=[50, 101]),
   midi.NoteOnEvent(tick=0, channel=0, data=[55, 75]),
   midi.NoteOnEvent(tick=0, channel=0, data=[58, 94]),
   midi.NoteOffEvent(tick=9, channel=0, data=[58, 0]),
   midi.NoteOffEvent(tick=0, channel=0, data=[55, 0]),
   midi.NoteOffEvent(tick=0, channel=0, data=[50, 0]),
   midi.NoteOnEvent(tick=0, channel=0, data=[53, 32]),
   midi.NoteOnEvent(tick=0, channel=0, data=[58, 32]),
   midi.NoteOnEvent(tick=0, channel=0, data=[62, 32]),
   midi.NoteOffEvent(tick=10, channel=0, data=[62, 0]),
   midi.NoteOffEvent(tick=0, channel=0, data=[58, 0]),
   midi.NoteOffEvent(tick=0, channel=0, data=[53, 0]),
   midi.NoteOnEvent(tick=0, channel=0, data=[55, 101]),
   midi.NoteOnEvent(tick=0, channel=0, data=[60, 99]),
   midi.NoteOnEvent(tick=0, channel=0, data=[63, 114]),
   midi.NoteOffEvent(tick=9, channel=0, data=[63, 0]),
   midi.NoteOffEvent(tick=0, channel=0, data=[60, 0]),
   midi.NoteOffEvent(tick=0, channel=0, data=[55, 0]),
   midi.NoteOnEvent(tick=0, channel=0, data=[50, 32]),
   midi.NoteOnEvent(tick=0, channel=0, data=[55, 32]),
   midi.NoteOnEvent(tick=0, channel=0, data=[58, 32]),
   midi.NoteOffEvent(tick=9, channel=0, data=[58, 0]),
   midi.NoteOffEvent(tick=0, channel=0, data=[55, 0]),
   midi.NoteOffEvent(tick=0, channel=0, data=[50, 0]),
   midi.NoteOnEvent(tick=0, channel=0, data=[55, 94]),
   midi.NoteOnEvent(tick=0, channel=0, data=[60, 92]),
   midi.NoteOnEvent(tick=0, channel=0, data=[63, 105]),
   midi.NoteOffEvent(tick=10, channel=0, data=[63, 0]),
   midi.NoteOffEvent(tick=0, channel=0, data=[60, 0]),
   midi.NoteOffEvent(tick=0, channel=0, data=[55, 0]),
   midi.NoteOnEvent(tick=0, channel=0, data=[53, 87]),
   midi.NoteOnEvent(tick=0, channel=0, data=[58, 84]),
   midi.NoteOnEvent(tick=0, channel=0, data=[62, 92]),
   midi.NoteOffEvent(tick=9, channel=0, data=[62, 0]),
   midi.NoteOffEvent(tick=0, channel=0, data=[58, 0]),
   midi.NoteOffEvent(tick=0, channel=0, data=[53, 0]),
   midi.NoteOnEvent(tick=0, channel=0, data=[55, 32]),
   midi.NoteOnEvent(tick=0, channel=0, data=[60, 32]),
   midi.NoteOnEvent(tick=0, channel=0, data=[63, 32]),
   midi.NoteOffEvent(tick=10, channel=0, data=[63, 0]),
   midi.NoteOffEvent(tick=0, channel=0, data=[60, 0]),
   midi.NoteOffEvent(tick=0, channel=0, data=[55, 0]),
   midi.NoteOnEvent(tick=0, channel=0, data=[53, 94]),
   midi.NoteOnEvent(tick=0, channel=0, data=[58, 87]),
   midi.NoteOnEvent(tick=0, channel=0, data=[62, 95]),
   midi.NoteOffEvent(tick=9, channel=0, data=[62, 0]),
   midi.NoteOffEvent(tick=0, channel=0, data=[58, 0]),
   midi.NoteOffEvent(tick=0, channel=0, data=[53, 0]),
   midi.NoteOnEvent(tick=0, channel=0, data=[55, 96]),
   midi.NoteOnEvent(tick=0, channel=0, data=[60, 101]),
   midi.NoteOnEvent(tick=0, channel=0, data=[63, 88]),
   midi.NoteOffEvent(tick=56, channel=0, data=[63, 0]),
   midi.NoteOffEvent(tick=0, channel=0, data=[60, 0]),
   midi.NoteOffEvent(tick=0, channel=0, data=[55, 0]),
   midi.NoteOnEvent(tick=0, channel=0, data=[55, 32]),
   midi.NoteOnEvent(tick=0, channel=0, data=[60, 32]),
   midi.NoteOnEvent(tick=0, channel=0, data=[63, 32]),
   midi.NoteOffEvent(tick=10, channel=0, data=[63, 0]),
   midi.NoteOffEvent(tick=0, channel=0, data=[60, 0]),
   midi.NoteOffEvent(tick=0, channel=0, data=[55, 0]),
   midi.NoteOnEvent(tick=0, channel=0, data=[55, 94]),
   midi.NoteOnEvent(tick=0, channel=0, data=[60, 92]),
   midi.NoteOnEvent(tick=0, channel=0, data=[63, 94]),
   midi.NoteOffEvent(tick=9, channel=0, data=[63, 0]),
   midi.NoteOffEvent(tick=0, channel=0, data=[60, 0]),
   midi.NoteOffEvent(tick=0, channel=0, data=[55, 0]),
   midi.NoteOnEvent(tick=0, channel=0, data=[53, 89]),
   midi.NoteOnEvent(tick=0, channel=0, data=[58, 84]),
   midi.NoteOnEvent(tick=0, channel=0, data=[62, 86]),
   midi.NoteOffEvent(tick=9, channel=0, data=[62, 0]),
   midi.NoteOffEvent(tick=0, channel=0, data=[58, 0]),
   midi.NoteOffEvent(tick=0, channel=0, data=[53, 0]),
   midi.NoteOnEvent(tick=0, channel=0, data=[55, 32]),
   midi.NoteOnEvent(tick=0, channel=0, data=[60, 32]),
   midi.NoteOnEvent(tick=0, channel=0, data=[63, 32]),
   midi.NoteOffEvent(tick=10, channel=0, data=[63, 0]),
   midi.NoteOffEvent(tick=0, channel=0, data=[60, 0]),
   midi.NoteOffEvent(tick=0, channel=0, data=[55, 0]),
   midi.NoteOnEvent(tick=0, channel=0, data=[55, 80]),
   midi.NoteOnEvent(tick=0, channel=0, data=[60, 96]),
   midi.NoteOnEvent(tick=0, channel=0, data=[63, 100]),
   midi.NoteOffEvent(tick=9, channel=0, data=[63, 0]),
   midi.NoteOffEvent(tick=0, channel=0, data=[60, 0]),
   midi.NoteOffEvent(tick=0, channel=0, data=[55, 0]),
   midi.NoteOnEvent(tick=0, channel=0, data=[53, 32]),
   midi.NoteOnEvent(tick=0, channel=0, data=[58, 32]),
   midi.NoteOnEvent(tick=0, channel=0, data=[62, 32]),
   midi.NoteOffEvent(tick=9, channel=0, data=[62, 0]),
   midi.NoteOffEvent(tick=0, channel=0, data=[58, 0]),
   midi.NoteOffEvent(tick=0, channel=0, data=[53, 0]),
   midi.NoteOnEvent(tick=0, channel=0, data=[55, 99]),
   midi.NoteOnEvent(tick=0, channel=0, data=[60, 101]),
   midi.NoteOnEvent(tick=0, channel=0, data=[63, 109]),
   midi.NoteOffEvent(tick=10, channel=0, data=[63, 0]),
   midi.NoteOffEvent(tick=0, channel=0, data=[60, 0]),
   midi.NoteOffEvent(tick=0, channel=0, data=[55, 0]),
   midi.NoteOnEvent(tick=0, channel=0, data=[53, 87]),
   midi.NoteOnEvent(tick=0, channel=0, data=[58, 90]),
   midi.NoteOnEvent(tick=0, channel=0, data=[62, 85]),
   midi.NoteOffEvent(tick=9, channel=0, data=[62, 0]),
   midi.NoteOffEvent(tick=0, channel=0, data=[58, 0]),
   midi.NoteOffEvent(tick=0, channel=0, data=[53, 0]),
   midi.NoteOnEvent(tick=0, channel=0, data=[55, 32]),
   midi.NoteOnEvent(tick=0, channel=0, data=[60, 32]),
   midi.NoteOnEvent(tick=0, channel=0, data=[63, 32]),
   midi.NoteOffEvent(tick=10, channel=0, data=[63, 0]),
   midi.NoteOffEvent(tick=0, channel=0, data=[60, 0]),
   midi.NoteOffEvent(tick=0, channel=0, data=[55, 0]),
   midi.NoteOnEvent(tick=0, channel=0, data=[53, 96]),
   midi.NoteOnEvent(tick=0, channel=0, data=[58, 81]),
   midi.NoteOnEvent(tick=0, channel=0, data=[62, 95]),
   midi.NoteOffEvent(tick=9, channel=0, data=[62, 0]),
   midi.NoteOffEvent(tick=0, channel=0, data=[58, 0]),
   midi.NoteOffEvent(tick=0, channel=0, data=[53, 0]),
   midi.NoteOnEvent(tick=0, channel=0, data=[55, 94]),
   midi.NoteOnEvent(tick=0, channel=0, data=[60, 99]),
   midi.NoteOnEvent(tick=0, channel=0, data=[63, 88]),
   midi.NoteOffEvent(tick=56, channel=0, data=[63, 0]),
   midi.NoteOffEvent(tick=0, channel=0, data=[60, 0]),
   midi.NoteOffEvent(tick=0, channel=0, data=[55, 0]),
   midi.NoteOnEvent(tick=0, channel=0, data=[55, 32]),
   midi.NoteOnEvent(tick=0, channel=0, data=[60, 32]),
   midi.NoteOnEvent(tick=0, channel=0, data=[63, 32]),
   midi.NoteOffEvent(tick=10, channel=0, data=[63, 0]),
   midi.NoteOffEvent(tick=0, channel=0, data=[60, 0]),
   midi.NoteOffEvent(tick=0, channel=0, data=[55, 0]),
   midi.NoteOnEvent(tick=0, channel=0, data=[55, 94]),
   midi.NoteOnEvent(tick=0, channel=0, data=[60, 89]),
   midi.NoteOnEvent(tick=0, channel=0, data=[63, 94]),
   midi.NoteOffEvent(tick=9, channel=0, data=[63, 0]),
   midi.NoteOffEvent(tick=0, channel=0, data=[60, 0]),
   midi.NoteOffEvent(tick=0, channel=0, data=[55, 0]),
   midi.NoteOnEvent(tick=0, channel=0, data=[53, 89]),
   midi.NoteOnEvent(tick=0, channel=0, data=[58, 87]),
   midi.NoteOnEvent(tick=0, channel=0, data=[62, 86]),
   midi.NoteOffEvent(tick=9, channel=0, data=[62, 0]),
   midi.NoteOffEvent(tick=0, channel=0, data=[58, 0]),
   midi.NoteOffEvent(tick=0, channel=0, data=[53, 0]),
   midi.NoteOnEvent(tick=0, channel=0, data=[55, 32]),
   midi.NoteOnEvent(tick=0, channel=0, data=[60, 32]),
   midi.NoteOnEvent(tick=0, channel=0, data=[63, 32]),
   midi.NoteOffEvent(tick=10, channel=0, data=[63, 0]),
   midi.NoteOffEvent(tick=0, channel=0, data=[60, 0]),
   midi.NoteOffEvent(tick=0, channel=0, data=[55, 0]),
   midi.NoteOnEvent(tick=0, channel=0, data=[55, 101]),
   midi.NoteOnEvent(tick=0, channel=0, data=[60, 96]),
   midi.NoteOnEvent(tick=0, channel=0, data=[63, 114]),
   midi.NoteOffEvent(tick=9, channel=0, data=[63, 0]),
   midi.NoteOffEvent(tick=0, channel=0, data=[60, 0]),
   midi.NoteOffEvent(tick=0, channel=0, data=[55, 0]),
   midi.NoteOnEvent(tick=0, channel=0, data=[53, 94]),
   midi.NoteOnEvent(tick=0, channel=0, data=[58, 84]),
   midi.NoteOnEvent(tick=0, channel=0, data=[62, 99]),
   midi.NoteOffEvent(tick=9, channel=0, data=[62, 0]),
   midi.NoteOffEvent(tick=0, channel=0, data=[58, 0]),
   midi.NoteOffEvent(tick=0, channel=0, data=[53, 0]),
   midi.NoteOnEvent(tick=0, channel=0, data=[55, 32]),
   midi.NoteOnEvent(tick=0, channel=0, data=[60, 32]),
   midi.NoteOnEvent(tick=0, channel=0, data=[63, 32]),
   midi.NoteOffEvent(tick=10, channel=0, data=[63, 0]),
   midi.NoteOffEvent(tick=0, channel=0, data=[60, 0]),
   midi.NoteOffEvent(tick=0, channel=0, data=[55, 0]),
   midi.NoteOnEvent(tick=0, channel=0, data=[55, 99]),
   midi.NoteOnEvent(tick=0, channel=0, data=[60, 89]),
   midi.NoteOnEvent(tick=0, channel=0, data=[63, 100]),
   midi.NoteOffEvent(tick=9, channel=0, data=[63, 0]),
   midi.NoteOffEvent(tick=0, channel=0, data=[60, 0]),
   midi.NoteOffEvent(tick=0, channel=0, data=[55, 0]),
   midi.NoteOnEvent(tick=0, channel=0, data=[53, 32]),
   midi.NoteOnEvent(tick=0, channel=0, data=[58, 32]),
   midi.NoteOnEvent(tick=0, channel=0, data=[62, 32]),
   midi.NoteOffEvent(tick=10, channel=0, data=[62, 0]),
   midi.NoteOffEvent(tick=0, channel=0, data=[58, 0]),
   midi.NoteOffEvent(tick=0, channel=0, data=[53, 0]),
   midi.NoteOnEvent(tick=0, channel=0, data=[53, 94]),
   midi.NoteOnEvent(tick=0, channel=0, data=[58, 90]),
   midi.NoteOnEvent(tick=0, channel=0, data=[62, 97]),
   midi.NoteOffEvent(tick=9, channel=0, data=[62, 0]),
   midi.NoteOffEvent(tick=0, channel=0, data=[58, 0]),
   midi.NoteOffEvent(tick=0, channel=0, data=[53, 0]),
   midi.NoteOnEvent(tick=0, channel=0, data=[55, 32]),
   midi.NoteOnEvent(tick=0, channel=0, data=[60, 32]),
   midi.NoteOnEvent(tick=0, channel=0, data=[63, 32]),
   midi.NoteOffEvent(tick=9, channel=0, data=[63, 0]),
   midi.NoteOffEvent(tick=0, channel=0, data=[60, 0]),
   midi.NoteOffEvent(tick=0, channel=0, data=[55, 0]),
   midi.NoteOnEvent(tick=0, channel=0, data=[56, 104]),
   midi.NoteOnEvent(tick=0, channel=0, data=[62, 84]),
   midi.NoteOnEvent(tick=0, channel=0, data=[65, 102]),
   midi.NoteOffEvent(tick=10, channel=0, data=[65, 0]),
   midi.NoteOffEvent(tick=0, channel=0, data=[62, 0]),
   midi.NoteOffEvent(tick=0, channel=0, data=[56, 0]),
   midi.NoteOnEvent(tick=0, channel=0, data=[53, 32]),
   midi.NoteOnEvent(tick=0, channel=0, data=[58, 32]),
   midi.NoteOnEvent(tick=0, channel=0, data=[62, 32]),
   midi.NoteOffEvent(tick=9, channel=0, data=[62, 0]),
   midi.NoteOffEvent(tick=0, channel=0, data=[58, 0]),
   midi.NoteOffEvent(tick=0, channel=0, data=[53, 0]),
   midi.NoteOnEvent(tick=0, channel=0, data=[56, 104]),
   midi.NoteOnEvent(tick=0, channel=0, data=[62, 89]),
   midi.NoteOnEvent(tick=0, channel=0, data=[65, 97]),
   midi.NoteOffEvent(tick=10, channel=0, data=[65, 0]),
   midi.NoteOffEvent(tick=0, channel=0, data=[62, 0]),
   midi.NoteOffEvent(tick=0, channel=0, data=[56, 0]),
   midi.NoteOnEvent(tick=0, channel=0, data=[55, 101]),
   midi.NoteOnEvent(tick=0, channel=0, data=[60, 99]),
   midi.NoteOnEvent(tick=0, channel=0, data=[63, 114]),
   midi.NoteOffEvent(tick=9, channel=0, data=[63, 0]),
   midi.NoteOffEvent(tick=0, channel=0, data=[60, 0]),
   midi.NoteOffEvent(tick=0, channel=0, data=[55, 0]),
   midi.NoteOnEvent(tick=0, channel=0, data=[56, 32]),
   midi.NoteOnEvent(tick=0, channel=0, data=[62, 32]),
   midi.NoteOnEvent(tick=0, channel=0, data=[65, 32]),
   midi.NoteOffEvent(tick=9, channel=0, data=[65, 0]),
   midi.NoteOffEvent(tick=0, channel=0, data=[62, 0]),
   midi.NoteOffEvent(tick=0, channel=0, data=[56, 0]),
   midi.NoteOnEvent(tick=0, channel=0, data=[53, 99]),
   midi.NoteOnEvent(tick=0, channel=0, data=[58, 90]),
   midi.NoteOnEvent(tick=0, channel=0, data=[62, 95]),
   midi.NoteOffEvent(tick=10, channel=0, data=[62, 0]),
   midi.NoteOffEvent(tick=0, channel=0, data=[58, 0]),
   midi.NoteOffEvent(tick=0, channel=0, data=[53, 0]),
   midi.NoteOnEvent(tick=0, channel=0, data=[55, 32]),
   midi.NoteOnEvent(tick=0, channel=0, data=[60, 32]),
   midi.NoteOnEvent(tick=0, channel=0, data=[63, 32]),
   midi.NoteOffEvent(tick=9, channel=0, data=[63, 0]),
   midi.NoteOffEvent(tick=0, channel=0, data=[60, 0]),
   midi.NoteOffEvent(tick=0, channel=0, data=[55, 0]),
   midi.NoteOnEvent(tick=0, channel=0, data=[50, 103]),
   midi.NoteOnEvent(tick=0, channel=0, data=[55, 103]),
   midi.NoteOnEvent(tick=0, channel=0, data=[58, 103]),
   midi.NoteOffEvent(tick=8, channel=0, data=[55, 0]),
   midi.NoteOnEvent(tick=0, channel=0, data=[57, 84]),
   midi.NoteOffEvent(tick=1, channel=0, data=[50, 0]),
   midi.NoteOffEvent(tick=0, channel=0, data=[58, 0]),
   midi.NoteOnEvent(tick=0, channel=0, data=[55, 74]),
   midi.NoteOffEvent(tick=2, channel=0, data=[57, 0]),
   midi.NoteOnEvent(tick=0, channel=0, data=[53, 63]),
   midi.NoteOffEvent(tick=2, channel=0, data=[55, 0]),
   midi.NoteOnEvent(tick=0, channel=0, data=[52, 53]),
   midi.NoteOffEvent(tick=1, channel=0, data=[53, 0]),
   midi.NoteOnEvent(tick=0, channel=0, data=[49, 43]),
   midi.NoteOffEvent(tick=2, channel=0, data=[52, 0]),
   midi.NoteOffEvent(tick=1, channel=0, data=[49, 0]),
   midi.ControlChangeEvent(tick=2, channel=0, data=[111, 128]),
   midi.EndOfTrackEvent(tick=0, data=[])]),
 midi.Track(\
  [midi.ChannelPrefixEvent(tick=0, data=[1]),
   midi.ControlChangeEvent(tick=0, channel=1, data=[7, 127]),
   midi.ProgramChangeEvent(tick=0, channel=1, data=[62]),
   midi.ControlChangeEvent(tick=0, channel=1, data=[32, 0]),
   midi.ControlChangeEvent(tick=0, channel=1, data=[0, 0]),
   midi.ControlChangeEvent(tick=923, channel=1, data=[108, 0]),
   midi.NoteOnEvent(tick=1, channel=1, data=[60, 127]),
   midi.NoteOffEvent(tick=95, channel=1, data=[60, 0]),
   midi.NoteOnEvent(tick=0, channel=1, data=[62, 127]),
   midi.NoteOffEvent(tick=19, channel=1, data=[62, 0]),
   midi.NoteOnEvent(tick=0, channel=1, data=[63, 127]),
   midi.NoteOffEvent(tick=10, channel=1, data=[63, 0]),
   midi.NoteOnEvent(tick=0, channel=1, data=[65, 127]),
   midi.NoteOffEvent(tick=28, channel=1, data=[65, 0]),
   midi.NoteOnEvent(tick=0, channel=1, data=[67, 127]),
   midi.NoteOffEvent(tick=29, channel=1, data=[67, 0]),
   midi.NoteOnEvent(tick=0, channel=1, data=[65, 127]),
   midi.NoteOffEvent(tick=28, channel=1, data=[65, 0]),
   midi.NoteOnEvent(tick=0, channel=1, data=[70, 127]),
   midi.PitchWheelEvent(tick=2, channel=1, data=[9, 27]),
   midi.PitchWheelEvent(tick=1, channel=1, data=[127, 31]),
   midi.PitchWheelEvent(tick=3, channel=1, data=[58, 34]),
   midi.PitchWheelEvent(tick=2, channel=1, data=[118, 36]),
   midi.PitchWheelEvent(tick=1, channel=1, data=[108, 41]),
   midi.PitchWheelEvent(tick=2, channel=1, data=[98, 46]),
   midi.PitchWheelEvent(tick=1, channel=1, data=[29, 49]),
   midi.PitchWheelEvent(tick=2, channel=1, data=[88, 51]),
   midi.PitchWheelEvent(tick=1, channel=1, data=[127, 57]),
   midi.PitchWheelEvent(tick=2, channel=1, data=[0, 60]),
   midi.PitchWheelEvent(tick=1, channel=1, data=[0, 62]),
   midi.PitchWheelEvent(tick=2, channel=1, data=[0, 63]),
   midi.PitchWheelEvent(tick=1, channel=1, data=[0, 64]),
   midi.NoteOffEvent(tick=18, channel=1, data=[70, 0]),
   midi.NoteOnEvent(tick=0, channel=1, data=[68, 127]),
   midi.NoteOffEvent(tick=19, channel=1, data=[68, 0]),
   midi.NoteOnEvent(tick=0, channel=1, data=[67, 127]),
   midi.NoteOffEvent(tick=19, channel=1, data=[67, 0]),
   midi.NoteOnEvent(tick=0, channel=1, data=[68, 127]),
   midi.NoteOffEvent(tick=19, channel=1, data=[68, 0]),
   midi.NoteOnEvent(tick=0, channel=1, data=[62, 127]),
   midi.NoteOffEvent(tick=38, channel=1, data=[62, 0]),
   midi.NoteOnEvent(tick=0, channel=1, data=[63, 127]),
   midi.NoteOffEvent(tick=28, channel=1, data=[63, 0]),
   midi.NoteOnEvent(tick=0, channel=1, data=[65, 127]),
   midi.NoteOffEvent(tick=29, channel=1, data=[65, 0]),
   midi.NoteOnEvent(tick=0, channel=1, data=[58, 127]),
   midi.NoteOffEvent(tick=19, channel=1, data=[58, 0]),
   midi.NoteOnEvent(tick=0, channel=1, data=[62, 127]),
   midi.NoteOffEvent(tick=19, channel=1, data=[62, 0]),
   midi.NoteOnEvent(tick=0, channel=1, data=[65, 127]),
   midi.NoteOffEvent(tick=19, channel=1, data=[65, 0]),
   midi.NoteOnEvent(tick=0, channel=1, data=[68, 127]),
   midi.NoteOffEvent(tick=38, channel=1, data=[68, 0]),
   midi.NoteOnEvent(tick=0, channel=1, data=[70, 127]),
   midi.NoteOffEvent(tick=29, channel=1, data=[70, 0]),
   midi.NoteOnEvent(tick=0, channel=1, data=[67, 127]),
   midi.NoteOffEvent(tick=28, channel=1, data=[67, 0]),
   midi.NoteOnEvent(tick=0, channel=1, data=[67, 127]),
   midi.NoteOffEvent(tick=19, channel=1, data=[67, 0]),
   midi.NoteOnEvent(tick=0, channel=1, data=[65, 127]),
   midi.NoteOffEvent(tick=10, channel=1, data=[65, 0]),
   midi.NoteOnEvent(tick=0, channel=1, data=[62, 127]),
   midi.NoteOffEvent(tick=29, channel=1, data=[62, 0]),
   midi.NoteOnEvent(tick=0, channel=1, data=[60, 127]),
   midi.NoteOffEvent(tick=95, channel=1, data=[60, 0]),
   midi.NoteOnEvent(tick=0, channel=1, data=[62, 127]),
   midi.NoteOffEvent(tick=19, channel=1, data=[62, 0]),
   midi.NoteOnEvent(tick=0, channel=1, data=[63, 127]),
   midi.NoteOffEvent(tick=9, channel=1, data=[63, 0]),
   midi.NoteOnEvent(tick=0, channel=1, data=[65, 127]),
   midi.NoteOffEvent(tick=29, channel=1, data=[65, 0]),
   midi.NoteOnEvent(tick=0, channel=1, data=[67, 127]),
   midi.NoteOffEvent(tick=29, channel=1, data=[67, 0]),
   midi.NoteOnEvent(tick=0, channel=1, data=[68, 127]),
   midi.NoteOffEvent(tick=28, channel=1, data=[68, 0]),
   midi.NoteOnEvent(tick=0, channel=1, data=[65, 127]),
   midi.NoteOffEvent(tick=38, channel=1, data=[65, 0]),
   midi.NoteOnEvent(tick=0, channel=1, data=[65, 127]),
   midi.NoteOffEvent(tick=19, channel=1, data=[65, 0]),
   midi.NoteOnEvent(tick=0, channel=1, data=[67, 127]),
   midi.NoteOffEvent(tick=10, channel=1, data=[67, 0]),
   midi.NoteOnEvent(tick=0, channel=1, data=[68, 127]),
   midi.NoteOffEvent(tick=29, channel=1, data=[68, 0]),
   midi.NoteOnEvent(tick=0, channel=1, data=[70, 127]),
   midi.NoteOffEvent(tick=95, channel=1, data=[70, 0]),
   midi.NoteOnEvent(tick=0, channel=1, data=[72, 127]),
   midi.NoteOffEvent(tick=19, channel=1, data=[72, 0]),
   midi.NoteOnEvent(tick=0, channel=1, data=[74, 127]),
   midi.NoteOffEvent(tick=9, channel=1, data=[74, 0]),
   midi.NoteOnEvent(tick=0, channel=1, data=[75, 127]),
   midi.NoteOffEvent(tick=29, channel=1, data=[75, 0]),
   midi.NoteOnEvent(tick=0, channel=1, data=[79, 127]),
   midi.NoteOffEvent(tick=38, channel=1, data=[79, 0]),
   midi.NoteOnEvent(tick=0, channel=1, data=[77, 127]),
   midi.NoteOffEvent(tick=38, channel=1, data=[77, 0]),
   midi.NoteOnEvent(tick=0, channel=1, data=[74, 127]),
   midi.NoteOffEvent(tick=38, channel=1, data=[74, 0]),
   midi.NoteOnEvent(tick=0, channel=1, data=[70, 127]),
   midi.NoteOffEvent(tick=38, channel=1, data=[70, 0]),
   midi.NoteOnEvent(tick=0, channel=1, data=[72, 127]),
   midi.NoteOffEvent(tick=96, channel=1, data=[72, 0]),
   midi.NoteOnEvent(tick=0, channel=1, data=[74, 127]),
   midi.NoteOffEvent(tick=19, channel=1, data=[74, 0]),
   midi.NoteOnEvent(tick=0, channel=1, data=[75, 127]),
   midi.NoteOffEvent(tick=19, channel=1, data=[75, 0]),
   midi.NoteOnEvent(tick=0, channel=1, data=[77, 127]),
   midi.NoteOffEvent(tick=19, channel=1, data=[77, 0]),
   midi.NoteOnEvent(tick=0, channel=1, data=[72, 127]),
   midi.NoteOffEvent(tick=95, channel=1, data=[72, 0]),
   midi.NoteOnEvent(tick=0, channel=1, data=[74, 127]),
   midi.NoteOffEvent(tick=19, channel=1, data=[74, 0]),
   midi.NoteOnEvent(tick=0, channel=1, data=[75, 127]),
   midi.NoteOffEvent(tick=10, channel=1, data=[75, 0]),
   midi.NoteOnEvent(tick=0, channel=1, data=[77, 127]),
   midi.PitchWheelEvent(tick=23, channel=1, data=[127, 63]),
   midi.PitchWheelEvent(tick=3, channel=1, data=[0, 54]),
   midi.NoteOffEvent(tick=2, channel=1, data=[77, 0]),
   midi.PitchWheelEvent(tick=0, channel=1, data=[0, 40]),
   midi.NoteOnEvent(tick=0, channel=1, data=[79, 127]),
   midi.PitchWheelEvent(tick=1, channel=1, data=[127, 28]),
   midi.PitchWheelEvent(tick=3, channel=1, data=[0, 24]),
   midi.PitchWheelEvent(tick=1, channel=1, data=[0, 22]),
   midi.PitchWheelEvent(tick=2, channel=1, data=[0, 28]),
   midi.PitchWheelEvent(tick=1, channel=1, data=[127, 39]),
   midi.PitchWheelEvent(tick=2, channel=1, data=[127, 50]),
   midi.PitchWheelEvent(tick=1, channel=1, data=[0, 56]),
   midi.PitchWheelEvent(tick=2, channel=1, data=[0, 60]),
   midi.PitchWheelEvent(tick=1, channel=1, data=[0, 62]),
   midi.PitchWheelEvent(tick=2, channel=1, data=[0, 63]),
   midi.PitchWheelEvent(tick=1, channel=1, data=[0, 64]),
   midi.NoteOffEvent(tick=241, channel=1, data=[79, 0]),
   midi.NoteOnEvent(tick=9, channel=1, data=[70, 127]),
   midi.NoteOffEvent(tick=10, channel=1, data=[70, 0]),
   midi.NoteOnEvent(tick=0, channel=1, data=[72, 127]),
   midi.NoteOffEvent(tick=9, channel=1, data=[72, 0]),
   midi.NoteOnEvent(tick=0, channel=1, data=[70, 127]),
   midi.NoteOffEvent(tick=10, channel=1, data=[70, 0]),
   midi.NoteOnEvent(tick=0, channel=1, data=[72, 127]),
   midi.NoteOffEvent(tick=9, channel=1, data=[72, 0]),
   midi.NoteOnEvent(tick=0, channel=1, data=[79, 127]),
   midi.NoteOffEvent(tick=10, channel=1, data=[79, 0]),
   midi.NoteOnEvent(tick=0, channel=1, data=[80, 127]),
   midi.NoteOffEvent(tick=86, channel=1, data=[80, 0]),
   midi.NoteOnEvent(tick=0, channel=1, data=[79, 127]),
   midi.NoteOffEvent(tick=19, channel=1, data=[79, 0]),
   midi.NoteOnEvent(tick=0, channel=1, data=[77, 127]),
   midi.NoteOffEvent(tick=9, channel=1, data=[77, 0]),
   midi.NoteOnEvent(tick=0, channel=1, data=[79, 127]),
   midi.NoteOffEvent(tick=29, channel=1, data=[79, 0]),
   midi.NoteOnEvent(tick=0, channel=1, data=[77, 127]),
   midi.NoteOffEvent(tick=38, channel=1, data=[77, 0]),
   midi.NoteOnEvent(tick=0, channel=1, data=[75, 127]),
   midi.NoteOffEvent(tick=38, channel=1, data=[75, 0]),
   midi.NoteOnEvent(tick=0, channel=1, data=[74, 127]),
   midi.NoteOffEvent(tick=38, channel=1, data=[74, 0]),
   midi.NoteOnEvent(tick=0, channel=1, data=[70, 127]),
   midi.NoteOffEvent(tick=38, channel=1, data=[70, 0]),
   midi.NoteOnEvent(tick=0, channel=1, data=[72, 127]),
   midi.NoteOffEvent(tick=38, channel=1, data=[72, 0]),
   midi.NoteOnEvent(tick=0, channel=1, data=[67, 127]),
   midi.NoteOffEvent(tick=219, channel=1, data=[67, 0]),
   midi.NoteOnEvent(tick=0, channel=1, data=[67, 127]),
   midi.NoteOffEvent(tick=10, channel=1, data=[67, 0]),
   midi.NoteOnEvent(tick=0, channel=1, data=[70, 127]),
   midi.NoteOffEvent(tick=9, channel=1, data=[70, 0]),
   midi.NoteOnEvent(tick=0, channel=1, data=[72, 127]),
   midi.NoteOffEvent(tick=10, channel=1, data=[72, 0]),
   midi.NoteOnEvent(tick=0, channel=1, data=[70, 127]),
   midi.NoteOffEvent(tick=10, channel=1, data=[70, 0]),
   midi.NoteOnEvent(tick=0, channel=1, data=[67, 127]),
   midi.NoteOffEvent(tick=9, channel=1, data=[67, 0]),
   midi.NoteOnEvent(tick=0, channel=1, data=[70, 127]),
   midi.NoteOffEvent(tick=10, channel=1, data=[70, 0]),
   midi.NoteOnEvent(tick=0, channel=1, data=[72, 127]),
   midi.NoteOffEvent(tick=85, channel=1, data=[72, 0]),
   midi.NoteOnEvent(tick=0, channel=1, data=[74, 127]),
   midi.NoteOffEvent(tick=19, channel=1, data=[74, 0]),
   midi.NoteOnEvent(tick=0, channel=1, data=[75, 127]),
   midi.NoteOffEvent(tick=10, channel=1, data=[75, 0]),
   midi.NoteOnEvent(tick=0, channel=1, data=[77, 127]),
   midi.NoteOffEvent(tick=19, channel=1, data=[77, 0]),
   midi.NoteOnEvent(tick=0, channel=1, data=[79, 127]),
   midi.NoteOffEvent(tick=38, channel=1, data=[79, 0]),
   midi.NoteOnEvent(tick=0, channel=1, data=[80, 127]),
   midi.NoteOffEvent(tick=29, channel=1, data=[80, 0]),
   midi.NoteOnEvent(tick=0, channel=1, data=[77, 127]),
   midi.NoteOffEvent(tick=38, channel=1, data=[77, 0]),
   midi.NoteOnEvent(tick=0, channel=1, data=[74, 127]),
   midi.NoteOffEvent(tick=19, channel=1, data=[74, 0]),
   midi.NoteOnEvent(tick=0, channel=1, data=[72, 127]),
   midi.NoteOffEvent(tick=9, channel=1, data=[72, 0]),
   midi.NoteOnEvent(tick=0, channel=1, data=[74, 127]),
   midi.NoteOffEvent(tick=29, channel=1, data=[74, 0]),
   midi.NoteOnEvent(tick=0, channel=1, data=[74, 127]),
   midi.NoteOffEvent(tick=38, channel=1, data=[74, 0]),
   midi.NoteOnEvent(tick=0, channel=1, data=[75, 127]),
   midi.NoteOffEvent(tick=38, channel=1, data=[75, 0]),
   midi.NoteOnEvent(tick=0, channel=1, data=[77, 127]),
   midi.NoteOffEvent(tick=19, channel=1, data=[77, 0]),
   midi.NoteOnEvent(tick=0, channel=1, data=[70, 127]),
   midi.NoteOffEvent(tick=29, channel=1, data=[70, 0]),
   midi.NoteOnEvent(tick=0, channel=1, data=[77, 127]),
   midi.NoteOffEvent(tick=19, channel=1, data=[77, 0]),
   midi.NoteOnEvent(tick=0, channel=1, data=[80, 127]),
   midi.NoteOffEvent(tick=67, channel=1, data=[80, 0]),
   midi.NoteOnEvent(tick=0, channel=1, data=[79, 127]),
   midi.NoteOffEvent(tick=9, channel=1, data=[79, 0]),
   midi.NoteOnEvent(tick=0, channel=1, data=[77, 127]),
   midi.NoteOffEvent(tick=10, channel=1, data=[77, 0]),
   midi.NoteOnEvent(tick=0, channel=1, data=[79, 127]),
   midi.NoteOffEvent(tick=38, channel=1, data=[79, 0]),
   midi.NoteOnEvent(tick=0, channel=1, data=[77, 127]),
   midi.NoteOffEvent(tick=19, channel=1, data=[77, 0]),
   midi.NoteOnEvent(tick=0, channel=1, data=[75, 127]),
   midi.NoteOffEvent(tick=19, channel=1, data=[75, 0]),
   midi.NoteOnEvent(tick=0, channel=1, data=[72, 127]),
   midi.NoteOffEvent(tick=95, channel=1, data=[72, 0]),
   midi.NoteOnEvent(tick=0, channel=1, data=[74, 127]),
   midi.NoteOffEvent(tick=19, channel=1, data=[74, 0]),
   midi.NoteOnEvent(tick=0, channel=1, data=[75, 127]),
   midi.NoteOffEvent(tick=19, channel=1, data=[75, 0]),
   midi.NoteOnEvent(tick=0, channel=1, data=[77, 127]),
   midi.PitchWheelEvent(tick=15, channel=1, data=[127, 63]),
   midi.PitchWheelEvent(tick=2, channel=1, data=[127, 49]),
   midi.PitchWheelEvent(tick=1, channel=1, data=[127, 42]),
   midi.NoteOffEvent(tick=1, channel=1, data=[77, 0]),
   midi.NoteOnEvent(tick=0, channel=1, data=[77, 127]),
   midi.PitchWheelEvent(tick=1, channel=1, data=[0, 27]),
   midi.PitchWheelEvent(tick=1, channel=1, data=[127, 19]),
   midi.PitchWheelEvent(tick=2, channel=1, data=[127, 15]),
   midi.PitchWheelEvent(tick=1, channel=1, data=[127, 22]),
   midi.PitchWheelEvent(tick=2, channel=1, data=[0, 42]),
   midi.PitchWheelEvent(tick=1, channel=1, data=[0, 52]),
   midi.PitchWheelEvent(tick=2, channel=1, data=[0, 58]),
   midi.PitchWheelEvent(tick=1, channel=1, data=[0, 61]),
   midi.PitchWheelEvent(tick=2, channel=1, data=[127, 62]),
   midi.PitchWheelEvent(tick=1, channel=1, data=[112, 64]),
   midi.NoteOffEvent(tick=82, channel=1, data=[77, 0]),
   midi.NoteOnEvent(tick=0, channel=1, data=[79, 127]),
   midi.NoteOffEvent(tick=19, channel=1, data=[79, 0]),
   midi.NoteOnEvent(tick=0, channel=1, data=[75, 127]),
   midi.NoteOffEvent(tick=9, channel=1, data=[75, 0]),
   midi.NoteOnEvent(tick=0, channel=1, data=[74, 127]),
   midi.NoteOffEvent(tick=19, channel=1, data=[74, 0]),
   midi.NoteOnEvent(tick=10, channel=1, data=[74, 127]),
   midi.NoteOffEvent(tick=19, channel=1, data=[74, 0]),
   midi.NoteOnEvent(tick=0, channel=1, data=[75, 127]),
   midi.NoteOffEvent(tick=9, channel=1, data=[75, 0]),
   midi.NoteOnEvent(tick=0, channel=1, data=[72, 127]),
   midi.NoteOffEvent(tick=229, channel=1, data=[72, 0]),
   midi.NoteOnEvent(tick=10, channel=1, data=[70, 127]),
   midi.NoteOffEvent(tick=9, channel=1, data=[70, 0]),
   midi.NoteOnEvent(tick=0, channel=1, data=[72, 127]),
   midi.NoteOffEvent(tick=10, channel=1, data=[72, 0]),
   midi.NoteOnEvent(tick=0, channel=1, data=[70, 127]),
   midi.NoteOffEvent(tick=9, channel=1, data=[70, 0]),
   midi.NoteOnEvent(tick=0, channel=1, data=[67, 127]),
   midi.NoteOffEvent(tick=10, channel=1, data=[67, 0]),
   midi.NoteOnEvent(tick=0, channel=1, data=[72, 127]),
   midi.NoteOffEvent(tick=95, channel=1, data=[72, 0]),
   midi.NoteOnEvent(tick=0, channel=1, data=[74, 127]),
   midi.NoteOffEvent(tick=19, channel=1, data=[74, 0]),
   midi.NoteOnEvent(tick=0, channel=1, data=[75, 127]),
   midi.NoteOffEvent(tick=10, channel=1, data=[75, 0]),
   midi.NoteOnEvent(tick=0, channel=1, data=[77, 127]),
   midi.NoteOffEvent(tick=28, channel=1, data=[77, 0]),
   midi.NoteOnEvent(tick=0, channel=1, data=[79, 127]),
   midi.NoteOffEvent(tick=29, channel=1, data=[79, 0]),
   midi.NoteOnEvent(tick=0, channel=1, data=[72, 127]),
   midi.NoteOffEvent(tick=28, channel=1, data=[72, 0]),
   midi.NoteOnEvent(tick=0, channel=1, data=[82, 127]),
   midi.NoteOffEvent(tick=38, channel=1, data=[82, 0]),
   midi.NoteOnEvent(tick=0, channel=1, data=[80, 127]),
   midi.NoteOffEvent(tick=10, channel=1, data=[80, 0]),
   midi.NoteOnEvent(tick=10, channel=1, data=[79, 127]),
   midi.NoteOffEvent(tick=9, channel=1, data=[79, 0]),
   midi.NoteOnEvent(tick=10, channel=1, data=[77, 127]),
   midi.NoteOffEvent(tick=19, channel=1, data=[77, 0]),
   midi.NoteOnEvent(tick=0, channel=1, data=[74, 127]),
   midi.NoteOffEvent(tick=9, channel=1, data=[74, 0]),
   midi.NoteOnEvent(tick=0, channel=1, data=[75, 127]),
   midi.NoteOffEvent(tick=10, channel=1, data=[75, 0]),
   midi.NoteOnEvent(tick=9, channel=1, data=[72, 127]),
   midi.NoteOffEvent(tick=267, channel=1, data=[72, 0]),
   midi.EndOfTrackEvent(tick=0, data=[])]),
 midi.Track(\
  [midi.ChannelPrefixEvent(tick=0, data=[2]),
   midi.ControlChangeEvent(tick=0, channel=2, data=[7, 127]),
   midi.ProgramChangeEvent(tick=0, channel=2, data=[87]),
   midi.ControlChangeEvent(tick=0, channel=2, data=[32, 0]),
   midi.ControlChangeEvent(tick=0, channel=2, data=[0, 0]),
   midi.ControlChangeEvent(tick=923, channel=2, data=[108, 0]),
   midi.NoteOnEvent(tick=20, channel=2, data=[60, 127]),
   midi.NoteOffEvent(tick=95, channel=2, data=[60, 0]),
   midi.NoteOnEvent(tick=0, channel=2, data=[62, 125]),
   midi.NoteOffEvent(tick=19, channel=2, data=[62, 0]),
   midi.NoteOnEvent(tick=0, channel=2, data=[63, 125]),
   midi.NoteOffEvent(tick=10, channel=2, data=[63, 0]),
   midi.NoteOnEvent(tick=0, channel=2, data=[65, 125]),
   midi.NoteOffEvent(tick=28, channel=2, data=[65, 0]),
   midi.NoteOnEvent(tick=0, channel=2, data=[67, 125]),
   midi.NoteOffEvent(tick=29, channel=2, data=[67, 0]),
   midi.NoteOnEvent(tick=0, channel=2, data=[65, 122]),
   midi.NoteOffEvent(tick=28, channel=2, data=[65, 0]),
   midi.NoteOnEvent(tick=0, channel=2, data=[70, 125]),
   midi.PitchWheelEvent(tick=2, channel=2, data=[9, 27]),
   midi.PitchWheelEvent(tick=1, channel=2, data=[127, 31]),
   midi.PitchWheelEvent(tick=3, channel=2, data=[58, 34]),
   midi.PitchWheelEvent(tick=2, channel=2, data=[118, 36]),
   midi.PitchWheelEvent(tick=1, channel=2, data=[108, 41]),
   midi.PitchWheelEvent(tick=2, channel=2, data=[98, 46]),
   midi.PitchWheelEvent(tick=1, channel=2, data=[29, 49]),
   midi.PitchWheelEvent(tick=2, channel=2, data=[88, 51]),
   midi.PitchWheelEvent(tick=1, channel=2, data=[127, 57]),
   midi.PitchWheelEvent(tick=2, channel=2, data=[0, 60]),
   midi.PitchWheelEvent(tick=1, channel=2, data=[0, 62]),
   midi.PitchWheelEvent(tick=2, channel=2, data=[0, 63]),
   midi.PitchWheelEvent(tick=1, channel=2, data=[0, 64]),
   midi.NoteOffEvent(tick=18, channel=2, data=[70, 0]),
   midi.NoteOnEvent(tick=0, channel=2, data=[68, 127]),
   midi.NoteOffEvent(tick=19, channel=2, data=[68, 0]),
   midi.NoteOnEvent(tick=0, channel=2, data=[67, 125]),
   midi.NoteOffEvent(tick=19, channel=2, data=[67, 0]),
   midi.NoteOnEvent(tick=0, channel=2, data=[68, 122]),
   midi.NoteOffEvent(tick=19, channel=2, data=[68, 0]),
   midi.NoteOnEvent(tick=0, channel=2, data=[62, 126]),
   midi.NoteOffEvent(tick=38, channel=2, data=[62, 0]),
   midi.NoteOnEvent(tick=0, channel=2, data=[63, 125]),
   midi.NoteOffEvent(tick=28, channel=2, data=[63, 0]),
   midi.NoteOnEvent(tick=0, channel=2, data=[65, 123]),
   midi.NoteOffEvent(tick=29, channel=2, data=[65, 0]),
   midi.NoteOnEvent(tick=0, channel=2, data=[58, 122]),
   midi.NoteOffEvent(tick=19, channel=2, data=[58, 0]),
   midi.NoteOnEvent(tick=0, channel=2, data=[62, 123]),
   midi.NoteOffEvent(tick=19, channel=2, data=[62, 0]),
   midi.NoteOnEvent(tick=0, channel=2, data=[65, 123]),
   midi.NoteOffEvent(tick=19, channel=2, data=[65, 0]),
   midi.NoteOnEvent(tick=0, channel=2, data=[68, 127]),
   midi.NoteOffEvent(tick=38, channel=2, data=[68, 0]),
   midi.NoteOnEvent(tick=0, channel=2, data=[70, 125]),
   midi.NoteOffEvent(tick=29, channel=2, data=[70, 0]),
   midi.NoteOnEvent(tick=0, channel=2, data=[67, 125]),
   midi.NoteOffEvent(tick=28, channel=2, data=[67, 0]),
   midi.NoteOnEvent(tick=0, channel=2, data=[67, 126]),
   midi.NoteOffEvent(tick=20, channel=2, data=[67, 0]),
   midi.NoteOnEvent(tick=0, channel=2, data=[65, 122]),
   midi.NoteOffEvent(tick=9, channel=2, data=[65, 0]),
   midi.NoteOnEvent(tick=0, channel=2, data=[62, 122]),
   midi.NoteOffEvent(tick=29, channel=2, data=[62, 0]),
   midi.NoteOnEvent(tick=0, channel=2, data=[60, 127]),
   midi.NoteOffEvent(tick=95, channel=2, data=[60, 0]),
   midi.NoteOnEvent(tick=0, channel=2, data=[62, 123]),
   midi.NoteOffEvent(tick=19, channel=2, data=[62, 0]),
   midi.NoteOnEvent(tick=0, channel=2, data=[63, 122]),
   midi.NoteOffEvent(tick=10, channel=2, data=[63, 0]),
   midi.NoteOnEvent(tick=0, channel=2, data=[65, 125]),
   midi.NoteOffEvent(tick=28, channel=2, data=[65, 0]),
   midi.NoteOnEvent(tick=0, channel=2, data=[67, 125]),
   midi.NoteOffEvent(tick=29, channel=2, data=[67, 0]),
   midi.NoteOnEvent(tick=0, channel=2, data=[68, 122]),
   midi.NoteOffEvent(tick=28, channel=2, data=[68, 0]),
   midi.NoteOnEvent(tick=0, channel=2, data=[65, 123]),
   midi.NoteOffEvent(tick=38, channel=2, data=[65, 0]),
   midi.NoteOnEvent(tick=0, channel=2, data=[65, 126]),
   midi.NoteOffEvent(tick=19, channel=2, data=[65, 0]),
   midi.NoteOnEvent(tick=0, channel=2, data=[67, 125]),
   midi.NoteOffEvent(tick=10, channel=2, data=[67, 0]),
   midi.NoteOnEvent(tick=0, channel=2, data=[68, 125]),
   midi.NoteOffEvent(tick=29, channel=2, data=[68, 0]),
   midi.NoteOnEvent(tick=0, channel=2, data=[70, 127]),
   midi.NoteOffEvent(tick=95, channel=2, data=[70, 0]),
   midi.NoteOnEvent(tick=0, channel=2, data=[72, 127]),
   midi.NoteOffEvent(tick=19, channel=2, data=[72, 0]),
   midi.NoteOnEvent(tick=0, channel=2, data=[74, 123]),
   midi.NoteOffEvent(tick=9, channel=2, data=[74, 0]),
   midi.NoteOnEvent(tick=0, channel=2, data=[75, 122]),
   midi.NoteOffEvent(tick=29, channel=2, data=[75, 0]),
   midi.NoteOnEvent(tick=0, channel=2, data=[79, 125]),
   midi.NoteOffEvent(tick=38, channel=2, data=[79, 0]),
   midi.NoteOnEvent(tick=0, channel=2, data=[77, 126]),
   midi.NoteOffEvent(tick=38, channel=2, data=[77, 0]),
   midi.NoteOnEvent(tick=0, channel=2, data=[74, 125]),
   midi.NoteOffEvent(tick=38, channel=2, data=[74, 0]),
   midi.NoteOnEvent(tick=0, channel=2, data=[70, 127]),
   midi.NoteOffEvent(tick=38, channel=2, data=[70, 0]),
   midi.NoteOnEvent(tick=0, channel=2, data=[72, 127]),
   midi.NoteOffEvent(tick=20, channel=2, data=[72, 0]),
   midi.NoteOnEvent(tick=76, channel=2, data=[74, 127]),
   midi.NoteOffEvent(tick=19, channel=2, data=[74, 0]),
   midi.NoteOnEvent(tick=0, channel=2, data=[75, 127]),
   midi.NoteOffEvent(tick=19, channel=2, data=[75, 0]),
   midi.NoteOnEvent(tick=0, channel=2, data=[77, 127]),
   midi.NoteOffEvent(tick=19, channel=2, data=[77, 0]),
   midi.NoteOnEvent(tick=0, channel=2, data=[72, 126]),
   midi.NoteOffEvent(tick=19, channel=2, data=[72, 0]),
   midi.NoteOnEvent(tick=76, channel=2, data=[74, 126]),
   midi.NoteOffEvent(tick=19, channel=2, data=[74, 0]),
   midi.NoteOnEvent(tick=0, channel=2, data=[75, 120]),
   midi.NoteOffEvent(tick=10, channel=2, data=[75, 0]),
   midi.NoteOnEvent(tick=0, channel=2, data=[77, 125]),
   midi.PitchWheelEvent(tick=23, channel=2, data=[127, 63]),
   midi.PitchWheelEvent(tick=3, channel=2, data=[0, 54]),
   midi.NoteOffEvent(tick=2, channel=2, data=[77, 0]),
   midi.PitchWheelEvent(tick=0, channel=2, data=[0, 40]),
   midi.NoteOnEvent(tick=0, channel=2, data=[79, 126]),
   midi.PitchWheelEvent(tick=1, channel=2, data=[127, 28]),
   midi.PitchWheelEvent(tick=3, channel=2, data=[0, 24]),
   midi.PitchWheelEvent(tick=1, channel=2, data=[0, 22]),
   midi.PitchWheelEvent(tick=2, channel=2, data=[0, 28]),
   midi.PitchWheelEvent(tick=1, channel=2, data=[127, 39]),
   midi.PitchWheelEvent(tick=2, channel=2, data=[127, 50]),
   midi.PitchWheelEvent(tick=1, channel=2, data=[0, 56]),
   midi.PitchWheelEvent(tick=2, channel=2, data=[0, 60]),
   midi.PitchWheelEvent(tick=1, channel=2, data=[0, 62]),
   midi.PitchWheelEvent(tick=2, channel=2, data=[0, 63]),
   midi.PitchWheelEvent(tick=1, channel=2, data=[0, 64]),
   midi.NoteOffEvent(tick=2, channel=2, data=[79, 0]),
   midi.NoteOnEvent(tick=67, channel=2, data=[79, 76]),
   midi.NoteOffEvent(tick=86, channel=2, data=[79, 0]),
   midi.NoteOnEvent(tick=95, channel=2, data=[70, 127]),
   midi.NoteOffEvent(tick=10, channel=2, data=[70, 0]),
   midi.NoteOnEvent(tick=0, channel=2, data=[72, 127]),
   midi.NoteOffEvent(tick=9, channel=2, data=[72, 0]),
   midi.NoteOnEvent(tick=0, channel=2, data=[70, 127]),
   midi.NoteOffEvent(tick=10, channel=2, data=[70, 0]),
   midi.NoteOnEvent(tick=0, channel=2, data=[72, 127]),
   midi.NoteOffEvent(tick=9, channel=2, data=[72, 0]),
   midi.NoteOnEvent(tick=0, channel=2, data=[79, 127]),
   midi.NoteOffEvent(tick=10, channel=2, data=[79, 0]),
   midi.NoteOnEvent(tick=0, channel=2, data=[80, 127]),
   midi.NoteOffEvent(tick=9, channel=2, data=[80, 0]),
   midi.NoteOnEvent(tick=77, channel=2, data=[79, 126]),
   midi.NoteOffEvent(tick=19, channel=2, data=[79, 0]),
   midi.NoteOnEvent(tick=0, channel=2, data=[77, 125]),
   midi.NoteOffEvent(tick=9, channel=2, data=[77, 0]),
   midi.NoteOnEvent(tick=0, channel=2, data=[79, 125]),
   midi.NoteOffEvent(tick=29, channel=2, data=[79, 0]),
   midi.NoteOnEvent(tick=0, channel=2, data=[77, 126]),
   midi.NoteOffEvent(tick=19, channel=2, data=[77, 0]),
   midi.NoteOnEvent(tick=67, channel=2, data=[74, 98]),
   midi.NoteOffEvent(tick=28, channel=2, data=[74, 0]),
   midi.NoteOnEvent(tick=0, channel=2, data=[70, 127]),
   midi.NoteOffEvent(tick=38, channel=2, data=[70, 0]),
   midi.NoteOnEvent(tick=0, channel=2, data=[72, 115]),
   midi.NoteOffEvent(tick=19, channel=2, data=[72, 0]),
   midi.NoteOnEvent(tick=67, channel=2, data=[67, 72]),
   midi.NoteOffEvent(tick=48, channel=2, data=[67, 0]),
   midi.NoteOnEvent(tick=123, channel=2, data=[67, 127]),
   midi.NoteOffEvent(tick=10, channel=2, data=[67, 0]),
   midi.NoteOnEvent(tick=0, channel=2, data=[70, 127]),
   midi.NoteOffEvent(tick=10, channel=2, data=[70, 0]),
   midi.NoteOnEvent(tick=0, channel=2, data=[72, 120]),
   midi.NoteOffEvent(tick=9, channel=2, data=[72, 0]),
   midi.NoteOnEvent(tick=0, channel=2, data=[70, 127]),
   midi.NoteOffEvent(tick=10, channel=2, data=[70, 0]),
   midi.NoteOnEvent(tick=0, channel=2, data=[67, 123]),
   midi.NoteOffEvent(tick=9, channel=2, data=[67, 0]),
   midi.NoteOnEvent(tick=0, channel=2, data=[70, 127]),
   midi.NoteOffEvent(tick=10, channel=2, data=[70, 0]),
   midi.NoteOnEvent(tick=0, channel=2, data=[72, 122]),
   midi.NoteOffEvent(tick=85, channel=2, data=[72, 0]),
   midi.NoteOnEvent(tick=0, channel=2, data=[74, 125]),
   midi.NoteOffEvent(tick=19, channel=2, data=[74, 0]),
   midi.NoteOnEvent(tick=0, channel=2, data=[75, 120]),
   midi.NoteOffEvent(tick=10, channel=2, data=[75, 0]),
   midi.NoteOnEvent(tick=0, channel=2, data=[77, 122]),
   midi.NoteOffEvent(tick=19, channel=2, data=[77, 0]),
   midi.NoteOnEvent(tick=0, channel=2, data=[79, 126]),
   midi.NoteOffEvent(tick=38, channel=2, data=[79, 0]),
   midi.NoteOnEvent(tick=0, channel=2, data=[80, 125]),
   midi.NoteOffEvent(tick=29, channel=2, data=[80, 0]),
   midi.NoteOnEvent(tick=0, channel=2, data=[77, 126]),
   midi.NoteOffEvent(tick=38, channel=2, data=[77, 0]),
   midi.NoteOnEvent(tick=0, channel=2, data=[74, 126]),
   midi.NoteOffEvent(tick=19, channel=2, data=[74, 0]),
   midi.NoteOnEvent(tick=0, channel=2, data=[72, 123]),
   midi.NoteOffEvent(tick=9, channel=2, data=[72, 0]),
   midi.NoteOnEvent(tick=0, channel=2, data=[74, 125]),
   midi.NoteOffEvent(tick=29, channel=2, data=[74, 0]),
   midi.NoteOnEvent(tick=0, channel=2, data=[74, 123]),
   midi.NoteOffEvent(tick=38, channel=2, data=[74, 0]),
   midi.NoteOnEvent(tick=0, channel=2, data=[75, 120]),
   midi.NoteOffEvent(tick=38, channel=2, data=[75, 0]),
   midi.NoteOnEvent(tick=0, channel=2, data=[77, 123]),
   midi.NoteOffEvent(tick=19, channel=2, data=[77, 0]),
   midi.NoteOnEvent(tick=0, channel=2, data=[70, 125]),
   midi.NoteOffEvent(tick=29, channel=2, data=[70, 0]),
   midi.NoteOnEvent(tick=0, channel=2, data=[77, 123]),
   midi.NoteOffEvent(tick=19, channel=2, data=[77, 0]),
   midi.NoteOnEvent(tick=0, channel=2, data=[80, 122]),
   midi.NoteOffEvent(tick=67, channel=2, data=[80, 0]),
   midi.NoteOnEvent(tick=0, channel=2, data=[79, 119]),
   midi.NoteOffEvent(tick=9, channel=2, data=[79, 0]),
   midi.NoteOnEvent(tick=0, channel=2, data=[77, 118]),
   midi.NoteOffEvent(tick=10, channel=2, data=[77, 0]),
   midi.NoteOnEvent(tick=0, channel=2, data=[79, 119]),
   midi.NoteOffEvent(tick=38, channel=2, data=[79, 0]),
   midi.NoteOnEvent(tick=0, channel=2, data=[77, 125]),
   midi.NoteOffEvent(tick=19, channel=2, data=[77, 0]),
   midi.NoteOnEvent(tick=0, channel=2, data=[75, 118]),
   midi.NoteOffEvent(tick=19, channel=2, data=[75, 0]),
   midi.NoteOnEvent(tick=0, channel=2, data=[72, 126]),
   midi.NoteOffEvent(tick=95, channel=2, data=[72, 0]),
   midi.NoteOnEvent(tick=0, channel=2, data=[74, 127]),
   midi.NoteOffEvent(tick=19, channel=2, data=[74, 0]),
   midi.NoteOnEvent(tick=0, channel=2, data=[75, 127]),
   midi.NoteOffEvent(tick=19, channel=2, data=[75, 0]),
   midi.NoteOnEvent(tick=0, channel=2, data=[77, 127]),
   midi.PitchWheelEvent(tick=15, channel=2, data=[127, 63]),
   midi.PitchWheelEvent(tick=2, channel=2, data=[127, 49]),
   midi.PitchWheelEvent(tick=1, channel=2, data=[127, 42]),
   midi.NoteOffEvent(tick=1, channel=2, data=[77, 0]),
   midi.NoteOnEvent(tick=0, channel=2, data=[77, 127]),
   midi.PitchWheelEvent(tick=1, channel=2, data=[0, 27]),
   midi.PitchWheelEvent(tick=1, channel=2, data=[127, 19]),
   midi.PitchWheelEvent(tick=2, channel=2, data=[127, 15]),
   midi.PitchWheelEvent(tick=1, channel=2, data=[127, 22]),
   midi.PitchWheelEvent(tick=2, channel=2, data=[0, 42]),
   midi.PitchWheelEvent(tick=1, channel=2, data=[0, 52]),
   midi.PitchWheelEvent(tick=2, channel=2, data=[0, 58]),
   midi.PitchWheelEvent(tick=1, channel=2, data=[0, 61]),
   midi.PitchWheelEvent(tick=2, channel=2, data=[127, 62]),
   midi.PitchWheelEvent(tick=1, channel=2, data=[112, 64]),
   midi.NoteOffEvent(tick=82, channel=2, data=[77, 0]),
   midi.NoteOnEvent(tick=0, channel=2, data=[79, 127]),
   midi.NoteOffEvent(tick=19, channel=2, data=[79, 0]),
   midi.NoteOnEvent(tick=0, channel=2, data=[75, 127]),
   midi.NoteOffEvent(tick=9, channel=2, data=[75, 0]),
   midi.NoteOnEvent(tick=0, channel=2, data=[74, 127]),
   midi.NoteOffEvent(tick=19, channel=2, data=[74, 0]),
   midi.NoteOnEvent(tick=10, channel=2, data=[74, 127]),
   midi.NoteOffEvent(tick=19, channel=2, data=[74, 0]),
   midi.NoteOnEvent(tick=0, channel=2, data=[75, 127]),
   midi.NoteOffEvent(tick=9, channel=2, data=[75, 0]),
   midi.NoteOnEvent(tick=0, channel=2, data=[72, 127]),
   midi.NoteOffEvent(tick=229, channel=2, data=[72, 0]),
   midi.NoteOnEvent(tick=10, channel=2, data=[70, 127]),
   midi.NoteOffEvent(tick=9, channel=2, data=[70, 0]),
   midi.NoteOnEvent(tick=0, channel=2, data=[72, 125]),
   midi.NoteOffEvent(tick=10, channel=2, data=[72, 0]),
   midi.NoteOnEvent(tick=0, channel=2, data=[70, 127]),
   midi.NoteOffEvent(tick=9, channel=2, data=[70, 0]),
   midi.NoteOnEvent(tick=0, channel=2, data=[67, 127]),
   midi.NoteOffEvent(tick=10, channel=2, data=[67, 0]),
   midi.NoteOnEvent(tick=0, channel=2, data=[72, 127]),
   midi.NoteOffEvent(tick=95, channel=2, data=[72, 0]),
   midi.NoteOnEvent(tick=0, channel=2, data=[74, 127]),
   midi.NoteOffEvent(tick=19, channel=2, data=[74, 0]),
   midi.NoteOnEvent(tick=0, channel=2, data=[75, 127]),
   midi.NoteOffEvent(tick=10, channel=2, data=[75, 0]),
   midi.NoteOnEvent(tick=0, channel=2, data=[77, 127]),
   midi.NoteOffEvent(tick=28, channel=2, data=[77, 0]),
   midi.NoteOnEvent(tick=0, channel=2, data=[79, 127]),
   midi.NoteOffEvent(tick=29, channel=2, data=[79, 0]),
   midi.NoteOnEvent(tick=0, channel=2, data=[72, 127]),
   midi.NoteOffEvent(tick=28, channel=2, data=[72, 0]),
   midi.NoteOnEvent(tick=0, channel=2, data=[82, 127]),
   midi.NoteOffEvent(tick=39, channel=2, data=[82, 0]),
   midi.NoteOnEvent(tick=0, channel=2, data=[80, 127]),
   midi.NoteOffEvent(tick=9, channel=2, data=[80, 0]),
   midi.NoteOnEvent(tick=10, channel=2, data=[79, 127]),
   midi.NoteOffEvent(tick=9, channel=2, data=[79, 0]),
   midi.NoteOnEvent(tick=10, channel=2, data=[77, 127]),
   midi.NoteOffEvent(tick=19, channel=2, data=[77, 0]),
   midi.NoteOnEvent(tick=0, channel=2, data=[74, 127]),
   midi.NoteOffEvent(tick=9, channel=2, data=[74, 0]),
   midi.NoteOnEvent(tick=0, channel=2, data=[75, 127]),
   midi.NoteOffEvent(tick=10, channel=2, data=[75, 0]),
   midi.NoteOnEvent(tick=9, channel=2, data=[72, 127]),
   midi.NoteOffEvent(tick=267, channel=2, data=[72, 0]),
   midi.EndOfTrackEvent(tick=0, data=[])]),
 midi.Track(\
  [midi.ChannelPrefixEvent(tick=0, data=[3]),
   midi.ControlChangeEvent(tick=0, channel=3, data=[7, 127]),
   midi.ControlChangeEvent(tick=0, channel=3, data=[10, 64]),
   midi.ProgramChangeEvent(tick=0, channel=3, data=[48]),
   midi.ControlChangeEvent(tick=0, channel=3, data=[32, 0]),
   midi.ControlChangeEvent(tick=0, channel=3, data=[0, 0]),
   midi.ControlChangeEvent(tick=923, channel=3, data=[108, 0]),
   midi.NoteOnEvent(tick=1, channel=3, data=[48, 80]),
   midi.NoteOnEvent(tick=0, channel=3, data=[55, 80]),
   midi.NoteOnEvent(tick=0, channel=3, data=[63, 80]),
   midi.NoteOffEvent(tick=143, channel=3, data=[63, 0]),
   midi.NoteOffEvent(tick=0, channel=3, data=[55, 0]),
   midi.NoteOffEvent(tick=0, channel=3, data=[48, 0]),
   midi.NoteOnEvent(tick=9, channel=3, data=[48, 77]),
   midi.NoteOnEvent(tick=0, channel=3, data=[56, 80]),
   midi.NoteOnEvent(tick=0, channel=3, data=[63, 82]),
   midi.NoteOffEvent(tick=143, channel=3, data=[63, 0]),
   midi.NoteOffEvent(tick=0, channel=3, data=[56, 0]),
   midi.NoteOffEvent(tick=0, channel=3, data=[48, 0]),
   midi.NoteOnEvent(tick=10, channel=3, data=[46, 77]),
   midi.NoteOnEvent(tick=0, channel=3, data=[53, 80]),
   midi.NoteOnEvent(tick=0, channel=3, data=[62, 78]),
   midi.NoteOffEvent(tick=143, channel=3, data=[62, 0]),
   midi.NoteOffEvent(tick=0, channel=3, data=[53, 0]),
   midi.NoteOffEvent(tick=0, channel=3, data=[46, 0]),
   midi.NoteOnEvent(tick=9, channel=3, data=[46, 82]),
   midi.NoteOnEvent(tick=0, channel=3, data=[55, 81]),
   midi.NoteOnEvent(tick=0, channel=3, data=[62, 80]),
   midi.NoteOffEvent(tick=143, channel=3, data=[62, 0]),
   midi.NoteOffEvent(tick=0, channel=3, data=[55, 0]),
   midi.NoteOffEvent(tick=0, channel=3, data=[46, 0]),
   midi.NoteOnEvent(tick=10, channel=3, data=[48, 80]),
   midi.NoteOnEvent(tick=0, channel=3, data=[55, 81]),
   midi.NoteOnEvent(tick=0, channel=3, data=[63, 75]),
   midi.NoteOffEvent(tick=147, channel=3, data=[63, 0]),
   midi.NoteOffEvent(tick=0, channel=3, data=[55, 0]),
   midi.NoteOffEvent(tick=0, channel=3, data=[48, 0]),
   midi.NoteOnEvent(tick=5, channel=3, data=[48, 80]),
   midi.NoteOnEvent(tick=0, channel=3, data=[56, 80]),
   midi.NoteOnEvent(tick=0, channel=3, data=[63, 77]),
   midi.NoteOffEvent(tick=143, channel=3, data=[63, 0]),
   midi.NoteOffEvent(tick=0, channel=3, data=[56, 0]),
   midi.NoteOffEvent(tick=0, channel=3, data=[48, 0]),
   midi.NoteOnEvent(tick=10, channel=3, data=[46, 80]),
   midi.NoteOnEvent(tick=0, channel=3, data=[53, 78]),
   midi.NoteOnEvent(tick=0, channel=3, data=[62, 80]),
   midi.NoteOffEvent(tick=142, channel=3, data=[62, 0]),
   midi.NoteOffEvent(tick=0, channel=3, data=[53, 0]),
   midi.NoteOffEvent(tick=0, channel=3, data=[46, 0]),
   midi.NoteOnEvent(tick=10, channel=3, data=[46, 82]),
   midi.NoteOnEvent(tick=0, channel=3, data=[55, 81]),
   midi.NoteOnEvent(tick=0, channel=3, data=[62, 77]),
   midi.NoteOffEvent(tick=143, channel=3, data=[62, 0]),
   midi.NoteOffEvent(tick=0, channel=3, data=[55, 0]),
   midi.NoteOffEvent(tick=0, channel=3, data=[46, 0]),
   midi.NoteOnEvent(tick=9, channel=3, data=[51, 77]),
   midi.NoteOnEvent(tick=0, channel=3, data=[56, 78]),
   midi.NoteOnEvent(tick=0, channel=3, data=[60, 80]),
   midi.NoteOffEvent(tick=143, channel=3, data=[60, 0]),
   midi.NoteOffEvent(tick=0, channel=3, data=[56, 0]),
   midi.NoteOffEvent(tick=0, channel=3, data=[51, 0]),
   midi.NoteOnEvent(tick=10, channel=3, data=[50, 80]),
   midi.NoteOnEvent(tick=0, channel=3, data=[58, 80]),
   midi.NoteOnEvent(tick=0, channel=3, data=[65, 80]),
   midi.NoteOffEvent(tick=143, channel=3, data=[65, 0]),
   midi.NoteOffEvent(tick=0, channel=3, data=[58, 0]),
   midi.NoteOffEvent(tick=0, channel=3, data=[50, 0]),
   midi.NoteOnEvent(tick=9, channel=3, data=[51, 80]),
   midi.NoteOnEvent(tick=0, channel=3, data=[60, 80]),
   midi.NoteOnEvent(tick=0, channel=3, data=[67, 81]),
   midi.NoteOffEvent(tick=143, channel=3, data=[67, 0]),
   midi.NoteOffEvent(tick=0, channel=3, data=[60, 0]),
   midi.NoteOffEvent(tick=0, channel=3, data=[51, 0]),
   midi.NoteOnEvent(tick=10, channel=3, data=[60, 80]),
   midi.NoteOnEvent(tick=0, channel=3, data=[65, 81]),
   midi.NoteOnEvent(tick=0, channel=3, data=[67, 80]),
   midi.NoteOffEvent(tick=57, channel=3, data=[65, 0]),
   midi.NoteOnEvent(tick=0, channel=3, data=[63, 97]),
   midi.NoteOffEvent(tick=57, channel=3, data=[63, 0]),
   midi.NoteOnEvent(tick=0, channel=3, data=[62, 97]),
   midi.NoteOffEvent(tick=29, channel=3, data=[60, 0]),
   midi.NoteOffEvent(tick=0, channel=3, data=[67, 0]),
   midi.NoteOffEvent(tick=9, channel=3, data=[62, 0]),
   midi.NoteOnEvent(tick=0, channel=3, data=[48, 77]),
   midi.NoteOnEvent(tick=0, channel=3, data=[56, 80]),
   midi.NoteOnEvent(tick=0, channel=3, data=[63, 77]),
   midi.NoteOffEvent(tick=143, channel=3, data=[63, 0]),
   midi.NoteOffEvent(tick=0, channel=3, data=[56, 0]),
   midi.NoteOffEvent(tick=0, channel=3, data=[48, 0]),
   midi.NoteOnEvent(tick=10, channel=3, data=[50, 80]),
   midi.NoteOnEvent(tick=0, channel=3, data=[58, 80]),
   midi.NoteOnEvent(tick=0, channel=3, data=[65, 80]),
   midi.NoteOffEvent(tick=143, channel=3, data=[65, 0]),
   midi.NoteOffEvent(tick=0, channel=3, data=[58, 0]),
   midi.NoteOffEvent(tick=0, channel=3, data=[50, 0]),
   midi.NoteOnEvent(tick=9, channel=3, data=[51, 77]),
   midi.NoteOnEvent(tick=0, channel=3, data=[60, 80]),
   midi.NoteOnEvent(tick=0, channel=3, data=[67, 80]),
   midi.NoteOffEvent(tick=143, channel=3, data=[67, 0]),
   midi.NoteOffEvent(tick=0, channel=3, data=[60, 0]),
   midi.NoteOffEvent(tick=0, channel=3, data=[51, 0]),
   midi.NoteOnEvent(tick=10, channel=3, data=[48, 77]),
   midi.NoteOnEvent(tick=0, channel=3, data=[55, 77]),
   midi.NoteOnEvent(tick=0, channel=3, data=[63, 77]),
   midi.NoteOffEvent(tick=85, channel=3, data=[63, 0]),
   midi.NoteOffEvent(tick=0, channel=3, data=[55, 0]),
   midi.NoteOffEvent(tick=0, channel=3, data=[48, 0]),
   midi.NoteOnEvent(tick=5, channel=3, data=[46, 78]),
   midi.NoteOnEvent(tick=0, channel=3, data=[55, 78]),
   midi.NoteOnEvent(tick=0, channel=3, data=[62, 77]),
   midi.NoteOffEvent(tick=57, channel=3, data=[62, 0]),
   midi.NoteOffEvent(tick=0, channel=3, data=[55, 0]),
   midi.NoteOffEvent(tick=0, channel=3, data=[46, 0]),
   midi.NoteOnEvent(tick=5, channel=3, data=[48, 80]),
   midi.NoteOnEvent(tick=0, channel=3, data=[48, 77]),
   midi.NoteOnEvent(tick=0, channel=3, data=[55, 81]),
   midi.NoteOnEvent(tick=0, channel=3, data=[63, 82]),
   midi.NoteOnEvent(tick=0, channel=3, data=[63, 77]),
   midi.NoteOffEvent(tick=138, channel=3, data=[63, 0]),
   midi.NoteOffEvent(tick=0, channel=3, data=[63, 0]),
   midi.NoteOffEvent(tick=0, channel=3, data=[55, 0]),
   midi.NoteOffEvent(tick=0, channel=3, data=[48, 0]),
   midi.NoteOffEvent(tick=0, channel=3, data=[48, 0]),
   midi.NoteOnEvent(tick=10, channel=3, data=[48, 80]),
   midi.NoteOnEvent(tick=0, channel=3, data=[56, 80]),
   midi.NoteOnEvent(tick=0, channel=3, data=[63, 97]),
   midi.NoteOffEvent(tick=147, channel=3, data=[63, 0]),
   midi.NoteOffEvent(tick=0, channel=3, data=[56, 0]),
   midi.NoteOffEvent(tick=0, channel=3, data=[48, 0]),
   midi.NoteOnEvent(tick=10, channel=3, data=[46, 82]),
   midi.NoteOnEvent(tick=0, channel=3, data=[53, 80]),
   midi.NoteOnEvent(tick=0, channel=3, data=[62, 80]),
   midi.NoteOffEvent(tick=133, channel=3, data=[62, 0]),
   midi.NoteOffEvent(tick=0, channel=3, data=[53, 0]),
   midi.NoteOffEvent(tick=0, channel=3, data=[46, 0]),
   midi.NoteOnEvent(tick=5, channel=3, data=[46, 80]),
   midi.NoteOnEvent(tick=0, channel=3, data=[55, 80]),
   midi.NoteOnEvent(tick=0, channel=3, data=[62, 88]),
   midi.NoteOffEvent(tick=153, channel=3, data=[62, 0]),
   midi.NoteOffEvent(tick=0, channel=3, data=[55, 0]),
   midi.NoteOffEvent(tick=0, channel=3, data=[46, 0]),
   midi.NoteOnEvent(tick=14, channel=3, data=[44, 82]),
   midi.NoteOnEvent(tick=0, channel=3, data=[51, 80]),
   midi.NoteOnEvent(tick=0, channel=3, data=[60, 82]),
   midi.NoteOffEvent(tick=143, channel=3, data=[60, 0]),
   midi.NoteOffEvent(tick=0, channel=3, data=[51, 0]),
   midi.NoteOffEvent(tick=0, channel=3, data=[44, 0]),
   midi.NoteOnEvent(tick=9, channel=3, data=[46, 80]),
   midi.NoteOnEvent(tick=0, channel=3, data=[53, 78]),
   midi.NoteOnEvent(tick=0, channel=3, data=[62, 77]),
   midi.NoteOffEvent(tick=143, channel=3, data=[62, 0]),
   midi.NoteOffEvent(tick=0, channel=3, data=[53, 0]),
   midi.NoteOffEvent(tick=0, channel=3, data=[46, 0]),
   midi.NoteOnEvent(tick=10, channel=3, data=[48, 78]),
   midi.NoteOnEvent(tick=0, channel=3, data=[55, 80]),
   midi.NoteOnEvent(tick=0, channel=3, data=[63, 78]),
   midi.NoteOffEvent(tick=257, channel=3, data=[63, 0]),
   midi.NoteOffEvent(tick=0, channel=3, data=[55, 0]),
   midi.NoteOffEvent(tick=0, channel=3, data=[48, 0]),
   midi.NoteOnEvent(tick=10, channel=3, data=[46, 80]),
   midi.NoteOnEvent(tick=0, channel=3, data=[53, 80]),
   midi.NoteOnEvent(tick=0, channel=3, data=[62, 77]),
   midi.NoteOffEvent(tick=28, channel=3, data=[62, 0]),
   midi.NoteOffEvent(tick=0, channel=3, data=[53, 0]),
   midi.NoteOffEvent(tick=0, channel=3, data=[46, 0]),
   midi.NoteOnEvent(tick=10, channel=3, data=[44, 76]),
   midi.NoteOnEvent(tick=0, channel=3, data=[51, 75]),
   midi.NoteOnEvent(tick=0, channel=3, data=[60, 78]),
   midi.NoteOffEvent(tick=143, channel=3, data=[60, 0]),
   midi.NoteOffEvent(tick=0, channel=3, data=[51, 0]),
   midi.NoteOffEvent(tick=0, channel=3, data=[44, 0]),
   midi.NoteOnEvent(tick=9, channel=3, data=[46, 78]),
   midi.NoteOnEvent(tick=0, channel=3, data=[53, 80]),
   midi.NoteOnEvent(tick=0, channel=3, data=[62, 80]),
   midi.NoteOffEvent(tick=143, channel=3, data=[62, 0]),
   midi.NoteOffEvent(tick=0, channel=3, data=[53, 0]),
   midi.NoteOffEvent(tick=0, channel=3, data=[46, 0]),
   midi.NoteOnEvent(tick=10, channel=3, data=[48, 78]),
   midi.NoteOnEvent(tick=0, channel=3, data=[55, 78]),
   midi.NoteOnEvent(tick=0, channel=3, data=[63, 77]),
   midi.NoteOffEvent(tick=305, channel=3, data=[63, 0]),
   midi.NoteOffEvent(tick=0, channel=3, data=[55, 0]),
   midi.NoteOffEvent(tick=0, channel=3, data=[48, 0]),
   midi.EndOfTrackEvent(tick=0, data=[])]),
 midi.Track(\
  [midi.ChannelPrefixEvent(tick=0, data=[4]),
   midi.ControlChangeEvent(tick=0, channel=4, data=[7, 127]),
   midi.ProgramChangeEvent(tick=0, channel=4, data=[11]),
   midi.ControlChangeEvent(tick=0, channel=4, data=[32, 0]),
   midi.ControlChangeEvent(tick=0, channel=4, data=[0, 0]),
   midi.NoteOnEvent(tick=860, channel=4, data=[58, 27]),
   midi.NoteOnEvent(tick=7, channel=4, data=[65, 33]),
   midi.NoteOffEvent(tick=6, channel=4, data=[58, 0]),
   midi.NoteOnEvent(tick=0, channel=4, data=[70, 41]),
   midi.NoteOffEvent(tick=6, channel=4, data=[65, 0]),
   midi.NoteOnEvent(tick=0, channel=4, data=[77, 47]),
   midi.NoteOffEvent(tick=7, channel=4, data=[70, 0]),
   midi.NoteOnEvent(tick=0, channel=4, data=[82, 57]),
   midi.NoteOffEvent(tick=6, channel=4, data=[77, 0]),
   midi.NoteOnEvent(tick=0, channel=4, data=[89, 57]),
   midi.NoteOffEvent(tick=6, channel=4, data=[82, 0]),
   midi.NoteOnEvent(tick=0, channel=4, data=[96, 53]),
   midi.NoteOffEvent(tick=7, channel=4, data=[89, 0]),
   midi.NoteOffEvent(tick=12, channel=4, data=[96, 0]),
   midi.ControlChangeEvent(tick=6, channel=4, data=[108, 0]),
   midi.NoteOnEvent(tick=1259, channel=4, data=[91, 88]),
   midi.NoteOffEvent(tick=9, channel=4, data=[91, 0]),
   midi.NoteOnEvent(tick=0, channel=4, data=[96, 53]),
   midi.NoteOffEvent(tick=10, channel=4, data=[96, 0]),
   midi.NoteOnEvent(tick=0, channel=4, data=[91, 46]),
   midi.NoteOffEvent(tick=9, channel=4, data=[91, 0]),
   midi.NoteOnEvent(tick=0, channel=4, data=[84, 73]),
   midi.NoteOffEvent(tick=10, channel=4, data=[84, 0]),
   midi.NoteOnEvent(tick=0, channel=4, data=[96, 38]),
   midi.NoteOffEvent(tick=9, channel=4, data=[96, 0]),
   midi.NoteOnEvent(tick=0, channel=4, data=[84, 31]),
   midi.NoteOffEvent(tick=10, channel=4, data=[84, 0]),
   midi.NoteOnEvent(tick=0, channel=4, data=[84, 65]),
   midi.NoteOffEvent(tick=9, channel=4, data=[84, 0]),
   midi.NoteOnEvent(tick=86, channel=4, data=[91, 88]),
   midi.NoteOffEvent(tick=10, channel=4, data=[91, 0]),
   midi.NoteOnEvent(tick=0, channel=4, data=[96, 53]),
   midi.NoteOffEvent(tick=9, channel=4, data=[96, 0]),
   midi.NoteOnEvent(tick=0, channel=4, data=[91, 46]),
   midi.NoteOffEvent(tick=10, channel=4, data=[91, 0]),
   midi.NoteOnEvent(tick=0, channel=4, data=[84, 73]),
   midi.NoteOffEvent(tick=9, channel=4, data=[84, 0]),
   midi.NoteOnEvent(tick=0, channel=4, data=[96, 38]),
   midi.NoteOffEvent(tick=10, channel=4, data=[96, 0]),
   midi.NoteOnEvent(tick=0, channel=4, data=[84, 31]),
   midi.NoteOffEvent(tick=9, channel=4, data=[84, 0]),
   midi.NoteOnEvent(tick=0, channel=4, data=[84, 65]),
   midi.NoteOffEvent(tick=10, channel=4, data=[84, 0]),
   midi.NoteOnEvent(tick=85, channel=4, data=[91, 87]),
   midi.NoteOffEvent(tick=10, channel=4, data=[91, 0]),
   midi.NoteOnEvent(tick=0, channel=4, data=[96, 53]),
   midi.NoteOffEvent(tick=10, channel=4, data=[96, 0]),
   midi.NoteOnEvent(tick=0, channel=4, data=[91, 46]),
   midi.NoteOffEvent(tick=9, channel=4, data=[91, 0]),
   midi.NoteOnEvent(tick=0, channel=4, data=[84, 73]),
   midi.NoteOffEvent(tick=10, channel=4, data=[84, 0]),
   midi.NoteOnEvent(tick=0, channel=4, data=[96, 38]),
   midi.NoteOffEvent(tick=9, channel=4, data=[96, 0]),
   midi.NoteOnEvent(tick=0, channel=4, data=[84, 31]),
   midi.NoteOffEvent(tick=10, channel=4, data=[84, 0]),
   midi.NoteOnEvent(tick=0, channel=4, data=[84, 65]),
   midi.NoteOffEvent(tick=9, channel=4, data=[84, 0]),
   midi.NoteOnEvent(tick=86, channel=4, data=[96, 90]),
   midi.NoteOffEvent(tick=9, channel=4, data=[96, 0]),
   midi.NoteOnEvent(tick=0, channel=4, data=[91, 79]),
   midi.NoteOffEvent(tick=10, channel=4, data=[91, 0]),
   midi.NoteOnEvent(tick=0, channel=4, data=[84, 82]),
   midi.NoteOffEvent(tick=9, channel=4, data=[84, 0]),
   midi.NoteOnEvent(tick=0, channel=4, data=[91, 74]),
   midi.NoteOffEvent(tick=10, channel=4, data=[91, 0]),
   midi.NoteOnEvent(tick=0, channel=4, data=[84, 68]),
   midi.NoteOffEvent(tick=10, channel=4, data=[84, 0]),
   midi.NoteOnEvent(tick=0, channel=4, data=[79, 64]),
   midi.NoteOffEvent(tick=9, channel=4, data=[79, 0]),
   midi.NoteOnEvent(tick=0, channel=4, data=[84, 62]),
   midi.NoteOffEvent(tick=10, channel=4, data=[84, 0]),
   midi.NoteOnEvent(tick=0, channel=4, data=[79, 61]),
   midi.NoteOffEvent(tick=9, channel=4, data=[79, 0]),
   midi.NoteOnEvent(tick=0, channel=4, data=[72, 61]),
   midi.NoteOffEvent(tick=10, channel=4, data=[72, 0]),
   midi.NoteOnEvent(tick=66, channel=4, data=[91, 88]),
   midi.NoteOffEvent(tick=10, channel=4, data=[91, 0]),
   midi.NoteOnEvent(tick=0, channel=4, data=[96, 53]),
   midi.NoteOffEvent(tick=9, channel=4, data=[96, 0]),
   midi.NoteOnEvent(tick=0, channel=4, data=[91, 46]),
   midi.NoteOffEvent(tick=10, channel=4, data=[91, 0]),
   midi.NoteOnEvent(tick=0, channel=4, data=[84, 73]),
   midi.NoteOffEvent(tick=9, channel=4, data=[84, 0]),
   midi.NoteOnEvent(tick=0, channel=4, data=[96, 38]),
   midi.NoteOffEvent(tick=10, channel=4, data=[96, 0]),
   midi.NoteOnEvent(tick=0, channel=4, data=[84, 31]),
   midi.NoteOffEvent(tick=10, channel=4, data=[84, 0]),
   midi.NoteOnEvent(tick=0, channel=4, data=[84, 65]),
   midi.NoteOffEvent(tick=9, channel=4, data=[84, 0]),
   midi.NoteOnEvent(tick=86, channel=4, data=[91, 88]),
   midi.NoteOffEvent(tick=9, channel=4, data=[91, 0]),
   midi.NoteOnEvent(tick=0, channel=4, data=[96, 53]),
   midi.NoteOffEvent(tick=10, channel=4, data=[96, 0]),
   midi.NoteOnEvent(tick=0, channel=4, data=[91, 46]),
   midi.NoteOffEvent(tick=9, channel=4, data=[91, 0]),
   midi.NoteOnEvent(tick=0, channel=4, data=[84, 73]),
   midi.NoteOffEvent(tick=10, channel=4, data=[84, 0]),
   midi.NoteOnEvent(tick=0, channel=4, data=[96, 38]),
   midi.NoteOffEvent(tick=9, channel=4, data=[96, 0]),
   midi.NoteOnEvent(tick=0, channel=4, data=[84, 31]),
   midi.NoteOffEvent(tick=10, channel=4, data=[84, 0]),
   midi.NoteOnEvent(tick=0, channel=4, data=[84, 65]),
   midi.NoteOffEvent(tick=10, channel=4, data=[84, 0]),
   midi.NoteOnEvent(tick=85, channel=4, data=[91, 87]),
   midi.NoteOffEvent(tick=10, channel=4, data=[91, 0]),
   midi.NoteOnEvent(tick=0, channel=4, data=[96, 53]),
   midi.NoteOffEvent(tick=9, channel=4, data=[96, 0]),
   midi.NoteOnEvent(tick=0, channel=4, data=[91, 46]),
   midi.NoteOffEvent(tick=10, channel=4, data=[91, 0]),
   midi.NoteOnEvent(tick=0, channel=4, data=[84, 73]),
   midi.NoteOffEvent(tick=9, channel=4, data=[84, 0]),
   midi.NoteOnEvent(tick=0, channel=4, data=[96, 38]),
   midi.NoteOffEvent(tick=10, channel=4, data=[96, 0]),
   midi.NoteOnEvent(tick=0, channel=4, data=[84, 31]),
   midi.NoteOffEvent(tick=9, channel=4, data=[84, 0]),
   midi.NoteOnEvent(tick=0, channel=4, data=[84, 65]),
   midi.NoteOffEvent(tick=10, channel=4, data=[84, 0]),
   midi.NoteOnEvent(tick=48, channel=4, data=[96, 91]),
   midi.NoteOffEvent(tick=9, channel=4, data=[96, 0]),
   midi.NoteOnEvent(tick=0, channel=4, data=[91, 71]),
   midi.NoteOffEvent(tick=10, channel=4, data=[91, 0]),
   midi.NoteOnEvent(tick=0, channel=4, data=[84, 71]),
   midi.NoteOffEvent(tick=9, channel=4, data=[84, 0]),
   midi.NoteOnEvent(tick=0, channel=4, data=[91, 85]),
   midi.NoteOffEvent(tick=10, channel=4, data=[91, 0]),
   midi.NoteOnEvent(tick=0, channel=4, data=[84, 70]),
   midi.NoteOffEvent(tick=9, channel=4, data=[84, 0]),
   midi.NoteOnEvent(tick=0, channel=4, data=[79, 69]),
   midi.NoteOffEvent(tick=10, channel=4, data=[79, 0]),
   midi.NoteOnEvent(tick=0, channel=4, data=[84, 81]),
   midi.NoteOffEvent(tick=9, channel=4, data=[84, 0]),
   midi.NoteOnEvent(tick=0, channel=4, data=[79, 65]),
   midi.NoteOffEvent(tick=10, channel=4, data=[79, 0]),
   midi.NoteOnEvent(tick=0, channel=4, data=[72, 64]),
   midi.NoteOffEvent(tick=9, channel=4, data=[72, 0]),
   midi.NoteOnEvent(tick=0, channel=4, data=[79, 72]),
   midi.NoteOffEvent(tick=10, channel=4, data=[79, 0]),
   midi.NoteOnEvent(tick=0, channel=4, data=[72, 64]),
   midi.NoteOffEvent(tick=9, channel=4, data=[72, 0]),
   midi.NoteOnEvent(tick=0, channel=4, data=[67, 55]),
   midi.NoteOffEvent(tick=10, channel=4, data=[67, 0]),
   midi.NoteOnEvent(tick=0, channel=4, data=[72, 50]),
   midi.NoteOffEvent(tick=9, channel=4, data=[72, 0]),
   midi.NoteOnEvent(tick=1716, channel=4, data=[96, 82]),
   midi.NoteOffEvent(tick=9, channel=4, data=[96, 0]),
   midi.NoteOnEvent(tick=0, channel=4, data=[91, 61]),
   midi.NoteOffEvent(tick=10, channel=4, data=[91, 0]),
   midi.NoteOnEvent(tick=0, channel=4, data=[84, 49]),
   midi.NoteOffEvent(tick=9, channel=4, data=[84, 0]),
   midi.NoteOnEvent(tick=0, channel=4, data=[96, 64]),
   midi.NoteOffEvent(tick=10, channel=4, data=[96, 0]),
   midi.NoteOnEvent(tick=0, channel=4, data=[91, 54]),
   midi.NoteOffEvent(tick=9, channel=4, data=[91, 0]),
   midi.NoteOnEvent(tick=0, channel=4, data=[84, 43]),
   midi.NoteOffEvent(tick=10, channel=4, data=[84, 0]),
   midi.NoteOnEvent(tick=0, channel=4, data=[96, 58]),
   midi.NoteOffEvent(tick=9, channel=4, data=[96, 0]),
   midi.NoteOnEvent(tick=0, channel=4, data=[91, 52]),
   midi.NoteOffEvent(tick=10, channel=4, data=[91, 0]),
   midi.NoteOnEvent(tick=0, channel=4, data=[84, 49]),
   midi.NoteOffEvent(tick=9, channel=4, data=[84, 0]),
   midi.NoteOnEvent(tick=0, channel=4, data=[96, 59]),
   midi.NoteOffEvent(tick=10, channel=4, data=[96, 0]),
   midi.NoteOnEvent(tick=0, channel=4, data=[101, 58]),
   midi.NoteOffEvent(tick=9, channel=4, data=[101, 0]),
   midi.NoteOnEvent(tick=0, channel=4, data=[99, 64]),
   midi.NoteOffEvent(tick=10, channel=4, data=[99, 0]),
   midi.NoteOnEvent(tick=0, channel=4, data=[96, 59]),
   midi.NoteOffEvent(tick=9, channel=4, data=[96, 0]),
   midi.NoteOnEvent(tick=0, channel=4, data=[94, 57]),
   midi.NoteOffEvent(tick=10, channel=4, data=[94, 0]),
   midi.NoteOnEvent(tick=0, channel=4, data=[96, 56]),
   midi.NoteOffEvent(tick=10, channel=4, data=[96, 0]),
   midi.NoteOnEvent(tick=0, channel=4, data=[96, 36]),
   midi.NoteOffEvent(tick=9, channel=4, data=[96, 0]),
   midi.NoteOnEvent(tick=0, channel=4, data=[94, 29]),
   midi.NoteOffEvent(tick=9, channel=4, data=[94, 0]),
   midi.NoteOnEvent(tick=0, channel=4, data=[96, 19]),
   midi.NoteOffEvent(tick=10, channel=4, data=[96, 0]),
   midi.EndOfTrackEvent(tick=0, data=[])]),
 midi.Track(\
  [midi.ChannelPrefixEvent(tick=0, data=[5]),
   midi.ControlChangeEvent(tick=0, channel=5, data=[7, 127]),
   midi.ProgramChangeEvent(tick=0, channel=5, data=[87]),
   midi.ControlChangeEvent(tick=0, channel=5, data=[32, 0]),
   midi.ControlChangeEvent(tick=0, channel=5, data=[0, 0]),
   midi.ControlChangeEvent(tick=923, channel=5, data=[108, 0]),
   midi.NoteOnEvent(tick=4298, channel=5, data=[72, 80]),
   midi.NoteOffEvent(tick=9, channel=5, data=[72, 0]),
   midi.NoteOnEvent(tick=0, channel=5, data=[84, 81]),
   midi.NoteOnEvent(tick=0, channel=5, data=[79, 84]),
   midi.NoteOnEvent(tick=19, channel=5, data=[72, 81]),
   midi.NoteOffEvent(tick=9, channel=5, data=[72, 0]),
   midi.NoteOffEvent(tick=0, channel=5, data=[79, 0]),
   midi.NoteOffEvent(tick=0, channel=5, data=[84, 0]),
   midi.NoteOnEvent(tick=0, channel=5, data=[82, 84]),
   midi.NoteOnEvent(tick=0, channel=5, data=[77, 76]),
   midi.NoteOffEvent(tick=10, channel=5, data=[77, 0]),
   midi.NoteOffEvent(tick=0, channel=5, data=[82, 0]),
   midi.NoteOnEvent(tick=0, channel=5, data=[79, 41]),
   midi.NoteOnEvent(tick=0, channel=5, data=[84, 41]),
   midi.NoteOffEvent(tick=9, channel=5, data=[84, 0]),
   midi.NoteOffEvent(tick=0, channel=5, data=[79, 0]),
   midi.NoteOnEvent(tick=0, channel=5, data=[82, 84]),
   midi.NoteOnEvent(tick=0, channel=5, data=[77, 81]),
   midi.NoteOffEvent(tick=9, channel=5, data=[77, 0]),
   midi.NoteOffEvent(tick=0, channel=5, data=[82, 0]),
   midi.NoteOnEvent(tick=0, channel=5, data=[70, 68]),
   midi.NoteOffEvent(tick=10, channel=5, data=[70, 0]),
   midi.NoteOnEvent(tick=0, channel=5, data=[79, 40]),
   midi.NoteOnEvent(tick=0, channel=5, data=[84, 40]),
   midi.NoteOffEvent(tick=9, channel=5, data=[84, 0]),
   midi.NoteOffEvent(tick=0, channel=5, data=[79, 0]),
   midi.NoteOnEvent(tick=0, channel=5, data=[82, 84]),
   midi.NoteOnEvent(tick=0, channel=5, data=[77, 76]),
   midi.NoteOffEvent(tick=9, channel=5, data=[77, 0]),
   midi.NoteOffEvent(tick=0, channel=5, data=[82, 0]),
   midi.NoteOnEvent(tick=0, channel=5, data=[84, 76]),
   midi.NoteOnEvent(tick=0, channel=5, data=[79, 81]),
   midi.NoteOffEvent(tick=10, channel=5, data=[79, 0]),
   midi.NoteOffEvent(tick=0, channel=5, data=[84, 0]),
   midi.NoteOnEvent(tick=0, channel=5, data=[87, 85]),
   midi.NoteOnEvent(tick=19, channel=5, data=[79, 41]),
   midi.NoteOffEvent(tick=9, channel=5, data=[79, 0]),
   midi.NoteOffEvent(tick=9, channel=5, data=[87, 0]),
   midi.NoteOnEvent(tick=0, channel=5, data=[82, 84]),
   midi.NoteOnEvent(tick=0, channel=5, data=[87, 84]),
   midi.NoteOffEvent(tick=10, channel=5, data=[87, 0]),
   midi.NoteOffEvent(tick=0, channel=5, data=[82, 0]),
   midi.NoteOnEvent(tick=0, channel=5, data=[87, 41]),
   midi.NoteOffEvent(tick=9, channel=5, data=[87, 0]),
   midi.NoteOnEvent(tick=0, channel=5, data=[79, 84]),
   midi.NoteOnEvent(tick=0, channel=5, data=[84, 84]),
   midi.NoteOffEvent(tick=19, channel=5, data=[84, 0]),
   midi.NoteOffEvent(tick=0, channel=5, data=[79, 0]),
   midi.NoteOnEvent(tick=0, channel=5, data=[70, 84]),
   midi.NoteOffEvent(tick=9, channel=5, data=[70, 0]),
   midi.NoteOnEvent(tick=0, channel=5, data=[82, 84]),
   midi.NoteOnEvent(tick=0, channel=5, data=[77, 68]),
   midi.NoteOffEvent(tick=10, channel=5, data=[77, 0]),
   midi.NoteOffEvent(tick=0, channel=5, data=[82, 0]),
   midi.NoteOnEvent(tick=0, channel=5, data=[79, 41]),
   midi.NoteOnEvent(tick=0, channel=5, data=[84, 41]),
   midi.NoteOffEvent(tick=9, channel=5, data=[84, 0]),
   midi.NoteOffEvent(tick=0, channel=5, data=[79, 0]),
   midi.NoteOnEvent(tick=0, channel=5, data=[70, 41]),
   midi.NoteOnEvent(tick=0, channel=5, data=[91, 76]),
   midi.NoteOffEvent(tick=9, channel=5, data=[70, 0]),
   midi.NoteOffEvent(tick=10, channel=5, data=[91, 0]),
   midi.NoteOnEvent(tick=0, channel=5, data=[89, 81]),
   midi.NoteOffEvent(tick=9, channel=5, data=[89, 0]),
   midi.NoteOnEvent(tick=0, channel=5, data=[91, 41]),
   midi.NoteOnEvent(tick=0, channel=5, data=[87, 76]),
   midi.NoteOffEvent(tick=9, channel=5, data=[87, 0]),
   midi.NoteOnEvent(tick=0, channel=5, data=[84, 85]),
   midi.NoteOffEvent(tick=10, channel=5, data=[91, 0]),
   midi.NoteOffEvent(tick=0, channel=5, data=[84, 0]),
   midi.NoteOnEvent(tick=0, channel=5, data=[89, 41]),
   midi.NoteOnEvent(tick=0, channel=5, data=[82, 76]),
   midi.NoteOffEvent(tick=9, channel=5, data=[82, 0]),
   midi.NoteOffEvent(tick=0, channel=5, data=[89, 0]),
   midi.NoteOnEvent(tick=0, channel=5, data=[79, 76]),
   midi.NoteOffEvent(tick=10, channel=5, data=[79, 0]),
   midi.NoteOnEvent(tick=0, channel=5, data=[72, 81]),
   midi.NoteOnEvent(tick=0, channel=5, data=[77, 84]),
   midi.NoteOffEvent(tick=9, channel=5, data=[77, 0]),
   midi.NoteOffEvent(tick=0, channel=5, data=[72, 0]),
   midi.NoteOnEvent(tick=0, channel=5, data=[82, 41]),
   midi.NoteOffEvent(tick=9, channel=5, data=[82, 0]),
   midi.NoteOnEvent(tick=0, channel=5, data=[75, 62]),
   midi.NoteOnEvent(tick=0, channel=5, data=[70, 76]),
   midi.NoteOffEvent(tick=10, channel=5, data=[70, 0]),
   midi.NoteOffEvent(tick=0, channel=5, data=[75, 0]),
   midi.NoteOnEvent(tick=0, channel=5, data=[72, 41]),
   midi.NoteOnEvent(tick=0, channel=5, data=[77, 41]),
   midi.NoteOffEvent(tick=9, channel=5, data=[77, 0]),
   midi.NoteOffEvent(tick=0, channel=5, data=[72, 0]),
   midi.NoteOnEvent(tick=0, channel=5, data=[72, 76]),
   midi.NoteOnEvent(tick=0, channel=5, data=[77, 81]),
   midi.NoteOffEvent(tick=19, channel=5, data=[77, 0]),
   midi.NoteOffEvent(tick=0, channel=5, data=[72, 0]),
   midi.NoteOnEvent(tick=0, channel=5, data=[65, 60]),
   midi.NoteOffEvent(tick=9, channel=5, data=[65, 0]),
   midi.NoteOnEvent(tick=0, channel=5, data=[75, 76]),
   midi.NoteOnEvent(tick=0, channel=5, data=[70, 68]),
   midi.NoteOffEvent(tick=10, channel=5, data=[70, 0]),
   midi.NoteOffEvent(tick=0, channel=5, data=[75, 0]),
   midi.NoteOnEvent(tick=0, channel=5, data=[72, 41]),
   midi.NoteOnEvent(tick=0, channel=5, data=[77, 41]),
   midi.NoteOffEvent(tick=9, channel=5, data=[77, 0]),
   midi.NoteOffEvent(tick=0, channel=5, data=[72, 0]),
   midi.NoteOnEvent(tick=0, channel=5, data=[77, 68]),
   midi.NoteOnEvent(tick=0, channel=5, data=[72, 72]),
   midi.NoteOffEvent(tick=9, channel=5, data=[72, 0]),
   midi.NoteOffEvent(tick=0, channel=5, data=[77, 0]),
   midi.NoteOnEvent(tick=0, channel=5, data=[75, 41]),
   midi.NoteOnEvent(tick=0, channel=5, data=[70, 41]),
   midi.NoteOffEvent(tick=10, channel=5, data=[70, 0]),
   midi.NoteOffEvent(tick=0, channel=5, data=[75, 0]),
   midi.NoteOnEvent(tick=0, channel=5, data=[67, 81]),
   midi.NoteOffEvent(tick=9, channel=5, data=[67, 0]),
   midi.NoteOnEvent(tick=0, channel=5, data=[79, 84]),
   midi.NoteOnEvent(tick=0, channel=5, data=[74, 84]),
   midi.NoteOffEvent(tick=19, channel=5, data=[74, 0]),
   midi.NoteOffEvent(tick=0, channel=5, data=[79, 0]),
   midi.NoteOnEvent(tick=0, channel=5, data=[74, 41]),
   midi.NoteOnEvent(tick=0, channel=5, data=[79, 41]),
   midi.NoteOnEvent(tick=0, channel=5, data=[67, 54]),
   midi.NoteOffEvent(tick=9, channel=5, data=[67, 0]),
   midi.NoteOffEvent(tick=0, channel=5, data=[79, 0]),
   midi.NoteOffEvent(tick=0, channel=5, data=[74, 0]),
   midi.NoteOnEvent(tick=0, channel=5, data=[82, 84]),
   midi.NoteOnEvent(tick=0, channel=5, data=[77, 68]),
   midi.NoteOffEvent(tick=10, channel=5, data=[77, 0]),
   midi.NoteOffEvent(tick=0, channel=5, data=[82, 0]),
   midi.NoteOnEvent(tick=0, channel=5, data=[74, 37]),
   midi.NoteOnEvent(tick=0, channel=5, data=[79, 37]),
   midi.NoteOffEvent(tick=18, channel=5, data=[79, 0]),
   midi.NoteOffEvent(tick=0, channel=5, data=[74, 0]),
   midi.NoteOnEvent(tick=0, channel=5, data=[77, 41]),
   midi.NoteOnEvent(tick=0, channel=5, data=[82, 41]),
   midi.NoteOffEvent(tick=10, channel=5, data=[82, 0]),
   midi.NoteOffEvent(tick=0, channel=5, data=[77, 0]),
   midi.NoteOnEvent(tick=0, channel=5, data=[72, 80]),
   midi.NoteOffEvent(tick=9, channel=5, data=[72, 0]),
   midi.NoteOnEvent(tick=0, channel=5, data=[84, 81]),
   midi.NoteOnEvent(tick=0, channel=5, data=[79, 84]),
   midi.NoteOnEvent(tick=19, channel=5, data=[72, 81]),
   midi.NoteOffEvent(tick=9, channel=5, data=[72, 0]),
   midi.NoteOffEvent(tick=0, channel=5, data=[79, 0]),
   midi.NoteOffEvent(tick=0, channel=5, data=[84, 0]),
   midi.NoteOnEvent(tick=0, channel=5, data=[82, 84]),
   midi.NoteOnEvent(tick=0, channel=5, data=[77, 76]),
   midi.NoteOffEvent(tick=10, channel=5, data=[77, 0]),
   midi.NoteOffEvent(tick=0, channel=5, data=[82, 0]),
   midi.NoteOnEvent(tick=0, channel=5, data=[79, 41]),
   midi.NoteOnEvent(tick=0, channel=5, data=[84, 41]),
   midi.NoteOffEvent(tick=9, channel=5, data=[84, 0]),
   midi.NoteOffEvent(tick=0, channel=5, data=[79, 0]),
   midi.NoteOnEvent(tick=0, channel=5, data=[82, 84]),
   midi.NoteOnEvent(tick=0, channel=5, data=[77, 81]),
   midi.NoteOffEvent(tick=9, channel=5, data=[77, 0]),
   midi.NoteOffEvent(tick=0, channel=5, data=[82, 0]),
   midi.NoteOnEvent(tick=0, channel=5, data=[70, 68]),
   midi.NoteOffEvent(tick=10, channel=5, data=[70, 0]),
   midi.NoteOnEvent(tick=0, channel=5, data=[79, 41]),
   midi.NoteOnEvent(tick=0, channel=5, data=[84, 41]),
   midi.NoteOffEvent(tick=9, channel=5, data=[84, 0]),
   midi.NoteOffEvent(tick=0, channel=5, data=[79, 0]),
   midi.NoteOnEvent(tick=0, channel=5, data=[82, 84]),
   midi.NoteOnEvent(tick=0, channel=5, data=[77, 76]),
   midi.NoteOffEvent(tick=10, channel=5, data=[77, 0]),
   midi.NoteOffEvent(tick=0, channel=5, data=[82, 0]),
   midi.NoteOnEvent(tick=0, channel=5, data=[84, 76]),
   midi.NoteOnEvent(tick=0, channel=5, data=[79, 81]),
   midi.NoteOffEvent(tick=9, channel=5, data=[79, 0]),
   midi.NoteOffEvent(tick=0, channel=5, data=[84, 0]),
   midi.NoteOnEvent(tick=0, channel=5, data=[87, 85]),
   midi.NoteOnEvent(tick=19, channel=5, data=[79, 41]),
   midi.NoteOffEvent(tick=9, channel=5, data=[79, 0]),
   midi.NoteOffEvent(tick=9, channel=5, data=[87, 0]),
   midi.NoteOnEvent(tick=0, channel=5, data=[82, 84]),
   midi.NoteOnEvent(tick=0, channel=5, data=[87, 84]),
   midi.NoteOffEvent(tick=10, channel=5, data=[87, 0]),
   midi.NoteOffEvent(tick=0, channel=5, data=[82, 0]),
   midi.NoteOnEvent(tick=0, channel=5, data=[87, 41]),
   midi.NoteOffEvent(tick=9, channel=5, data=[87, 0]),
   midi.NoteOnEvent(tick=0, channel=5, data=[79, 84]),
   midi.NoteOnEvent(tick=0, channel=5, data=[84, 84]),
   midi.NoteOffEvent(tick=19, channel=5, data=[84, 0]),
   midi.NoteOffEvent(tick=0, channel=5, data=[79, 0]),
   midi.NoteOnEvent(tick=0, channel=5, data=[82, 41]),
   midi.NoteOnEvent(tick=0, channel=5, data=[87, 41]),
   midi.NoteOnEvent(tick=0, channel=5, data=[70, 84]),
   midi.NoteOffEvent(tick=9, channel=5, data=[70, 0]),
   midi.NoteOffEvent(tick=0, channel=5, data=[87, 0]),
   midi.NoteOffEvent(tick=0, channel=5, data=[82, 0]),
   midi.NoteOnEvent(tick=0, channel=5, data=[82, 84]),
   midi.NoteOnEvent(tick=0, channel=5, data=[77, 68]),
   midi.NoteOffEvent(tick=10, channel=5, data=[77, 0]),
   midi.NoteOffEvent(tick=0, channel=5, data=[82, 0]),
   midi.NoteOnEvent(tick=0, channel=5, data=[79, 41]),
   midi.NoteOnEvent(tick=0, channel=5, data=[84, 41]),
   midi.NoteOffEvent(tick=9, channel=5, data=[84, 0]),
   midi.NoteOffEvent(tick=0, channel=5, data=[79, 0]),
   midi.NoteOnEvent(tick=0, channel=5, data=[91, 76]),
   midi.NoteOffEvent(tick=19, channel=5, data=[91, 0]),
   midi.NoteOnEvent(tick=0, channel=5, data=[89, 81]),
   midi.NoteOffEvent(tick=9, channel=5, data=[89, 0]),
   midi.NoteOnEvent(tick=0, channel=5, data=[91, 41]),
   midi.NoteOnEvent(tick=0, channel=5, data=[87, 76]),
   midi.NoteOffEvent(tick=10, channel=5, data=[87, 0]),
   midi.NoteOnEvent(tick=0, channel=5, data=[84, 85]),
   midi.NoteOffEvent(tick=9, channel=5, data=[91, 0]),
   midi.NoteOffEvent(tick=0, channel=5, data=[84, 0]),
   midi.NoteOnEvent(tick=0, channel=5, data=[89, 41]),
   midi.NoteOnEvent(tick=0, channel=5, data=[82, 76]),
   midi.NoteOffEvent(tick=9, channel=5, data=[82, 0]),
   midi.NoteOffEvent(tick=0, channel=5, data=[89, 0]),
   midi.NoteOnEvent(tick=0, channel=5, data=[87, 41]),
   midi.NoteOnEvent(tick=0, channel=5, data=[79, 76]),
   midi.NoteOffEvent(tick=10, channel=5, data=[79, 0]),
   midi.NoteOffEvent(tick=0, channel=5, data=[87, 0]),
   midi.NoteOnEvent(tick=0, channel=5, data=[72, 81]),
   midi.NoteOnEvent(tick=0, channel=5, data=[77, 84]),
   midi.NoteOffEvent(tick=9, channel=5, data=[77, 0]),
   midi.NoteOffEvent(tick=0, channel=5, data=[72, 0]),
   midi.NoteOnEvent(tick=0, channel=5, data=[82, 41]),
   midi.NoteOffEvent(tick=9, channel=5, data=[82, 0]),
   midi.NoteOnEvent(tick=0, channel=5, data=[75, 62]),
   midi.NoteOnEvent(tick=0, channel=5, data=[70, 76]),
   midi.NoteOffEvent(tick=10, channel=5, data=[70, 0]),
   midi.NoteOffEvent(tick=0, channel=5, data=[75, 0]),
   midi.NoteOnEvent(tick=0, channel=5, data=[72, 41]),
   midi.NoteOnEvent(tick=0, channel=5, data=[77, 41]),
   midi.NoteOffEvent(tick=9, channel=5, data=[77, 0]),
   midi.NoteOffEvent(tick=0, channel=5, data=[72, 0]),
   midi.NoteOnEvent(tick=0, channel=5, data=[72, 76]),
   midi.NoteOnEvent(tick=0, channel=5, data=[77, 81]),
   midi.NoteOffEvent(tick=19, channel=5, data=[77, 0]),
   midi.NoteOffEvent(tick=0, channel=5, data=[72, 0]),
   midi.NoteOnEvent(tick=0, channel=5, data=[65, 60]),
   midi.NoteOffEvent(tick=9, channel=5, data=[65, 0]),
   midi.NoteOnEvent(tick=0, channel=5, data=[75, 76]),
   midi.NoteOnEvent(tick=0, channel=5, data=[70, 68]),
   midi.NoteOffEvent(tick=10, channel=5, data=[70, 0]),
   midi.NoteOffEvent(tick=0, channel=5, data=[75, 0]),
   midi.NoteOnEvent(tick=0, channel=5, data=[72, 41]),
   midi.NoteOnEvent(tick=0, channel=5, data=[77, 41]),
   midi.NoteOffEvent(tick=9, channel=5, data=[77, 0]),
   midi.NoteOffEvent(tick=0, channel=5, data=[72, 0]),
   midi.NoteOnEvent(tick=0, channel=5, data=[77, 68]),
   midi.NoteOnEvent(tick=0, channel=5, data=[72, 72]),
   midi.NoteOffEvent(tick=10, channel=5, data=[72, 0]),
   midi.NoteOffEvent(tick=0, channel=5, data=[77, 0]),
   midi.NoteOnEvent(tick=0, channel=5, data=[75, 41]),
   midi.NoteOnEvent(tick=0, channel=5, data=[70, 41]),
   midi.NoteOffEvent(tick=9, channel=5, data=[70, 0]),
   midi.NoteOffEvent(tick=0, channel=5, data=[75, 0]),
   midi.NoteOnEvent(tick=0, channel=5, data=[67, 81]),
   midi.NoteOffEvent(tick=9, channel=5, data=[67, 0]),
   midi.NoteOnEvent(tick=0, channel=5, data=[79, 84]),
   midi.NoteOnEvent(tick=0, channel=5, data=[74, 84]),
   midi.NoteOffEvent(tick=19, channel=5, data=[74, 0]),
   midi.NoteOffEvent(tick=0, channel=5, data=[79, 0]),
   midi.NoteOnEvent(tick=0, channel=5, data=[67, 54]),
   midi.NoteOffEvent(tick=9, channel=5, data=[67, 0]),
   midi.NoteOnEvent(tick=0, channel=5, data=[82, 84]),
   midi.NoteOnEvent(tick=0, channel=5, data=[77, 68]),
   midi.NoteOffEvent(tick=7, channel=5, data=[77, 0]),
   midi.NoteOffEvent(tick=0, channel=5, data=[82, 0]),
   midi.EndOfTrackEvent(tick=0, data=[])]),
 midi.Track(\
  [midi.ChannelPrefixEvent(tick=0, data=[6]),
   midi.ControlChangeEvent(tick=0, channel=6, data=[7, 127]),
   midi.ProgramChangeEvent(tick=0, channel=6, data=[38]),
   midi.ControlChangeEvent(tick=0, channel=6, data=[32, 0]),
   midi.ControlChangeEvent(tick=0, channel=6, data=[0, 0]),
   midi.NoteOnEvent(tick=9, channel=6, data=[36, 127]),
   midi.NoteOffEvent(tick=86, channel=6, data=[36, 0]),
   midi.NoteOnEvent(tick=9, channel=6, data=[36, 127]),
   midi.NoteOffEvent(tick=10, channel=6, data=[36, 0]),
   midi.NoteOnEvent(tick=0, channel=6, data=[48, 127]),
   midi.NoteOffEvent(tick=9, channel=6, data=[48, 0]),
   midi.NoteOnEvent(tick=10, channel=6, data=[36, 127]),
   midi.NoteOffEvent(tick=9, channel=6, data=[36, 0]),
   midi.NoteOnEvent(tick=0, channel=6, data=[43, 127]),
   midi.NoteOffEvent(tick=10, channel=6, data=[43, 0]),
   midi.NoteOnEvent(tick=9, channel=6, data=[32, 127]),
   midi.NoteOffEvent(tick=86, channel=6, data=[32, 0]),
   midi.NoteOnEvent(tick=0, channel=6, data=[32, 127]),
   midi.NoteOffEvent(tick=10, channel=6, data=[32, 0]),
   midi.NoteOnEvent(tick=9, channel=6, data=[44, 127]),
   midi.NoteOffEvent(tick=19, channel=6, data=[44, 0]),
   midi.NoteOnEvent(tick=0, channel=6, data=[43, 127]),
   midi.NoteOffEvent(tick=10, channel=6, data=[43, 0]),
   midi.NoteOnEvent(tick=0, channel=6, data=[39, 127]),
   midi.NoteOffEvent(tick=9, channel=6, data=[39, 0]),
   midi.NoteOnEvent(tick=0, channel=6, data=[33, 127]),
   midi.NoteOffEvent(tick=10, channel=6, data=[33, 0]),
   midi.NoteOnEvent(tick=0, channel=6, data=[29, 127]),
   midi.NoteOffEvent(tick=9, channel=6, data=[29, 0]),
   midi.NoteOnEvent(tick=10, channel=6, data=[29, 127]),
   midi.NoteOffEvent(tick=10, channel=6, data=[29, 0]),
   midi.NoteOnEvent(tick=0, channel=6, data=[41, 127]),
   midi.NoteOffEvent(tick=9, channel=6, data=[41, 0]),
   midi.NoteOnEvent(tick=10, channel=6, data=[29, 127]),
   midi.NoteOffEvent(tick=9, channel=6, data=[29, 0]),
   midi.NoteOnEvent(tick=10, channel=6, data=[31, 127]),
   midi.NoteOffEvent(tick=9, channel=6, data=[31, 0]),
   midi.NoteOnEvent(tick=10, channel=6, data=[31, 127]),
   midi.NoteOffEvent(tick=9, channel=6, data=[31, 0]),
   midi.NoteOnEvent(tick=0, channel=6, data=[43, 127]),
   midi.NoteOffEvent(tick=10, channel=6, data=[43, 0]),
   midi.NoteOnEvent(tick=9, channel=6, data=[31, 127]),
   midi.NoteOffEvent(tick=10, channel=6, data=[31, 0]),
   midi.NoteOnEvent(tick=0, channel=6, data=[39, 127]),
   midi.NoteOffEvent(tick=9, channel=6, data=[39, 0]),
   midi.NoteOnEvent(tick=0, channel=6, data=[41, 127]),
   midi.NoteOffEvent(tick=10, channel=6, data=[41, 0]),
   midi.NoteOnEvent(tick=0, channel=6, data=[39, 127]),
   midi.NoteOffEvent(tick=9, channel=6, data=[39, 0]),
   midi.NoteOnEvent(tick=0, channel=6, data=[36, 127]),
   midi.NoteOffEvent(tick=10, channel=6, data=[36, 0]),
   midi.NoteOnEvent(tick=9, channel=6, data=[36, 127]),
   midi.NoteOffEvent(tick=10, channel=6, data=[36, 0]),
   midi.NoteOnEvent(tick=0, channel=6, data=[48, 127]),
   midi.NoteOffEvent(tick=10, channel=6, data=[48, 0]),
   midi.NoteOnEvent(tick=9, channel=6, data=[36, 127]),
   midi.NoteOffEvent(tick=10, channel=6, data=[36, 0]),
   midi.NoteOnEvent(tick=9, channel=6, data=[36, 127]),
   midi.NoteOffEvent(tick=10, channel=6, data=[36, 0]),
   midi.NoteOnEvent(tick=9, channel=6, data=[36, 127]),
   midi.NoteOffEvent(tick=10, channel=6, data=[36, 0]),
   midi.NoteOnEvent(tick=0, channel=6, data=[43, 127]),
   midi.NoteOffEvent(tick=9, channel=6, data=[43, 0]),
   midi.NoteOnEvent(tick=10, channel=6, data=[46, 127]),
   midi.NoteOffEvent(tick=9, channel=6, data=[46, 0]),
   midi.NoteOnEvent(tick=0, channel=6, data=[48, 127]),
   midi.NoteOffEvent(tick=10, channel=6, data=[48, 0]),
   midi.NoteOnEvent(tick=0, channel=6, data=[43, 127]),
   midi.NoteOffEvent(tick=9, channel=6, data=[43, 0]),
   midi.NoteOnEvent(tick=10, channel=6, data=[32, 127]),
   midi.NoteOffEvent(tick=9, channel=6, data=[32, 0]),
   midi.NoteOnEvent(tick=10, channel=6, data=[32, 127]),
   midi.NoteOffEvent(tick=9, channel=6, data=[32, 0]),
   midi.NoteOnEvent(tick=0, channel=6, data=[41, 127]),
   midi.NoteOffEvent(tick=10, channel=6, data=[41, 0]),
   midi.NoteOnEvent(tick=9, channel=6, data=[32, 127]),
   midi.NoteOffEvent(tick=10, channel=6, data=[32, 0]),
   midi.NoteOnEvent(tick=10, channel=6, data=[32, 127]),
   midi.NoteOffEvent(tick=9, channel=6, data=[32, 0]),
   midi.NoteOnEvent(tick=10, channel=6, data=[44, 127]),
   midi.NoteOffEvent(tick=9, channel=6, data=[44, 0]),
   midi.NoteOnEvent(tick=0, channel=6, data=[43, 127]),
   midi.NoteOffEvent(tick=10, channel=6, data=[43, 0]),
   midi.NoteOnEvent(tick=0, channel=6, data=[39, 127]),
   midi.NoteOffEvent(tick=9, channel=6, data=[39, 0]),
   midi.NoteOnEvent(tick=0, channel=6, data=[32, 127]),
   midi.NoteOffEvent(tick=10, channel=6, data=[32, 0]),
   midi.NoteOnEvent(tick=9, channel=6, data=[36, 127]),
   midi.NoteOffEvent(tick=10, channel=6, data=[36, 0]),
   midi.NoteOnEvent(tick=9, channel=6, data=[29, 127]),
   midi.NoteOffEvent(tick=10, channel=6, data=[29, 0]),
   midi.NoteOnEvent(tick=9, channel=6, data=[29, 127]),
   midi.NoteOffEvent(tick=10, channel=6, data=[29, 0]),
   midi.NoteOnEvent(tick=0, channel=6, data=[41, 127]),
   midi.NoteOffEvent(tick=9, channel=6, data=[41, 0]),
   midi.NoteOnEvent(tick=10, channel=6, data=[29, 127]),
   midi.NoteOffEvent(tick=9, channel=6, data=[29, 0]),
   midi.NoteOnEvent(tick=10, channel=6, data=[31, 127]),
   midi.NoteOffEvent(tick=10, channel=6, data=[31, 0]),
   midi.NoteOnEvent(tick=9, channel=6, data=[31, 127]),
   midi.NoteOffEvent(tick=10, channel=6, data=[31, 0]),
   midi.NoteOnEvent(tick=0, channel=6, data=[31, 127]),
   midi.NoteOffEvent(tick=9, channel=6, data=[31, 0]),
   midi.NoteOnEvent(tick=10, channel=6, data=[43, 127]),
   midi.NoteOffEvent(tick=9, channel=6, data=[43, 0]),
   midi.NoteOnEvent(tick=0, channel=6, data=[41, 127]),
   midi.NoteOffEvent(tick=10, channel=6, data=[41, 0]),
   midi.NoteOnEvent(tick=0, channel=6, data=[38, 127]),
   midi.NoteOffEvent(tick=9, channel=6, data=[38, 0]),
   midi.ControlChangeEvent(tick=9, channel=6, data=[108, 0]),
   midi.NoteOnEvent(tick=1, channel=6, data=[36, 127]),
   midi.NoteOffEvent(tick=19, channel=6, data=[36, 0]),
   midi.NoteOnEvent(tick=9, channel=6, data=[36, 127]),
   midi.NoteOffEvent(tick=10, channel=6, data=[36, 0]),
   midi.NoteOnEvent(tick=0, channel=6, data=[48, 127]),
   midi.NoteOffEvent(tick=9, channel=6, data=[48, 0]),
   midi.NoteOnEvent(tick=0, channel=6, data=[36, 127]),
   midi.NoteOffEvent(tick=10, channel=6, data=[36, 0]),
   midi.NoteOnEvent(tick=9, channel=6, data=[36, 127]),
   midi.NoteOffEvent(tick=10, channel=6, data=[36, 0]),
   midi.NoteOnEvent(tick=0, channel=6, data=[36, 127]),
   midi.NoteOffEvent(tick=38, channel=6, data=[36, 0]),
   midi.NoteOnEvent(tick=0, channel=6, data=[48, 127]),
   midi.NoteOffEvent(tick=10, channel=6, data=[48, 0]),
   midi.NoteOnEvent(tick=28, channel=6, data=[32, 127]),
   midi.NoteOffEvent(tick=19, channel=6, data=[32, 0]),
   midi.NoteOnEvent(tick=10, channel=6, data=[32, 127]),
   midi.NoteOffEvent(tick=9, channel=6, data=[32, 0]),
   midi.NoteOnEvent(tick=0, channel=6, data=[44, 127]),
   midi.NoteOffEvent(tick=10, channel=6, data=[44, 0]),
   midi.NoteOnEvent(tick=0, channel=6, data=[32, 127]),
   midi.NoteOffEvent(tick=9, channel=6, data=[32, 0]),
   midi.NoteOnEvent(tick=10, channel=6, data=[32, 127]),
   midi.NoteOffEvent(tick=9, channel=6, data=[32, 0]),
   midi.NoteOnEvent(tick=0, channel=6, data=[32, 127]),
   midi.NoteOffEvent(tick=39, channel=6, data=[32, 0]),
   midi.NoteOnEvent(tick=0, channel=6, data=[44, 127]),
   midi.NoteOffEvent(tick=9, channel=6, data=[44, 0]),
   midi.NoteOnEvent(tick=10, channel=6, data=[32, 127]),
   midi.NoteOffEvent(tick=9, channel=6, data=[32, 0]),
   midi.NoteOnEvent(tick=10, channel=6, data=[34, 127]),
   midi.NoteOffEvent(tick=19, channel=6, data=[34, 0]),
   midi.NoteOnEvent(tick=9, channel=6, data=[34, 127]),
   midi.NoteOffEvent(tick=10, channel=6, data=[34, 0]),
   midi.NoteOnEvent(tick=0, channel=6, data=[46, 127]),
   midi.NoteOffEvent(tick=9, channel=6, data=[46, 0]),
   midi.NoteOnEvent(tick=0, channel=6, data=[34, 127]),
   midi.NoteOffEvent(tick=10, channel=6, data=[34, 0]),
   midi.NoteOnEvent(tick=9, channel=6, data=[34, 127]),
   midi.NoteOffEvent(tick=10, channel=6, data=[34, 0]),
   midi.NoteOnEvent(tick=0, channel=6, data=[34, 127]),
   midi.NoteOffEvent(tick=38, channel=6, data=[34, 0]),
   midi.NoteOnEvent(tick=0, channel=6, data=[46, 127]),
   midi.NoteOffEvent(tick=10, channel=6, data=[46, 0]),
   midi.NoteOnEvent(tick=28, channel=6, data=[31, 127]),
   midi.NoteOffEvent(tick=19, channel=6, data=[31, 0]),
   midi.NoteOnEvent(tick=10, channel=6, data=[31, 127]),
   midi.NoteOffEvent(tick=9, channel=6, data=[31, 0]),
   midi.NoteOnEvent(tick=0, channel=6, data=[43, 127]),
   midi.NoteOffEvent(tick=10, channel=6, data=[43, 0]),
   midi.NoteOnEvent(tick=0, channel=6, data=[31, 127]),
   midi.NoteOffEvent(tick=9, channel=6, data=[31, 0]),
   midi.NoteOnEvent(tick=10, channel=6, data=[31, 127]),
   midi.NoteOffEvent(tick=9, channel=6, data=[31, 0]),
   midi.NoteOnEvent(tick=0, channel=6, data=[31, 127]),
   midi.NoteOffEvent(tick=67, channel=6, data=[31, 0]),
   midi.NoteOnEvent(tick=10, channel=6, data=[36, 127]),
   midi.NoteOffEvent(tick=19, channel=6, data=[36, 0]),
   midi.NoteOnEvent(tick=9, channel=6, data=[36, 127]),
   midi.NoteOffEvent(tick=10, channel=6, data=[36, 0]),
   midi.NoteOnEvent(tick=0, channel=6, data=[48, 127]),
   midi.NoteOffEvent(tick=9, channel=6, data=[48, 0]),
   midi.NoteOnEvent(tick=0, channel=6, data=[36, 127]),
   midi.NoteOffEvent(tick=10, channel=6, data=[36, 0]),
   midi.NoteOnEvent(tick=9, channel=6, data=[36, 127]),
   midi.NoteOffEvent(tick=10, channel=6, data=[36, 0]),
   midi.NoteOnEvent(tick=0, channel=6, data=[36, 127]),
   midi.NoteOffEvent(tick=38, channel=6, data=[36, 0]),
   midi.NoteOnEvent(tick=0, channel=6, data=[48, 127]),
   midi.NoteOffEvent(tick=9, channel=6, data=[48, 0]),
   midi.NoteOnEvent(tick=29, channel=6, data=[32, 127]),
   midi.NoteOffEvent(tick=10, channel=6, data=[32, 0]),
   midi.NoteOnEvent(tick=9, channel=6, data=[32, 127]),
   midi.NoteOffEvent(tick=19, channel=6, data=[32, 0]),
   midi.NoteOnEvent(tick=0, channel=6, data=[44, 127]),
   midi.NoteOffEvent(tick=10, channel=6, data=[44, 0]),
   midi.NoteOnEvent(tick=0, channel=6, data=[32, 127]),
   midi.NoteOffEvent(tick=9, channel=6, data=[32, 0]),
   midi.NoteOnEvent(tick=10, channel=6, data=[32, 127]),
   midi.NoteOffEvent(tick=9, channel=6, data=[32, 0]),
   midi.NoteOnEvent(tick=0, channel=6, data=[32, 127]),
   midi.NoteOffEvent(tick=38, channel=6, data=[32, 0]),
   midi.NoteOnEvent(tick=0, channel=6, data=[44, 127]),
   midi.NoteOffEvent(tick=10, channel=6, data=[44, 0]),
   midi.NoteOnEvent(tick=9, channel=6, data=[32, 127]),
   midi.NoteOffEvent(tick=10, channel=6, data=[32, 0]),
   midi.NoteOnEvent(tick=10, channel=6, data=[34, 127]),
   midi.NoteOffEvent(tick=9, channel=6, data=[34, 0]),
   midi.NoteOnEvent(tick=10, channel=6, data=[34, 127]),
   midi.NoteOffEvent(tick=19, channel=6, data=[34, 0]),
   midi.NoteOnEvent(tick=0, channel=6, data=[46, 127]),
   midi.NoteOffEvent(tick=9, channel=6, data=[46, 0]),
   midi.NoteOnEvent(tick=0, channel=6, data=[34, 127]),
   midi.NoteOffEvent(tick=10, channel=6, data=[34, 0]),
   midi.NoteOnEvent(tick=9, channel=6, data=[34, 127]),
   midi.NoteOffEvent(tick=10, channel=6, data=[34, 0]),
   midi.NoteOnEvent(tick=0, channel=6, data=[34, 127]),
   midi.NoteOffEvent(tick=38, channel=6, data=[34, 0]),
   midi.NoteOnEvent(tick=0, channel=6, data=[46, 127]),
   midi.NoteOffEvent(tick=9, channel=6, data=[46, 0]),
   midi.NoteOnEvent(tick=10, channel=6, data=[34, 127]),
   midi.NoteOffEvent(tick=9, channel=6, data=[34, 0]),
   midi.NoteOnEvent(tick=10, channel=6, data=[31, 127]),
   midi.NoteOffEvent(tick=19, channel=6, data=[31, 0]),
   midi.NoteOnEvent(tick=19, channel=6, data=[31, 127]),
   midi.NoteOffEvent(tick=48, channel=6, data=[31, 0]),
   midi.NoteOnEvent(tick=0, channel=6, data=[38, 127]),
   midi.NoteOffEvent(tick=9, channel=6, data=[38, 0]),
   midi.NoteOnEvent(tick=0, channel=6, data=[41, 127]),
   midi.NoteOffEvent(tick=10, channel=6, data=[41, 0]),
   midi.NoteOnEvent(tick=0, channel=6, data=[43, 127]),
   midi.NoteOffEvent(tick=9, channel=6, data=[43, 0]),
   midi.NoteOnEvent(tick=0, channel=6, data=[41, 127]),
   midi.NoteOffEvent(tick=10, channel=6, data=[41, 0]),
   midi.NoteOnEvent(tick=0, channel=6, data=[38, 127]),
   midi.NoteOffEvent(tick=9, channel=6, data=[38, 0]),
   midi.NoteOnEvent(tick=0, channel=6, data=[36, 127]),
   midi.NoteOffEvent(tick=10, channel=6, data=[36, 0]),
   midi.NoteOnEvent(tick=0, channel=6, data=[34, 127]),
   midi.NoteOffEvent(tick=9, channel=6, data=[34, 0]),
   midi.NoteOnEvent(tick=0, channel=6, data=[32, 127]),
   midi.NoteOffEvent(tick=29, channel=6, data=[32, 0]),
   midi.NoteOnEvent(tick=0, channel=6, data=[44, 127]),
   midi.NoteOffEvent(tick=10, channel=6, data=[44, 0]),
   midi.NoteOnEvent(tick=19, channel=6, data=[32, 127]),
   midi.NoteOffEvent(tick=9, channel=6, data=[32, 0]),
   midi.NoteOnEvent(tick=57, channel=6, data=[44, 127]),
   midi.NoteOffEvent(tick=10, channel=6, data=[44, 0]),
   midi.NoteOnEvent(tick=19, channel=6, data=[34, 127]),
   midi.NoteOffEvent(tick=19, channel=6, data=[34, 0]),
   midi.NoteOnEvent(tick=9, channel=6, data=[46, 127]),
   midi.NoteOffEvent(tick=10, channel=6, data=[46, 0]),
   midi.NoteOnEvent(tick=19, channel=6, data=[34, 127]),
   midi.NoteOffEvent(tick=10, channel=6, data=[34, 0]),
   midi.NoteOnEvent(tick=28, channel=6, data=[34, 127]),
   midi.NoteOffEvent(tick=10, channel=6, data=[34, 0]),
   midi.NoteOnEvent(tick=19, channel=6, data=[46, 127]),
   midi.NoteOffEvent(tick=9, channel=6, data=[46, 0]),
   midi.NoteOnEvent(tick=0, channel=6, data=[34, 127]),
   midi.NoteOffEvent(tick=10, channel=6, data=[34, 0]),
   midi.NoteOnEvent(tick=9, channel=6, data=[36, 127]),
   midi.NoteOffEvent(tick=19, channel=6, data=[36, 0]),
   midi.NoteOnEvent(tick=10, channel=6, data=[48, 127]),
   midi.NoteOffEvent(tick=9, channel=6, data=[48, 0]),
   midi.NoteOnEvent(tick=20, channel=6, data=[36, 127]),
   midi.NoteOffEvent(tick=9, channel=6, data=[36, 0]),
   midi.NoteOnEvent(tick=86, channel=6, data=[36, 127]),
   midi.NoteOffEvent(tick=19, channel=6, data=[36, 0]),
   midi.NoteOnEvent(tick=9, channel=6, data=[48, 127]),
   midi.NoteOffEvent(tick=10, channel=6, data=[48, 0]),
   midi.NoteOnEvent(tick=9, channel=6, data=[46, 127]),
   midi.NoteOffEvent(tick=10, channel=6, data=[46, 0]),
   midi.NoteOnEvent(tick=9, channel=6, data=[43, 127]),
   midi.NoteOffEvent(tick=10, channel=6, data=[43, 0]),
   midi.NoteOnEvent(tick=0, channel=6, data=[48, 127]),
   midi.NoteOffEvent(tick=10, channel=6, data=[48, 0]),
   midi.NoteOnEvent(tick=9, channel=6, data=[43, 127]),
   midi.NoteOffEvent(tick=19, channel=6, data=[43, 0]),
   midi.NoteOnEvent(tick=0, channel=6, data=[41, 127]),
   midi.NoteOffEvent(tick=10, channel=6, data=[41, 0]),
   midi.NoteOnEvent(tick=0, channel=6, data=[39, 127]),
   midi.NoteOffEvent(tick=9, channel=6, data=[39, 0]),
   midi.NoteOnEvent(tick=0, channel=6, data=[36, 127]),
   midi.NoteOffEvent(tick=10, channel=6, data=[36, 0]),
   midi.NoteOnEvent(tick=0, channel=6, data=[34, 127]),
   midi.NoteOffEvent(tick=9, channel=6, data=[34, 0]),
   midi.NoteOnEvent(tick=0, channel=6, data=[32, 127]),
   midi.NoteOffEvent(tick=19, channel=6, data=[32, 0]),
   midi.NoteOnEvent(tick=10, channel=6, data=[44, 127]),
   midi.NoteOffEvent(tick=9, channel=6, data=[44, 0]),
   midi.NoteOnEvent(tick=19, channel=6, data=[32, 127]),
   midi.NoteOffEvent(tick=10, channel=6, data=[32, 0]),
   midi.NoteOnEvent(tick=29, channel=6, data=[32, 127]),
   midi.NoteOffEvent(tick=9, channel=6, data=[32, 0]),
   midi.NoteOnEvent(tick=10, channel=6, data=[44, 127]),
   midi.NoteOffEvent(tick=9, channel=6, data=[44, 0]),
   midi.NoteOnEvent(tick=0, channel=6, data=[32, 127]),
   midi.NoteOffEvent(tick=10, channel=6, data=[32, 0]),
   midi.NoteOnEvent(tick=19, channel=6, data=[34, 127]),
   midi.NoteOffEvent(tick=19, channel=6, data=[34, 0]),
   midi.NoteOnEvent(tick=9, channel=6, data=[46, 127]),
   midi.NoteOffEvent(tick=10, channel=6, data=[46, 0]),
   midi.NoteOnEvent(tick=19, channel=6, data=[34, 127]),
   midi.NoteOffEvent(tick=9, channel=6, data=[34, 0]),
   midi.NoteOnEvent(tick=29, channel=6, data=[34, 127]),
   midi.NoteOffEvent(tick=19, channel=6, data=[34, 0]),
   midi.NoteOnEvent(tick=10, channel=6, data=[46, 127]),
   midi.NoteOffEvent(tick=9, channel=6, data=[46, 0]),
   midi.NoteOnEvent(tick=19, channel=6, data=[36, 127]),
   midi.NoteOffEvent(tick=10, channel=6, data=[36, 0]),
   midi.NoteOnEvent(tick=9, channel=6, data=[36, 127]),
   midi.NoteOffEvent(tick=10, channel=6, data=[36, 0]),
   midi.NoteOnEvent(tick=0, channel=6, data=[48, 127]),
   midi.NoteOffEvent(tick=9, channel=6, data=[48, 0]),
   midi.NoteOnEvent(tick=10, channel=6, data=[36, 127]),
   midi.NoteOffEvent(tick=9, channel=6, data=[36, 0]),
   midi.NoteOnEvent(tick=29, channel=6, data=[36, 127]),
   midi.NoteOffEvent(tick=9, channel=6, data=[36, 0]),
   midi.NoteOnEvent(tick=10, channel=6, data=[36, 127]),
   midi.NoteOffEvent(tick=10, channel=6, data=[36, 0]),
   midi.NoteOnEvent(tick=0, channel=6, data=[48, 127]),
   midi.NoteOffEvent(tick=9, channel=6, data=[48, 0]),
   midi.NoteOnEvent(tick=10, channel=6, data=[36, 127]),
   midi.NoteOffEvent(tick=9, channel=6, data=[36, 0]),
   midi.NoteOnEvent(tick=0, channel=6, data=[43, 127]),
   midi.NoteOffEvent(tick=10, channel=6, data=[43, 0]),
   midi.NoteOnEvent(tick=9, channel=6, data=[36, 127]),
   midi.NoteOffEvent(tick=10, channel=6, data=[36, 0]),
   midi.NoteOnEvent(tick=0, channel=6, data=[46, 127]),
   midi.NoteOffEvent(tick=9, channel=6, data=[46, 0]),
   midi.NoteOnEvent(tick=10, channel=6, data=[36, 127]),
   midi.NoteOffEvent(tick=9, channel=6, data=[36, 0]),
   midi.NoteOnEvent(tick=0, channel=6, data=[46, 127]),
   midi.NoteOffEvent(tick=10, channel=6, data=[46, 0]),
   midi.NoteOnEvent(tick=0, channel=6, data=[48, 127]),
   midi.NoteOffEvent(tick=9, channel=6, data=[48, 0]),
   midi.NoteOnEvent(tick=10, channel=6, data=[34, 127]),
   midi.NoteOffEvent(tick=9, channel=6, data=[34, 0]),
   midi.NoteOnEvent(tick=0, channel=6, data=[43, 127]),
   midi.NoteOffEvent(tick=10, channel=6, data=[43, 0]),
   midi.NoteOnEvent(tick=0, channel=6, data=[34, 127]),
   midi.NoteOffEvent(tick=9, channel=6, data=[34, 0]),
   midi.NoteOnEvent(tick=0, channel=6, data=[39, 127]),
   midi.NoteOffEvent(tick=10, channel=6, data=[39, 0]),
   midi.NoteOnEvent(tick=0, channel=6, data=[46, 127]),
   midi.NoteOffEvent(tick=9, channel=6, data=[46, 0]),
   midi.NoteOnEvent(tick=0, channel=6, data=[43, 127]),
   midi.NoteOffEvent(tick=10, channel=6, data=[43, 0]),
   midi.NoteOnEvent(tick=0, channel=6, data=[41, 127]),
   midi.NoteOffEvent(tick=10, channel=6, data=[41, 0]),
   midi.NoteOnEvent(tick=0, channel=6, data=[39, 127]),
   midi.NoteOffEvent(tick=9, channel=6, data=[39, 0]),
   midi.NoteOnEvent(tick=0, channel=6, data=[36, 127]),
   midi.NoteOffEvent(tick=19, channel=6, data=[36, 0]),
   midi.NoteOnEvent(tick=10, channel=6, data=[48, 127]),
   midi.NoteOffEvent(tick=9, channel=6, data=[48, 0]),
   midi.NoteOnEvent(tick=10, channel=6, data=[36, 127]),
   midi.NoteOffEvent(tick=9, channel=6, data=[36, 0]),
   midi.NoteOnEvent(tick=10, channel=6, data=[43, 127]),
   midi.NoteOffEvent(tick=9, channel=6, data=[43, 0]),
   midi.NoteOnEvent(tick=10, channel=6, data=[43, 127]),
   midi.NoteOffEvent(tick=9, channel=6, data=[43, 0]),
   midi.NoteOnEvent(tick=0, channel=6, data=[46, 127]),
   midi.NoteOffEvent(tick=10, channel=6, data=[46, 0]),
   midi.NoteOnEvent(tick=9, channel=6, data=[36, 127]),
   midi.NoteOffEvent(tick=10, channel=6, data=[36, 0]),
   midi.NoteOnEvent(tick=0, channel=6, data=[48, 127]),
   midi.NoteOffEvent(tick=9, channel=6, data=[48, 0]),
   midi.NoteOnEvent(tick=0, channel=6, data=[43, 127]),
   midi.NoteOffEvent(tick=10, channel=6, data=[43, 0]),
   midi.NoteOnEvent(tick=0, channel=6, data=[29, 127]),
   midi.NoteOffEvent(tick=29, channel=6, data=[29, 0]),
   midi.NoteOnEvent(tick=0, channel=6, data=[29, 127]),
   midi.NoteOffEvent(tick=9, channel=6, data=[29, 0]),
   midi.NoteOnEvent(tick=0, channel=6, data=[41, 127]),
   midi.NoteOffEvent(tick=10, channel=6, data=[41, 0]),
   midi.NoteOnEvent(tick=19, channel=6, data=[29, 127]),
   midi.NoteOffEvent(tick=19, channel=6, data=[29, 0]),
   midi.NoteOnEvent(tick=19, channel=6, data=[29, 127]),
   midi.NoteOffEvent(tick=19, channel=6, data=[29, 0]),
   midi.NoteOnEvent(tick=0, channel=6, data=[41, 127]),
   midi.NoteOffEvent(tick=9, channel=6, data=[41, 0]),
   midi.NoteOnEvent(tick=0, channel=6, data=[29, 127]),
   midi.NoteOffEvent(tick=10, channel=6, data=[29, 0]),
   midi.NoteOnEvent(tick=9, channel=6, data=[29, 127]),
   midi.NoteOffEvent(tick=10, channel=6, data=[29, 0]),
   midi.NoteOnEvent(tick=0, channel=6, data=[34, 127]),
   midi.NoteOffEvent(tick=19, channel=6, data=[34, 0]),
   midi.NoteOnEvent(tick=10, channel=6, data=[46, 127]),
   midi.NoteOffEvent(tick=9, channel=6, data=[46, 0]),
   midi.NoteOnEvent(tick=10, channel=6, data=[34, 127]),
   midi.NoteOffEvent(tick=9, channel=6, data=[34, 0]),
   midi.NoteOnEvent(tick=10, channel=6, data=[41, 127]),
   midi.NoteOffEvent(tick=9, channel=6, data=[41, 0]),
   midi.NoteOnEvent(tick=10, channel=6, data=[41, 127]),
   midi.NoteOffEvent(tick=9, channel=6, data=[41, 0]),
   midi.NoteOnEvent(tick=0, channel=6, data=[44, 127]),
   midi.NoteOffEvent(tick=10, channel=6, data=[44, 0]),
   midi.NoteOnEvent(tick=9, channel=6, data=[34, 127]),
   midi.NoteOffEvent(tick=10, channel=6, data=[34, 0]),
   midi.NoteOnEvent(tick=0, channel=6, data=[46, 127]),
   midi.NoteOffEvent(tick=9, channel=6, data=[46, 0]),
   midi.NoteOnEvent(tick=0, channel=6, data=[41, 127]),
   midi.NoteOffEvent(tick=10, channel=6, data=[41, 0]),
   midi.NoteOnEvent(tick=0, channel=6, data=[27, 127]),
   midi.NoteOffEvent(tick=28, channel=6, data=[27, 0]),
   midi.NoteOnEvent(tick=0, channel=6, data=[27, 127]),
   midi.NoteOffEvent(tick=10, channel=6, data=[27, 0]),
   midi.NoteOnEvent(tick=0, channel=6, data=[39, 127]),
   midi.NoteOffEvent(tick=10, channel=6, data=[39, 0]),
   midi.NoteOnEvent(tick=19, channel=6, data=[27, 127]),
   midi.NoteOffEvent(tick=19, channel=6, data=[27, 0]),
   midi.NoteOnEvent(tick=19, channel=6, data=[27, 127]),
   midi.NoteOffEvent(tick=19, channel=6, data=[27, 0]),
   midi.NoteOnEvent(tick=0, channel=6, data=[39, 127]),
   midi.NoteOffEvent(tick=9, channel=6, data=[39, 0]),
   midi.NoteOnEvent(tick=0, channel=6, data=[27, 127]),
   midi.NoteOffEvent(tick=10, channel=6, data=[27, 0]),
   midi.NoteOnEvent(tick=9, channel=6, data=[27, 127]),
   midi.NoteOffEvent(tick=10, channel=6, data=[27, 0]),
   midi.NoteOnEvent(tick=0, channel=6, data=[32, 127]),
   midi.NoteOffEvent(tick=19, channel=6, data=[32, 0]),
   midi.NoteOnEvent(tick=9, channel=6, data=[44, 127]),
   midi.NoteOffEvent(tick=10, channel=6, data=[44, 0]),
   midi.NoteOnEvent(tick=19, channel=6, data=[32, 127]),
   midi.NoteOffEvent(tick=10, channel=6, data=[32, 0]),
   midi.NoteOnEvent(tick=19, channel=6, data=[32, 127]),
   midi.NoteOffEvent(tick=9, channel=6, data=[32, 0]),
   midi.NoteOnEvent(tick=19, channel=6, data=[44, 127]),
   midi.NoteOffEvent(tick=10, channel=6, data=[44, 0]),
   midi.NoteOnEvent(tick=9, channel=6, data=[32, 127]),
   midi.NoteOffEvent(tick=10, channel=6, data=[32, 0]),
   midi.NoteOnEvent(tick=9, channel=6, data=[34, 127]),
   midi.NoteOffEvent(tick=19, channel=6, data=[34, 0]),
   midi.NoteOnEvent(tick=10, channel=6, data=[46, 127]),
   midi.NoteOffEvent(tick=9, channel=6, data=[46, 0]),
   midi.NoteOnEvent(tick=20, channel=6, data=[34, 127]),
   midi.NoteOffEvent(tick=9, channel=6, data=[34, 0]),
   midi.NoteOnEvent(tick=19, channel=6, data=[34, 127]),
   midi.NoteOffEvent(tick=10, channel=6, data=[34, 0]),
   midi.NoteOnEvent(tick=19, channel=6, data=[46, 127]),
   midi.NoteOffEvent(tick=9, channel=6, data=[46, 0]),
   midi.NoteOnEvent(tick=10, channel=6, data=[34, 127]),
   midi.NoteOffEvent(tick=9, channel=6, data=[34, 0]),
   midi.NoteOnEvent(tick=29, channel=6, data=[36, 127]),
   midi.NoteOffEvent(tick=9, channel=6, data=[36, 0]),
   midi.NoteOnEvent(tick=10, channel=6, data=[48, 127]),
   midi.NoteOffEvent(tick=9, channel=6, data=[48, 0]),
   midi.NoteOnEvent(tick=0, channel=6, data=[36, 127]),
   midi.NoteOffEvent(tick=10, channel=6, data=[36, 0]),
   midi.NoteOnEvent(tick=10, channel=6, data=[36, 127]),
   midi.NoteOffEvent(tick=9, channel=6, data=[36, 0]),
   midi.NoteOnEvent(tick=0, channel=6, data=[46, 127]),
   midi.NoteOffEvent(tick=10, channel=6, data=[46, 0]),
   midi.NoteOnEvent(tick=9, channel=6, data=[46, 127]),
   midi.NoteOffEvent(tick=10, channel=6, data=[46, 0]),
   midi.NoteOnEvent(tick=9, channel=6, data=[46, 127]),
   midi.NoteOffEvent(tick=10, channel=6, data=[46, 0]),
   midi.NoteOnEvent(tick=0, channel=6, data=[48, 127]),
   midi.NoteOffEvent(tick=9, channel=6, data=[48, 0]),
   midi.NoteOnEvent(tick=0, channel=6, data=[43, 127]),
   midi.NoteOffEvent(tick=10, channel=6, data=[43, 0]),
   midi.NoteOnEvent(tick=0, channel=6, data=[36, 127]),
   midi.NoteOffEvent(tick=9, channel=6, data=[36, 0]),
   midi.NoteOnEvent(tick=10, channel=6, data=[41, 127]),
   midi.NoteOffEvent(tick=9, channel=6, data=[41, 0]),
   midi.NoteOnEvent(tick=10, channel=6, data=[36, 127]),
   midi.NoteOffEvent(tick=9, channel=6, data=[36, 0]),
   midi.NoteOnEvent(tick=0, channel=6, data=[48, 127]),
   midi.NoteOffEvent(tick=10, channel=6, data=[48, 0]),
   midi.NoteOnEvent(tick=9, channel=6, data=[36, 127]),
   midi.NoteOffEvent(tick=10, channel=6, data=[36, 0]),
   midi.NoteOnEvent(tick=0, channel=6, data=[43, 127]),
   midi.NoteOffEvent(tick=9, channel=6, data=[43, 0]),
   midi.NoteOnEvent(tick=10, channel=6, data=[41, 127]),
   midi.NoteOffEvent(tick=10, channel=6, data=[41, 0]),
   midi.NoteOnEvent(tick=0, channel=6, data=[48, 127]),
   midi.NoteOffEvent(tick=9, channel=6, data=[48, 0]),
   midi.NoteOnEvent(tick=0, channel=6, data=[43, 127]),
   midi.NoteOffEvent(tick=10, channel=6, data=[43, 0]),
   midi.NoteOnEvent(tick=0, channel=6, data=[36, 127]),
   midi.NoteOffEvent(tick=9, channel=6, data=[36, 0]),
   midi.NoteOnEvent(tick=0, channel=6, data=[39, 127]),
   midi.NoteOffEvent(tick=10, channel=6, data=[39, 0]),
   midi.NoteOnEvent(tick=0, channel=6, data=[36, 127]),
   midi.NoteOffEvent(tick=9, channel=6, data=[36, 0]),
   midi.NoteOnEvent(tick=0, channel=6, data=[34, 127]),
   midi.NoteOffEvent(tick=10, channel=6, data=[34, 0]),
   midi.NoteOnEvent(tick=0, channel=6, data=[32, 127]),
   midi.NoteOffEvent(tick=19, channel=6, data=[32, 0]),
   midi.NoteOnEvent(tick=9, channel=6, data=[32, 127]),
   midi.NoteOffEvent(tick=10, channel=6, data=[32, 0]),
   midi.NoteOnEvent(tick=19, channel=6, data=[32, 127]),
   midi.NoteOffEvent(tick=19, channel=6, data=[32, 0]),
   midi.NoteOnEvent(tick=19, channel=6, data=[32, 127]),
   midi.NoteOffEvent(tick=10, channel=6, data=[32, 0]),
   midi.NoteOnEvent(tick=19, channel=6, data=[32, 127]),
   midi.NoteOffEvent(tick=9, channel=6, data=[32, 0]),
   midi.NoteOnEvent(tick=19, channel=6, data=[34, 127]),
   midi.NoteOffEvent(tick=19, channel=6, data=[34, 0]),
   midi.NoteOnEvent(tick=10, channel=6, data=[34, 127]),
   midi.NoteOffEvent(tick=9, channel=6, data=[34, 0]),
   midi.NoteOnEvent(tick=19, channel=6, data=[34, 127]),
   midi.NoteOffEvent(tick=10, channel=6, data=[34, 0]),
   midi.NoteOnEvent(tick=28, channel=6, data=[34, 127]),
   midi.NoteOffEvent(tick=10, channel=6, data=[34, 0]),
   midi.NoteOnEvent(tick=19, channel=6, data=[34, 127]),
   midi.NoteOffEvent(tick=10, channel=6, data=[34, 0]),
   midi.NoteOnEvent(tick=47, channel=6, data=[36, 127]),
   midi.NoteOffEvent(tick=10, channel=6, data=[36, 0]),
   midi.NoteOnEvent(tick=0, channel=6, data=[48, 127]),
   midi.NoteOffEvent(tick=9, channel=6, data=[48, 0]),
   midi.NoteOnEvent(tick=10, channel=6, data=[36, 127]),
   midi.NoteOffEvent(tick=9, channel=6, data=[36, 0]),
   midi.NoteOnEvent(tick=0, channel=6, data=[46, 127]),
   midi.NoteOffEvent(tick=10, channel=6, data=[46, 0]),
   midi.NoteOnEvent(tick=9, channel=6, data=[36, 127]),
   midi.NoteOffEvent(tick=10, channel=6, data=[36, 0]),
   midi.NoteOnEvent(tick=9, channel=6, data=[36, 127]),
   midi.NoteOffEvent(tick=10, channel=6, data=[36, 0]),
   midi.NoteOnEvent(tick=10, channel=6, data=[43, 127]),
   midi.NoteOffEvent(tick=9, channel=6, data=[43, 0]),
   midi.NoteOnEvent(tick=0, channel=6, data=[46, 127]),
   midi.NoteOffEvent(tick=10, channel=6, data=[46, 0]),
   midi.NoteOnEvent(tick=9, channel=6, data=[36, 127]),
   midi.NoteOffEvent(tick=10, channel=6, data=[36, 0]),
   midi.NoteOnEvent(tick=9, channel=6, data=[36, 127]),
   midi.NoteOffEvent(tick=10, channel=6, data=[36, 0]),
   midi.NoteOnEvent(tick=9, channel=6, data=[48, 127]),
   midi.NoteOffEvent(tick=10, channel=6, data=[48, 0]),
   midi.NoteOnEvent(tick=19, channel=6, data=[43, 127]),
   midi.NoteOffEvent(tick=9, channel=6, data=[43, 0]),
   midi.NoteOnEvent(tick=19, channel=6, data=[46, 127]),
   midi.NoteOffEvent(tick=10, channel=6, data=[46, 0]),
   midi.NoteOnEvent(tick=9, channel=6, data=[46, 127]),
   midi.NoteOffEvent(tick=10, channel=6, data=[46, 0]),
   midi.NoteOnEvent(tick=0, channel=6, data=[48, 127]),
   midi.NoteOffEvent(tick=9, channel=6, data=[48, 0]),
   midi.NoteOnEvent(tick=20, channel=6, data=[36, 127]),
   midi.NoteOffEvent(tick=9, channel=6, data=[36, 0]),
   midi.NoteOnEvent(tick=9, channel=6, data=[36, 127]),
   midi.NoteOffEvent(tick=10, channel=6, data=[36, 0]),
   midi.NoteOnEvent(tick=0, channel=6, data=[48, 127]),
   midi.NoteOffEvent(tick=9, channel=6, data=[48, 0]),
   midi.NoteOnEvent(tick=9, channel=6, data=[36, 127]),
   midi.NoteOffEvent(tick=10, channel=6, data=[36, 0]),
   midi.NoteOnEvent(tick=9, channel=6, data=[36, 127]),
   midi.NoteOffEvent(tick=10, channel=6, data=[36, 0]),
   midi.NoteOnEvent(tick=9, channel=6, data=[36, 127]),
   midi.NoteOffEvent(tick=9, channel=6, data=[36, 0]),
   midi.NoteOnEvent(tick=0, channel=6, data=[43, 127]),
   midi.NoteOffEvent(tick=10, channel=6, data=[43, 0]),
   midi.NoteOnEvent(tick=9, channel=6, data=[46, 127]),
   midi.NoteOffEvent(tick=9, channel=6, data=[46, 0]),
   midi.NoteOnEvent(tick=0, channel=6, data=[48, 127]),
   midi.NoteOffEvent(tick=10, channel=6, data=[48, 0]),
   midi.NoteOnEvent(tick=0, channel=6, data=[43, 127]),
   midi.NoteOffEvent(tick=9, channel=6, data=[43, 0]),
   midi.NoteOnEvent(tick=10, channel=6, data=[32, 127]),
   midi.NoteOffEvent(tick=9, channel=6, data=[32, 0]),
   midi.NoteOnEvent(tick=9, channel=6, data=[32, 127]),
   midi.NoteOffEvent(tick=10, channel=6, data=[32, 0]),
   midi.NoteOnEvent(tick=0, channel=6, data=[41, 127]),
   midi.NoteOffEvent(tick=9, channel=6, data=[41, 0]),
   midi.NoteOnEvent(tick=9, channel=6, data=[32, 127]),
   midi.NoteOffEvent(tick=10, channel=6, data=[32, 0]),
   midi.NoteOnEvent(tick=9, channel=6, data=[32, 127]),
   midi.NoteOffEvent(tick=10, channel=6, data=[32, 0]),
   midi.NoteOnEvent(tick=9, channel=6, data=[44, 127]),
   midi.NoteOffEvent(tick=9, channel=6, data=[44, 0]),
   midi.NoteOnEvent(tick=0, channel=6, data=[43, 127]),
   midi.NoteOffEvent(tick=10, channel=6, data=[43, 0]),
   midi.NoteOnEvent(tick=0, channel=6, data=[39, 127]),
   midi.NoteOffEvent(tick=9, channel=6, data=[39, 0]),
   midi.NoteOnEvent(tick=0, channel=6, data=[32, 127]),
   midi.NoteOffEvent(tick=9, channel=6, data=[32, 0]),
   midi.NoteOnEvent(tick=10, channel=6, data=[36, 127]),
   midi.NoteOffEvent(tick=9, channel=6, data=[36, 0]),
   midi.NoteOnEvent(tick=10, channel=6, data=[29, 127]),
   midi.NoteOffEvent(tick=9, channel=6, data=[29, 0]),
   midi.NoteOnEvent(tick=9, channel=6, data=[29, 127]),
   midi.NoteOffEvent(tick=10, channel=6, data=[29, 0]),
   midi.NoteOnEvent(tick=0, channel=6, data=[41, 127]),
   midi.NoteOffEvent(tick=9, channel=6, data=[41, 0]),
   midi.NoteOnEvent(tick=10, channel=6, data=[29, 127]),
   midi.NoteOffEvent(tick=9, channel=6, data=[29, 0]),
   midi.NoteOnEvent(tick=9, channel=6, data=[31, 127]),
   midi.NoteOffEvent(tick=10, channel=6, data=[31, 0]),
   midi.NoteOnEvent(tick=9, channel=6, data=[31, 127]),
   midi.NoteOffEvent(tick=9, channel=6, data=[31, 0]),
   midi.NoteOnEvent(tick=0, channel=6, data=[31, 127]),
   midi.NoteOffEvent(tick=10, channel=6, data=[31, 0]),
   midi.NoteOnEvent(tick=9, channel=6, data=[43, 127]),
   midi.NoteOffEvent(tick=10, channel=6, data=[43, 0]),
   midi.NoteOnEvent(tick=0, channel=6, data=[41, 127]),
   midi.NoteOffEvent(tick=9, channel=6, data=[41, 0]),
   midi.NoteOnEvent(tick=0, channel=6, data=[38, 127]),
   midi.NoteOffEvent(tick=9, channel=6, data=[38, 0]),
   midi.NoteOnEvent(tick=10, channel=6, data=[36, 127]),
   midi.NoteOffEvent(tick=9, channel=6, data=[36, 0]),
   midi.NoteOnEvent(tick=9, channel=6, data=[36, 127]),
   midi.NoteOffEvent(tick=10, channel=6, data=[36, 0]),
   midi.NoteOnEvent(tick=0, channel=6, data=[48, 127]),
   midi.NoteOffEvent(tick=9, channel=6, data=[48, 0]),
   midi.NoteOnEvent(tick=10, channel=6, data=[36, 127]),
   midi.NoteOffEvent(tick=9, channel=6, data=[36, 0]),
   midi.NoteOnEvent(tick=9, channel=6, data=[36, 127]),
   midi.NoteOffEvent(tick=10, channel=6, data=[36, 0]),
   midi.NoteOnEvent(tick=9, channel=6, data=[36, 127]),
   midi.NoteOffEvent(tick=9, channel=6, data=[36, 0]),
   midi.NoteOnEvent(tick=0, channel=6, data=[43, 127]),
   midi.NoteOffEvent(tick=10, channel=6, data=[43, 0]),
   midi.NoteOnEvent(tick=9, channel=6, data=[46, 127]),
   midi.NoteOffEvent(tick=10, channel=6, data=[46, 0]),
   midi.NoteOnEvent(tick=0, channel=6, data=[48, 127]),
   midi.NoteOffEvent(tick=9, channel=6, data=[48, 0]),
   midi.NoteOnEvent(tick=0, channel=6, data=[43, 127]),
   midi.NoteOffEvent(tick=9, channel=6, data=[43, 0]),
   midi.NoteOnEvent(tick=10, channel=6, data=[32, 127]),
   midi.NoteOffEvent(tick=9, channel=6, data=[32, 0]),
   midi.NoteOnEvent(tick=9, channel=6, data=[32, 127]),
   midi.NoteOffEvent(tick=10, channel=6, data=[32, 0]),
   midi.NoteOnEvent(tick=0, channel=6, data=[41, 127]),
   midi.NoteOffEvent(tick=9, channel=6, data=[41, 0]),
   midi.NoteOnEvent(tick=10, channel=6, data=[32, 127]),
   midi.NoteOffEvent(tick=9, channel=6, data=[32, 0]),
   midi.NoteOnEvent(tick=9, channel=6, data=[32, 127]),
   midi.NoteOffEvent(tick=10, channel=6, data=[32, 0]),
   midi.NoteOnEvent(tick=9, channel=6, data=[44, 127]),
   midi.NoteOffEvent(tick=9, channel=6, data=[44, 0]),
   midi.NoteOnEvent(tick=0, channel=6, data=[43, 127]),
   midi.NoteOffEvent(tick=10, channel=6, data=[43, 0]),
   midi.NoteOnEvent(tick=0, channel=6, data=[39, 127]),
   midi.NoteOffEvent(tick=9, channel=6, data=[39, 0]),
   midi.NoteOnEvent(tick=0, channel=6, data=[32, 127]),
   midi.NoteOffEvent(tick=10, channel=6, data=[32, 0]),
   midi.NoteOnEvent(tick=9, channel=6, data=[36, 127]),
   midi.NoteOffEvent(tick=9, channel=6, data=[36, 0]),
   midi.NoteOnEvent(tick=10, channel=6, data=[29, 127]),
   midi.NoteOffEvent(tick=9, channel=6, data=[29, 0]),
   midi.NoteOnEvent(tick=9, channel=6, data=[29, 127]),
   midi.NoteOffEvent(tick=10, channel=6, data=[29, 0]),
   midi.NoteOnEvent(tick=0, channel=6, data=[41, 127]),
   midi.NoteOffEvent(tick=9, channel=6, data=[41, 0]),
   midi.NoteOnEvent(tick=10, channel=6, data=[29, 127]),
   midi.NoteOffEvent(tick=9, channel=6, data=[29, 0]),
   midi.NoteOnEvent(tick=9, channel=6, data=[31, 127]),
   midi.NoteOffEvent(tick=10, channel=6, data=[31, 0]),
   midi.NoteOnEvent(tick=9, channel=6, data=[31, 127]),
   midi.NoteOffEvent(tick=10, channel=6, data=[31, 0]),
   midi.NoteOnEvent(tick=0, channel=6, data=[31, 127]),
   midi.NoteOffEvent(tick=9, channel=6, data=[31, 0]),
   midi.NoteOnEvent(tick=9, channel=6, data=[43, 127]),
   midi.NoteOffEvent(tick=10, channel=6, data=[43, 0]),
   midi.NoteOnEvent(tick=0, channel=6, data=[41, 127]),
   midi.NoteOffEvent(tick=9, channel=6, data=[41, 0]),
   midi.NoteOnEvent(tick=0, channel=6, data=[38, 127]),
   midi.NoteOffEvent(tick=9, channel=6, data=[38, 0]),
   midi.EndOfTrackEvent(tick=0, data=[])])])
